<?xml version="1.0" encoding="UTF-8" standalone="no"?>
<!-- Created with Inkscape (http://www.inkscape.org/) -->

<svg
   xmlns:dc="http://purl.org/dc/elements/1.1/"
   xmlns:cc="http://creativecommons.org/ns#"
   xmlns:rdf="http://www.w3.org/1999/02/22-rdf-syntax-ns#"
   xmlns:svg="http://www.w3.org/2000/svg"
   xmlns="http://www.w3.org/2000/svg"
   xmlns:sodipodi="http://sodipodi.sourceforge.net/DTD/sodipodi-0.dtd"
   xmlns:inkscape="http://www.inkscape.org/namespaces/inkscape"
   sodipodi:docname="ear.svg"
   id="svg8"
   version="1.1"
   viewBox="0 0 14.311962 20.767778"
   height="20.767778mm"
   width="14.311962mm"
   inkscape:version="0.92.4 (5da689c313, 2019-01-14)">
  <defs
     id="defs2" />
  <sodipodi:namedview
     id="base"
     pagecolor="#ffffff"
     bordercolor="#666666"
     borderopacity="1.0"
     inkscape:pageopacity="0.0"
     inkscape:pageshadow="2"
     inkscape:zoom="5.6"
     inkscape:cx="-7.829563"
     inkscape:cy="57.833945"
     inkscape:document-units="mm"
     inkscape:current-layer="layer1"
     showgrid="false"
     fit-margin-top="1"
     fit-margin-left="1"
     fit-margin-right="1"
     fit-margin-bottom="1"
     inkscape:window-width="1920"
     inkscape:window-height="1023"
     inkscape:window-x="0"
     inkscape:window-y="31"
     inkscape:window-maximized="1"
     inkscape:pagecheckerboard="true" />
  <metadata
     id="metadata5">
    <rdf:RDF>
      <cc:Work
         rdf:about="">
        <dc:format>image/svg+xml</dc:format>
        <dc:type
           rdf:resource="http://purl.org/dc/dcmitype/StillImage" />
        <dc:title></dc:title>
      </cc:Work>
    </rdf:RDF>
  </metadata>
  <g
     inkscape:label="Layer 1"
     inkscape:groupmode="layer"
     id="layer1"
     transform="translate(-44.800719,-24.76677)">
    <g
       aria-label="👂"
       transform="scale(0.26458333)"
       style="font-style:normal;font-weight:normal;font-size:40px;line-height:1.25;font-family:sans-serif;letter-spacing:0px;word-spacing:0px;fill:#00000000;fill-opacity:1;stroke:none"
       id="flowRoot815">
      <path
         d="m 190.90508,168.31955 q -3.93334,0 -6.8,-1.33334 -2.8,-1.33333 -4.66667,-3.13333 -1.8,-1.73333 -2.73333,-3.13333 -0.86667,-1.4 -1,-1.6 -0.13334,-0.26667 -0.2,-0.53334 0,-0.26666 0,-0.46666 0,-0.93334 0.6,-1.6 0.6,-0.66667 1.53333,-0.66667 1.46667,0 2.06667,1.26667 0,0.0667 0.66666,1.06666 0.73334,1.06667 2.13334,2.4 1.4,1.33334 3.53333,2.26667 2.13333,1 4.93333,1 3.53334,0 6.46667,-1.73333 2.93333,-1.73334 5,-4.8 2.06667,-3.06667 2.86667,-6.93333 0.4,-1.93334 0.86666,-3.6 0.46667,-1.66667 1.06667,-3.46667 0.66667,-1.8 1.53333,-4.13333 0.86667,-2.4 2.06667,-5.73334 0.73333,-2 1.73333,-4.33333 1.06667,-2.33333 1.8,-5.2 0.8,-2.86667 0.8,-6.4 0,-4.46667 -1.93333,-7.73333 -1.86667,-3.26667 -5,-5.26667 -3.06667,-2 -6.73333,-2.53333 -0.66667,-0.13334 -1.26667,-0.13334 -0.6,0 -1.2,0 -4.06667,0 -6.93333,1.06667 -2.86667,1 -4.8,2.53333 -1.93334,1.46667 -3.2,2.93334 -1.66667,1.86666 -2.93334,4.46666 -1.2,2.53334 -2,4.93334 -0.8,2.4 -1.26666,4 -0.4,1.6 -0.4,1.66666 -0.13334,0.8 -0.8,1.33334 -0.6,0.46666 -1.33334,0.46666 -1,0 -1.66666,-0.66666 -0.6,-0.66667 -0.6,-1.53334 0,-0.86666 0.6,-3.13333 0.66666,-2.26667 1.73333,-5.06667 1.06667,-2.8 2.4,-5.33333 1.4,-2.6 2.86667,-4.06667 0.73333,-0.73333 2.13333,-2.06666 1.4,-1.33334 3.6,-2.66667 2.26667,-1.4 5.4,-2.333333 3.13333,-1 7.4,-1 0.6,0 1.26667,0 0.73333,0 1.4,0.06667 2.93333,0.2 5.93333,1.466666 3,1.266667 5.53333,3.533327 2.6,2.2 4.2,5.33334 1.66667,3.06666 1.93334,6.93333 0.0667,0.73333 0.0667,1.46667 0.0667,0.66666 0.0667,1.33333 0,5.33333 -1.4,9.4 -1.4,4.06667 -2.6,6.86667 -1.6,3.73333 -2.6,6.26666 -1,2.53334 -1.6,4.4 -0.53333,1.86667 -0.93333,3.46667 -0.4,1.6 -0.8,3.4 -1.06667,4.86666 -3.73334,8.73333 -2.66666,3.86667 -6.53333,6.06667 -3.86667,2.2 -8.53333,2.2 z m -0.8,-13.33334 q -2.26667,0 -4.13334,-1.26666 -1.86666,-1.26667 -2.73333,-4 -0.4,-1.33333 -0.4,-3.26667 0,-1.8 0.33333,-3.66666 0.4,-1.86667 1.13334,-3.06667 0.86666,-1.4 1.53333,-3.06667 0.66667,-1.73333 0.66667,-3.46666 0,-1.4 -0.6,-2.66667 -0.66667,-1.53333 -1.13334,-2.53333 -0.46666,-1.06667 -0.46666,-3 0,-3.2 1.6,-6.26667 1.6,-3.13333 3.6,-5.4 1.86666,-2.06667 4.4,-3.26667 2.6,-1.2 5.26666,-1.2 1.86667,0 3.66667,0.66667 1.8,0.66667 3.26667,2.2 1.8,1.93333 2.46666,4.6 0.73334,2.66667 0.73334,5.2 0,0.53333 -0.33334,0.86667 -0.33333,0.26666 -0.8,0.26666 -0.46666,0 -0.86666,-0.26666 -0.4,-0.33334 -0.46667,-0.86667 -0.13333,-1.86667 -1.13333,-3.73333 -1,-1.86667 -2.6,-3.13334 -1.53334,-1.26666 -3.53334,-1.26666 -2.2,0 -4,1.26666 -1.8,1.2 -2.93333,3.2 -1.06667,1.93334 -1.06667,4.13334 0,0.8 0.26667,1.53333 0.33333,0.66667 1,1.06667 0.66667,0.4 1.33333,0.66666 0.73334,0.2 1.4,0.8 1.06667,0.93334 2.06667,2.13334 1,1.13333 1,2.73333 0,0.46667 -0.33333,1.06667 -0.33334,0.53333 -0.93334,0.53333 -0.73333,0 -1,-0.73333 -0.26666,-0.73334 -0.66666,-1.2 -0.93334,-1.13334 -2.2,-1.13334 -1.4,0 -1.4,1.06667 0,0.73333 0.46666,1.73333 0.46667,0.93334 0.46667,2.26667 0,0.93333 -0.33333,2.26667 -0.33334,1.33333 -1.4,2.8 -1.06667,1.46666 -1.8,2.93333 -0.73334,1.4 -0.73334,3.2 0,2.46667 1.2,3.46667 1.2,0.93333 2.86667,0.93333 1.2,0 2.46667,-0.4 0.66666,-0.33333 1.06666,-0.66667 0.46667,-0.33333 0.86667,-0.33333 0.6,0 1,0.53333 0.4,0.46667 0.4,1.06667 0,0.53333 -0.33333,1 -1.6,1.66667 -3.86667,2.66667 -2.2,0.99999 -4.33333,0.99999 z"
         style="font-size:66.66666412px"
         id="path857"
         inkscape:connector-curvature="0" />
    </g>
  </g>
</svg>
