<?xml version="1.0" encoding="UTF-8" standalone="no"?>
<svg
   xmlns:dc="http://purl.org/dc/elements/1.1/"
   xmlns:cc="http://creativecommons.org/ns#"
   xmlns:rdf="http://www.w3.org/1999/02/22-rdf-syntax-ns#"
   xmlns:svg="http://www.w3.org/2000/svg"
   xmlns="http://www.w3.org/2000/svg"
   xmlns:xlink="http://www.w3.org/1999/xlink"
   xmlns:sodipodi="http://sodipodi.sourceforge.net/DTD/sodipodi-0.dtd"
   xmlns:inkscape="http://www.inkscape.org/namespaces/inkscape"
   version="1.2"
   width="110.56211mm"
   height="29.673mm"
   viewBox="0 0 48.396879 12.988901"
   id="svg228"
   sodipodi:docname="m2_c_major_solfege.svg"
   inkscape:version="0.92.4 (5da689c313, 2019-01-14)">
  <metadata
     id="metadata234">
    <rdf:RDF>
      <cc:Work
         rdf:about="">
        <dc:format>image/svg+xml</dc:format>
        <dc:type
           rdf:resource="http://purl.org/dc/dcmitype/StillImage" />
        <dc:title></dc:title>
      </cc:Work>
    </rdf:RDF>
  </metadata>
  <defs
     id="defs232" />
  <sodipodi:namedview
     pagecolor="#ffffff"
     bordercolor="#666666"
     borderopacity="1"
     objecttolerance="10"
     gridtolerance="10"
     guidetolerance="10"
     inkscape:pageopacity="0"
     inkscape:pageshadow="2"
     inkscape:window-width="1920"
     inkscape:window-height="1023"
     id="namedview230"
     showgrid="false"
     fit-margin-top="2"
     fit-margin-left="1"
     fit-margin-right="1"
     fit-margin-bottom="2"
     inkscape:zoom="0.2102413"
     inkscape:cx="315.65955"
     inkscape:cy="-429.20435"
     inkscape:window-x="0"
     inkscape:window-y="31"
     inkscape:window-maximized="1"
     inkscape:current-layer="svg228" />
  <!-- Page: 1/1 -->
  <text
     font-size="2.2002"
     id="text4"
     style="font-size:2.20020008px;font-family:'Century Schoolbook L';text-anchor:start;fill:currentColor"
     x="-6.1277614"
     y="-0.11670901">
    <tspan
       id="tspan2" />
  </text>
  <line
     x1="0.48073861"
     y1="8.2217913"
     x2="47.916138"
     y2="8.2217913"
     id="line6"
     style="stroke:currentColor;stroke-width:0.0848;stroke-linecap:round;stroke-linejoin:round" />
  <line
     x1="0.48073861"
     y1="7.2217908"
     x2="47.916138"
     y2="7.2217908"
     id="line8"
     style="stroke:currentColor;stroke-width:0.0848;stroke-linecap:round;stroke-linejoin:round" />
  <line
     x1="0.48073861"
     y1="6.2217908"
     x2="47.916138"
     y2="6.2217908"
     id="line10"
     style="stroke:currentColor;stroke-width:0.0848;stroke-linecap:round;stroke-linejoin:round" />
  <line
     x1="0.48073861"
     y1="5.2217908"
     x2="47.916138"
     y2="5.2217908"
     id="line12"
     style="stroke:currentColor;stroke-width:0.0848;stroke-linecap:round;stroke-linejoin:round" />
  <line
     x1="0.48073861"
     y1="4.2217908"
     x2="47.916138"
     y2="4.2217908"
     id="line14"
     style="stroke:currentColor;stroke-width:0.0848;stroke-linecap:round;stroke-linejoin:round" />
  <rect
     x="8.8806381"
     y="9.1293907"
     width="1.6273"
     height="0.1848"
     ry="0.092399999"
     id="rect16"
     style="fill:currentColor" />
  <rect
     x="28.131838"
     y="4.2217908"
     width="0.1612"
     height="4"
     ry="0.0000"
     id="rect18"
     style="fill:currentColor" />
  <rect
     x="47.79734"
     y="4.2217908"
     width="0.1612"
     height="4"
     ry="0.0000"
     id="rect20"
     style="fill:currentColor" />
  <rect
     x="34.85244"
     y="3.221791"
     width="0.1103"
     height="3.3694999"
     ry="0.0308"
     id="rect22"
     style="fill:currentColor" />
  <a
     style="color:inherit"
     xlink:href="textedit:///home/valentin/Programming/WebstormProjects/fett/lilypond/m2_c_major_solfege.ly:22:63:64"
     id="a32"
     transform="translate(-10.505061,-2.305409)">
    <circle
       transform="translate(54.3292,8.0272)"
       r="0.5424"
       id="circle24"
       cx="0"
       cy="0"
       style="fill:currentColor;stroke:currentColor;stroke-width:0;stroke-linecap:round;stroke-linejoin:round" />
    <g
       id="g30"
       style="color:#ffffff">
      <text
         transform="translate(54.0271,8.3555)"
         font-weight="bold"
         font-size="0.8733"
         id="text28"
         style="font-weight:bold;font-size:0.87330002px;font-family:sans-serif;text-anchor:start;fill:currentColor">
        <tspan
           id="tspan26">1</tspan>
      </text>
    </g>
  </a>
  <a
     style="color:inherit"
     xlink:href="textedit:///home/valentin/Programming/WebstormProjects/fett/lilypond/m2_c_major_solfege.ly:22:61:62"
     id="a42"
     transform="translate(-10.505061,-2.305409)">
    <circle
       transform="translate(49.6443,8.5272)"
       r="0.5424"
       id="circle34"
       cx="0"
       cy="0"
       style="fill:currentColor;stroke:currentColor;stroke-width:0;stroke-linecap:round;stroke-linejoin:round" />
    <g
       id="g40"
       style="color:#ffffff">
      <text
         transform="translate(49.3423,8.8555)"
         font-weight="bold"
         font-size="0.8733"
         id="text38"
         style="font-weight:bold;font-size:0.87330002px;font-family:sans-serif;text-anchor:start;fill:currentColor">
        <tspan
           id="tspan36">7</tspan>
      </text>
    </g>
  </a>
  <a
     style="color:inherit"
     xlink:href="textedit:///home/valentin/Programming/WebstormProjects/fett/lilypond/m2_c_major_solfege.ly:27:20:21"
     id="a48"
     transform="translate(-10.505061,-2.305409)">
    <text
       transform="translate(48.7514,14.3818)"
       font-size="2.4695"
       id="text46"
       style="font-size:2.46950006px;font-family:'Century Schoolbook L';text-anchor:start;fill:currentColor">
      <tspan
         id="tspan44">B</tspan>
    </text>
  </a>
  <a
     style="color:inherit"
     xlink:href="textedit:///home/valentin/Programming/WebstormProjects/fett/lilypond/m2_c_major_solfege.ly:32:26:27"
     id="a54"
     transform="translate(-10.505061,-2.305409)">
    <text
       transform="translate(48.3968,5.0009)"
       font-size="2.4695"
       id="text52"
       style="font-size:2.46950006px;font-family:'Century Schoolbook L';text-anchor:start;fill:currentColor">
      <tspan
         id="tspan50">Ti</tspan>
    </text>
  </a>
  <rect
     x="38.596939"
     y="6.3522911"
     width="0.1103"
     height="3.2028"
     ry="0.0308"
     id="rect56"
     style="fill:currentColor" />
  <a
     style="color:inherit"
     xlink:href="textedit:///home/valentin/Programming/WebstormProjects/fett/lilypond/m2_c_major_solfege.ly:32:23:24"
     id="a62"
     transform="translate(-10.505061,-2.305409)">
    <text
       transform="translate(43.4152,5.0009)"
       font-size="2.4695"
       id="text60"
       style="font-size:2.46950006px;font-family:'Century Schoolbook L';text-anchor:start;fill:currentColor">
      <tspan
         id="tspan58">La</tspan>
    </text>
  </a>
  <a
     style="color:inherit"
     xlink:href="textedit:///home/valentin/Programming/WebstormProjects/fett/lilypond/m2_c_major_solfege.ly:27:18:19"
     id="a68"
     transform="translate(-10.505061,-2.305409)">
    <text
       transform="translate(44.0324,14.3818)"
       font-size="2.4695"
       id="text66"
       style="font-size:2.46950006px;font-family:'Century Schoolbook L';text-anchor:start;fill:currentColor">
      <tspan
         id="tspan64">A</tspan>
    </text>
  </a>
  <a
     style="color:inherit"
     xlink:href="textedit:///home/valentin/Programming/WebstormProjects/fett/lilypond/m2_c_major_solfege.ly:22:59:60"
     id="a78"
     transform="translate(-10.505061,-2.305409)">
    <circle
       transform="translate(44.9254,9.0272)"
       r="0.5424"
       id="circle70"
       cx="0"
       cy="0"
       style="fill:currentColor;stroke:currentColor;stroke-width:0;stroke-linecap:round;stroke-linejoin:round" />
    <g
       id="g76"
       style="color:#ffffff">
      <text
         transform="translate(44.6233,9.3555)"
         font-weight="bold"
         font-size="0.8733"
         id="text74"
         style="font-weight:bold;font-size:0.87330002px;font-family:sans-serif;text-anchor:start;fill:currentColor">
        <tspan
           id="tspan72">6</tspan>
      </text>
    </g>
  </a>
  <a
     style="color:inherit"
     xlink:href="textedit:///home/valentin/Programming/WebstormProjects/fett/lilypond/m2_c_major_solfege.ly:27:22:23"
     id="a84"
     transform="translate(-10.505061,-2.305409)">
    <text
       transform="translate(53.4362,14.3818)"
       font-size="2.4695"
       id="text82"
       style="font-size:2.46950006px;font-family:'Century Schoolbook L';text-anchor:start;fill:currentColor">
      <tspan
         id="tspan80">C</tspan>
    </text>
  </a>
  <rect
     x="43.281738"
     y="5.8522911"
     width="0.1103"
     height="3.3694999"
     ry="0.0308"
     id="rect86"
     style="fill:currentColor" />
  <a
     style="color:inherit"
     xlink:href="textedit:///home/valentin/Programming/WebstormProjects/fett/lilypond/m2_c_major_solfege.ly:32:29:30"
     id="a92"
     transform="translate(-10.505061,-2.305409)">
    <text
       transform="translate(52.7533,5.0009)"
       font-size="2.4695"
       id="text90"
       style="font-size:2.46950006px;font-family:'Century Schoolbook L';text-anchor:start;fill:currentColor">
      <tspan
         id="tspan88">Do</tspan>
    </text>
  </a>
  <rect
     x="14.811238"
     y="5.2217908"
     width="0.1103"
     height="3.3694999"
     ry="0.0308"
     id="rect94"
     style="fill:currentColor" />
  <rect
     x="30.167639"
     y="3.721791"
     width="0.1103"
     height="3.3694999"
     ry="0.0308"
     id="rect96"
     style="fill:currentColor" />
  <a
     style="color:inherit"
     xlink:href="textedit:///home/valentin/Programming/WebstormProjects/fett/lilypond/m2_c_major_solfege.ly:27:10:11"
     id="a102"
     transform="translate(-10.505061,-2.305409)">
    <text
       transform="translate(23.9255,14.3818)"
       font-size="2.4695"
       id="text100"
       style="font-size:2.46950006px;font-family:'Century Schoolbook L';text-anchor:start;fill:currentColor">
      <tspan
         id="tspan98">D</tspan>
    </text>
  </a>
  <a
     style="color:inherit"
     xlink:href="textedit:///home/valentin/Programming/WebstormProjects/fett/lilypond/m2_c_major_solfege.ly:22:51:52"
     id="a112"
     transform="translate(-10.505061,-2.305409)">
    <circle
       transform="translate(24.8842,11.0272)"
       r="0.5424"
       id="circle104"
       cx="0"
       cy="0"
       style="fill:currentColor;stroke:currentColor;stroke-width:0;stroke-linecap:round;stroke-linejoin:round" />
    <g
       id="g110"
       style="color:#ffffff">
      <text
         transform="translate(24.5821,11.3555)"
         font-weight="bold"
         font-size="0.8733"
         id="text108"
         style="font-weight:bold;font-size:0.87330002px;font-family:sans-serif;text-anchor:start;fill:currentColor">
        <tspan
           id="tspan106">2</tspan>
      </text>
    </g>
  </a>
  <a
     style="color:inherit"
     xlink:href="textedit:///home/valentin/Programming/WebstormProjects/fett/lilypond/m2_c_major_solfege.ly:32:11:12"
     id="a118"
     transform="translate(-10.505061,-2.305409)">
    <text
       transform="translate(23.3609,5.0009)"
       font-size="2.4695"
       id="text116"
       style="font-size:2.46950006px;font-family:'Century Schoolbook L';text-anchor:start;fill:currentColor">
      <tspan
         id="tspan114">Re</tspan>
    </text>
  </a>
  <rect
     x="10.126438"
     y="5.7217908"
     width="0.1103"
     height="3.3694999"
     ry="0.0308"
     id="rect120"
     style="fill:currentColor" />
  <a
     style="color:inherit"
     xlink:href="textedit:///home/valentin/Programming/WebstormProjects/fett/lilypond/m2_c_major_solfege.ly:32:8:9"
     id="a126"
     transform="translate(-10.505061,-2.305409)">
    <text
       transform="translate(18.6235,5.0009)"
       font-size="2.4695"
       id="text124"
       style="font-size:2.46950006px;font-family:'Century Schoolbook L';text-anchor:start;fill:currentColor">
      <tspan
         id="tspan122">Do</tspan>
    </text>
  </a>
  <a
     style="color:inherit"
     xlink:href="textedit:///home/valentin/Programming/WebstormProjects/fett/lilypond/m2_c_major_solfege.ly:27:8:9"
     id="a132"
     transform="translate(-10.505061,-2.305409)">
    <text
       transform="translate(19.3064,14.3818)"
       font-size="2.4695"
       id="text130"
       style="font-size:2.46950006px;font-family:'Century Schoolbook L';text-anchor:start;fill:currentColor">
      <tspan
         id="tspan128">C</tspan>
    </text>
  </a>
  <path
     d="m 6.8783386,6.121791 c -0.204,0 -0.304,-0.172 -0.304,-0.308 0,-0.156 0.112,-0.312 0.296,-0.312 0.024,0 0.052,0 0.072,0.004 -0.116,-0.148 -0.304,-0.24 -0.504,-0.24 -0.424,0 -0.452,0.292 -0.452,0.74 0,0.068 0.004,0.14 0.004,0.216 0,0.076 -0.004,0.148 -0.004,0.216 0,0.448 0.028,0.74 0.452,0.74 0.328,0 0.58,-0.272 0.656,-0.604 0.004,-0.024 0.024,-0.036 0.04,-0.036 0.024,0 0.044,0.016 0.044,0.044 0,0.376 -0.428,0.684 -0.74,0.684 -0.272,0 -0.548,-0.08 -0.736,-0.276 -0.196,-0.204 -0.264,-0.488 -0.264,-0.768 0,-0.28 0.068,-0.564 0.264,-0.768 0.188,-0.196 0.464,-0.276 0.736,-0.276 0.352,0 0.652,0.248 0.712,0.592 0.004,0.02 0.008,0.036 0.008,0.056 0,0.16 -0.128,0.296 -0.28,0.296 z"
     id="path134"
     inkscape:connector-curvature="0"
     style="fill:currentColor;stroke-width:0.004" />
  <a
     style="color:inherit"
     xlink:href="textedit:///home/valentin/Programming/WebstormProjects/fett/lilypond/m2_c_major_solfege.ly:22:22:23"
     id="a136"
     transform="translate(-10.505061,-2.305409)" />
  <path
     d="m 2.7343386,6.181791 c 0.02,0 0.04,-0.004 0.06,-0.004 0.616,0 1.016,0.508 1.016,1.036 0,0.304 -0.132,0.612 -0.428,0.832 -0.088,0.068 -0.188,0.116 -0.292,0.148 0.012,0.144 0.02,0.288 0.02,0.432 0,0.076 0,0.148 -0.004,0.224 -0.028,0.48 -0.352,0.904 -0.824,0.904 -0.432,0 -0.78,-0.348 -0.78,-0.78 0,-0.232 0.212,-0.416 0.448,-0.416 0.216,0 0.38,0.192 0.38,0.416 0,0.208 -0.172,0.38 -0.38,0.38 -0.048,0 -0.096,-0.016 -0.14,-0.036 0.104,0.164 0.28,0.28 0.484,0.28 0.004,0 0.008,-0.004 0.012,-0.004 0.372,-0.008 0.616,-0.372 0.64,-0.768 0.004,-0.072 0.008,-0.14 0.008,-0.212 0,-0.128 -0.008,-0.256 -0.02,-0.384 -0.116,0.02 -0.232,0.032 -0.356,0.032 -0.752,0 -1.332,-0.684 -1.332,-1.488 0,-0.712 0.532,-1.224 1.004,-1.76 -0.072,-0.252 -0.14,-0.504 -0.168,-0.764 -0.024,-0.204 -0.028,-0.408 -0.028,-0.616 0,-0.464 0.22,-0.904 0.6,-1.18 0.02,-0.016 0.044,-0.016 0.064,0 0.28,0.336 0.528,0.984 0.528,1.436 0,0.576 -0.348,1.024 -0.732,1.46 0.08,0.276 0.156,0.552 0.22,0.832 z m 0.34,1.86 c 0.276,-0.096 0.468,-0.384 0.468,-0.664 0,-0.368 -0.276,-0.736 -0.716,-0.772 0.1,0.468 0.192,0.94 0.248,1.436 z m -1.552,-0.944 c 0,0.544 0.524,1.004 1.068,1.004 0.112,0 0.22,-0.008 0.328,-0.024 -0.06,-0.512 -0.152,-0.988 -0.256,-1.468 -0.316,0.036 -0.5,0.248 -0.5,0.484 0,0.176 0.104,0.368 0.328,0.496 0.016,0.016 0.028,0.036 0.028,0.056 0,0.044 -0.036,0.084 -0.08,0.084 -0.012,0 -0.024,-0.004 -0.036,-0.008 -0.32,-0.172 -0.464,-0.456 -0.464,-0.736 0,-0.352 0.228,-0.692 0.632,-0.784 -0.056,-0.24 -0.12,-0.476 -0.184,-0.712 -0.432,0.484 -0.864,0.968 -0.864,1.608 z m 1.36,-4.076 c -0.396,0.2 -0.644,0.604 -0.644,1.048 0,0.304 0.06,0.548 0.132,0.8 0.328,-0.388 0.596,-0.792 0.596,-1.3 0,-0.232 -0.016,-0.336 -0.084,-0.548 z"
     id="path138"
     inkscape:connector-curvature="0"
     style="fill:currentColor;stroke-width:0.004" />
  <a
     style="color:inherit"
     xlink:href="textedit:///home/valentin/Programming/WebstormProjects/fett/lilypond/m2_c_major_solfege.ly:22:49:50"
     id="a148"
     transform="translate(-10.505061,-2.305409)">
    <circle
       transform="translate(20.1993,11.5272)"
       r="0.5424"
       id="circle140"
       cx="0"
       cy="0"
       style="fill:currentColor;stroke:currentColor;stroke-width:0;stroke-linecap:round;stroke-linejoin:round" />
    <g
       id="g146"
       style="color:#ffffff">
      <text
         transform="translate(19.8973,11.8555)"
         font-weight="bold"
         font-size="0.8733"
         id="text144"
         style="font-weight:bold;font-size:0.87330002px;font-family:sans-serif;text-anchor:start;fill:currentColor">
        <tspan
           id="tspan142">1</tspan>
      </text>
    </g>
  </a>
  <a
     style="color:inherit"
     xlink:href="textedit:///home/valentin/Programming/WebstormProjects/fett/lilypond/m2_c_major_solfege.ly:22:55:56"
     id="a158"
     transform="translate(-10.505061,-2.305409)">
    <circle
       transform="translate(34.2538,10.0272)"
       r="0.5424"
       id="circle150"
       cx="0"
       cy="0"
       style="fill:currentColor;stroke:currentColor;stroke-width:0;stroke-linecap:round;stroke-linejoin:round" />
    <g
       id="g156"
       style="color:#ffffff">
      <text
         transform="translate(33.9518,10.3555)"
         font-weight="bold"
         font-size="0.8733"
         id="text154"
         style="font-weight:bold;font-size:0.87330002px;font-family:sans-serif;text-anchor:start;fill:currentColor">
        <tspan
           id="tspan152">4</tspan>
      </text>
    </g>
  </a>
  <a
     style="color:inherit"
     xlink:href="textedit:///home/valentin/Programming/WebstormProjects/fett/lilypond/m2_c_major_solfege.ly:32:20:21"
     id="a164"
     transform="translate(-10.505061,-2.305409)">
    <text
       transform="translate(38.8485,5.0009)"
       font-size="2.4695"
       id="text162"
       style="font-size:2.46950006px;font-family:'Century Schoolbook L';text-anchor:start;fill:currentColor">
      <tspan
         id="tspan160">So</tspan>
    </text>
  </a>
  <a
     style="color:inherit"
     xlink:href="textedit:///home/valentin/Programming/WebstormProjects/fett/lilypond/m2_c_major_solfege.ly:27:16:17"
     id="a170"
     transform="translate(-10.505061,-2.305409)">
    <text
       transform="translate(39.2819,14.3818)"
       font-size="2.4695"
       id="text168"
       style="font-size:2.46950006px;font-family:'Century Schoolbook L';text-anchor:start;fill:currentColor">
      <tspan
         id="tspan166">G</tspan>
    </text>
  </a>
  <a
     style="color:inherit"
     xlink:href="textedit:///home/valentin/Programming/WebstormProjects/fett/lilypond/m2_c_major_solfege.ly:22:57:58"
     id="a180"
     transform="translate(-10.505061,-2.305409)">
    <circle
       transform="translate(40.2405,9.5272)"
       r="0.5424"
       id="circle172"
       cx="0"
       cy="0"
       style="fill:currentColor;stroke:currentColor;stroke-width:0;stroke-linecap:round;stroke-linejoin:round" />
    <g
       id="g178"
       style="color:#ffffff">
      <text
         transform="translate(39.9385,9.8555)"
         font-weight="bold"
         font-size="0.8733"
         id="text176"
         style="font-weight:bold;font-size:0.87330002px;font-family:sans-serif;text-anchor:start;fill:currentColor">
        <tspan
           id="tspan174">5</tspan>
      </text>
    </g>
  </a>
  <rect
     x="24.180939"
     y="4.2217908"
     width="0.1103"
     height="3.3694999"
     ry="0.0308"
     id="rect182"
     style="fill:currentColor" />
  <a
     style="color:inherit"
     xlink:href="textedit:///home/valentin/Programming/WebstormProjects/fett/lilypond/m2_c_major_solfege.ly:32:17:18"
     id="a188"
     transform="translate(-10.505061,-2.305409)">
    <text
       transform="translate(32.7831,5.0009)"
       font-size="2.4695"
       id="text186"
       style="font-size:2.46950006px;font-family:'Century Schoolbook L';text-anchor:start;fill:currentColor">
      <tspan
         id="tspan184">Fa</tspan>
    </text>
  </a>
  <a
     style="color:inherit"
     xlink:href="textedit:///home/valentin/Programming/WebstormProjects/fett/lilypond/m2_c_major_solfege.ly:27:14:15"
     id="a194"
     transform="translate(-10.505061,-2.305409)">
    <text
       transform="translate(33.4265,14.3818)"
       font-size="2.4695"
       id="text192"
       style="font-size:2.46950006px;font-family:'Century Schoolbook L';text-anchor:start;fill:currentColor">
      <tspan
         id="tspan190">F</tspan>
    </text>
  </a>
  <a
     style="color:inherit"
     xlink:href="textedit:///home/valentin/Programming/WebstormProjects/fett/lilypond/m2_c_major_solfege.ly:22:53:54"
     id="a204"
     transform="translate(-10.505061,-2.305409)">
    <circle
       transform="translate(29.569,10.5272)"
       r="0.5424"
       id="circle196"
       cx="0"
       cy="0"
       style="fill:currentColor;stroke:currentColor;stroke-width:0;stroke-linecap:round;stroke-linejoin:round" />
    <g
       id="g202"
       style="color:#ffffff">
      <text
         transform="translate(29.267,10.8555)"
         font-weight="bold"
         font-size="0.8733"
         id="text200"
         style="font-weight:bold;font-size:0.87330002px;font-family:sans-serif;text-anchor:start;fill:currentColor">
        <tspan
           id="tspan198">3</tspan>
      </text>
    </g>
  </a>
  <a
     style="color:inherit"
     xlink:href="textedit:///home/valentin/Programming/WebstormProjects/fett/lilypond/m2_c_major_solfege.ly:27:12:13"
     id="a210"
     transform="translate(-10.505061,-2.305409)">
    <text
       transform="translate(28.676,14.3818)"
       font-size="2.4695"
       id="text208"
       style="font-size:2.46950006px;font-family:'Century Schoolbook L';text-anchor:start;fill:currentColor">
      <tspan
         id="tspan206">E</tspan>
    </text>
  </a>
  <a
     style="color:inherit"
     xlink:href="textedit:///home/valentin/Programming/WebstormProjects/fett/lilypond/m2_c_major_solfege.ly:32:14:15"
     id="a216"
     transform="translate(-10.505061,-2.305409)">
    <text
       transform="translate(28.0063,5.0009)"
       font-size="2.4695"
       id="text214"
       style="font-size:2.46950006px;font-family:'Century Schoolbook L';text-anchor:start;fill:currentColor">
      <tspan
         id="tspan212">Mi</tspan>
    </text>
  </a>
  <rect
     x="19.49614"
     y="4.7217908"
     width="0.1103"
     height="3.3694999"
     ry="0.0308"
     id="rect218"
     style="fill:currentColor" />
</svg>
