<?xml version="1.0" encoding="UTF-8" standalone="no"?>
<svg
   xmlns:dc="http://purl.org/dc/elements/1.1/"
   xmlns:cc="http://creativecommons.org/ns#"
   xmlns:rdf="http://www.w3.org/1999/02/22-rdf-syntax-ns#"
   xmlns:svg="http://www.w3.org/2000/svg"
   xmlns="http://www.w3.org/2000/svg"
   xmlns:sodipodi="http://sodipodi.sourceforge.net/DTD/sodipodi-0.dtd"
   xmlns:inkscape="http://www.inkscape.org/namespaces/inkscape"
   version="1.2"
   width="86.810593mm"
   height="19.628046mm"
   viewBox="0 0 49.400022 11.169442"
   id="svg130"
   sodipodi:docname="m2_c_major.svg"
   inkscape:version="0.92.4 (5da689c313, 2019-01-14)">
  <metadata
     id="metadata136">
    <rdf:RDF>
      <cc:Work
         rdf:about="">
        <dc:format>image/svg+xml</dc:format>
        <dc:type
           rdf:resource="http://purl.org/dc/dcmitype/StillImage" />
        <dc:title></dc:title>
      </cc:Work>
    </rdf:RDF>
  </metadata>
  <defs
     id="defs134" />
  <sodipodi:namedview
     pagecolor="#ffffff"
     bordercolor="#666666"
     borderopacity="1"
     objecttolerance="10"
     gridtolerance="10"
     guidetolerance="10"
     inkscape:pageopacity="0"
     inkscape:pageshadow="2"
     inkscape:window-width="1920"
     inkscape:window-height="1023"
     id="namedview132"
     showgrid="false"
     fit-margin-top="0"
     fit-margin-left="0"
     fit-margin-right="0"
     fit-margin-bottom="0"
     inkscape:zoom="0.2973261"
     inkscape:cx="298.73643"
     inkscape:cy="-89.134744"
     inkscape:window-x="0"
     inkscape:window-y="31"
     inkscape:window-maximized="1"
     inkscape:current-layer="svg130" />
  <!-- Page: 1/1 -->
  <text
     font-size="2.2001"
     id="text4"
     style="font-size:2.20009995px;font-family:'Century Schoolbook L';text-anchor:start;fill:currentColor"
     x="-8.5350876"
     y="-1.0368016">
    <tspan
       id="tspan2" />
  </text>
  <g
     id="g196"
     transform="translate(-14.225688,-3.8821016)">
    <line
       id="line6"
       y2="0"
       x2="49.348598"
       y1="0"
       x1="0.050000001"
       transform="translate(14.2264,11.1549)"
       style="stroke:currentColor;stroke-width:0.1;stroke-linecap:round;stroke-linejoin:round" />
    <line
       id="line8"
       y2="0"
       x2="49.348598"
       y1="0"
       x1="0.050000001"
       transform="translate(14.2264,10.1549)"
       style="stroke:currentColor;stroke-width:0.1;stroke-linecap:round;stroke-linejoin:round" />
    <line
       id="line10"
       y2="0"
       x2="49.348598"
       y1="0"
       x1="0.050000001"
       transform="translate(14.2264,9.1549)"
       style="stroke:currentColor;stroke-width:0.1;stroke-linecap:round;stroke-linejoin:round" />
    <line
       id="line12"
       y2="0"
       x2="49.348598"
       y1="0"
       x1="0.050000001"
       transform="translate(14.2264,8.1549)"
       style="stroke:currentColor;stroke-width:0.1;stroke-linecap:round;stroke-linejoin:round" />
    <line
       id="line14"
       y2="0"
       x2="49.348598"
       y1="0"
       x1="0.050000001"
       transform="translate(14.2264,7.1549)"
       style="stroke:currentColor;stroke-width:0.1;stroke-linecap:round;stroke-linejoin:round" />
    <rect
       id="rect16"
       ry="0.1"
       height="0.2"
       width="1.9743"
       y="-0.1"
       x="16.906799"
       transform="translate(5.6906,12.1549)"
       style="fill:currentColor" />
    <rect
       id="rect18"
       ry="0.0000"
       height="4"
       width="0.19"
       y="-2"
       x="0"
       transform="translate(42.8277,9.1549)"
       style="fill:currentColor" />
    <rect
       id="rect20"
       ry="0.0000"
       height="4"
       width="0.19"
       y="-2"
       x="0"
       transform="translate(63.435,9.1549)"
       style="fill:currentColor" />
    <text
       id="text24"
       font-size="2.4696"
       transform="translate(58.6592,5.6207)"
       style="font-size:2.46959996px;font-family:'Century Schoolbook L';text-anchor:start;fill:currentColor">
      <tspan
         id="tspan22">1</tspan>
    </text>
    <path
       id="path26"
       d="m 220,138 c 56,0 109,-29 109,-91 0,-72 -56,-121 -103,-149 -36,-21 -76,-36 -117,-36 -56,0 -109,29 -109,91 0,72 56,121 103,149 36,21 76,36 117,36 z"
       transform="matrix(0.004,0,0,-0.004,53.7678,9.1549)"
       inkscape:connector-curvature="0"
       style="fill:currentColor" />
    <text
       id="text30"
       font-size="2.4696"
       transform="translate(53.743,5.6207)"
       style="font-size:2.46959996px;font-family:'Century Schoolbook L';text-anchor:start;fill:currentColor">
      <tspan
         id="tspan28">7</tspan>
    </text>
    <text
       id="text34"
       font-size="2.4696"
       transform="translate(53.5382,15.0145)"
       style="font-size:2.46959996px;font-family:'Century Schoolbook L';text-anchor:start;fill:currentColor">
      <tspan
         id="tspan32">B</tspan>
    </text>
    <rect
       id="rect36"
       ry="0.039999999"
       height="3.1454999"
       width="0.13"
       y="0.18780001"
       x="-0.064999998"
       transform="translate(53.8328,9.1549)"
       style="fill:currentColor" />
    <path
       id="path38"
       d="m 220,138 c 56,0 109,-29 109,-91 0,-72 -56,-121 -103,-149 -36,-21 -76,-36 -117,-36 -56,0 -109,29 -109,91 0,72 56,121 103,149 36,21 76,36 117,36 z"
       transform="matrix(0.004,0,0,-0.004,58.684,8.6549)"
       inkscape:connector-curvature="0"
       style="fill:currentColor" />
    <rect
       id="rect40"
       ry="0.039999999"
       height="3.3122001"
       width="0.13"
       y="-3"
       x="-0.064999998"
       transform="translate(50.085,9.1549)"
       style="fill:currentColor" />
    <text
       id="text44"
       font-size="2.4696"
       transform="translate(48.6042,15.0145)"
       style="font-size:2.46959996px;font-family:'Century Schoolbook L';text-anchor:start;fill:currentColor">
      <tspan
         id="tspan42">A</tspan>
    </text>
    <text
       id="text48"
       font-size="2.4696"
       transform="translate(48.8091,5.6207)"
       style="font-size:2.46959996px;font-family:'Century Schoolbook L';text-anchor:start;fill:currentColor">
      <tspan
         id="tspan46">6</tspan>
    </text>
    <path
       id="path50"
       d="m 220,138 c 56,0 109,-29 109,-91 0,-72 -56,-121 -103,-149 -36,-21 -76,-36 -117,-36 -56,0 -109,29 -109,91 0,72 56,121 103,149 36,21 76,36 117,36 z"
       transform="matrix(0.004,0,0,-0.004,48.8338,9.6549)"
       inkscape:connector-curvature="0"
       style="fill:currentColor" />
    <text
       id="text54"
       font-size="2.4696"
       transform="translate(58.4543,15.0145)"
       style="font-size:2.46959996px;font-family:'Century Schoolbook L';text-anchor:start;fill:currentColor">
      <tspan
         id="tspan52">C</tspan>
    </text>
    <rect
       id="rect56"
       ry="0.039999999"
       height="3.3122001"
       width="0.13"
       y="-0.31220001"
       x="-0.064999998"
       transform="translate(58.749,9.1549)"
       style="fill:currentColor" />
    <rect
       id="rect58"
       ry="0.039999999"
       height="3.3122001"
       width="0.13"
       y="-1"
       x="-0.064999998"
       transform="translate(29.0937,9.1549)"
       style="fill:currentColor" />
    <text
       id="text62"
       font-size="2.4696"
       transform="translate(27.5446,15.0145)"
       style="font-size:2.46959996px;font-family:'Century Schoolbook L';text-anchor:start;fill:currentColor">
      <tspan
         id="tspan60">D</tspan>
    </text>
    <text
       id="text66"
       font-size="2.4696"
       transform="translate(27.8178,5.6207)"
       style="font-size:2.46959996px;font-family:'Century Schoolbook L';text-anchor:start;fill:currentColor">
      <tspan
         id="tspan64">2</tspan>
    </text>
    <path
       id="path68"
       d="m 220,138 c 56,0 109,-29 109,-91 0,-72 -56,-121 -103,-149 -36,-21 -76,-36 -117,-36 -56,0 -109,29 -109,91 0,72 56,121 103,149 36,21 76,36 117,36 z"
       transform="matrix(0.004,0,0,-0.004,27.8425,11.6549)"
       inkscape:connector-curvature="0"
       style="fill:currentColor" />
    <rect
       id="rect70"
       ry="0.039999999"
       height="3.3122001"
       width="0.13"
       y="-0.5"
       x="-0.064999998"
       transform="translate(24.1775,9.1549)"
       style="fill:currentColor" />
    <text
       id="text74"
       font-size="2.4696"
       transform="translate(22.6967,15.0145)"
       style="font-size:2.46959996px;font-family:'Century Schoolbook L';text-anchor:start;fill:currentColor">
      <tspan
         id="tspan72">C</tspan>
    </text>
    <text
       id="text78"
       font-size="2.4696"
       transform="translate(22.9016,5.6207)"
       style="font-size:2.46959996px;font-family:'Century Schoolbook L';text-anchor:start;fill:currentColor">
      <tspan
         id="tspan76">1</tspan>
    </text>
    <path
       id="path80"
       d="m 359,27 c -49,0 -75,42 -75,75 0,38 27,77 72,77 4,0 9,0 14,-1 -28,37 -72,59 -120,59 C 144,237 137,164 137,51 V 0 -51 c 0,-113 7,-187 113,-187 80,0 139,70 158,151 2,7 7,10 12,10 6,0 13,-4 13,-12 0,-94 -105,-174 -183,-174 -68,0 -137,21 -184,70 C 17,-142 0,-71 0,0 c 0,71 17,142 66,193 47,49 116,69 184,69 87,0 160,-63 175,-149 1,-5 1,-10 1,-14 0,-40 -30,-72 -67,-72 z"
       transform="matrix(0.004,0,0,-0.004,19.2264,9.1549)"
       inkscape:connector-curvature="0"
       style="fill:currentColor" />
    <path
       id="path82"
       d="m 266,-635 h -6 c -108,0 -195,88 -195,197 0,58 53,103 112,103 54,0 95,-47 95,-103 0,-52 -43,-95 -95,-95 -11,0 -21,2 -31,6 26,-39 68,-65 117,-65 h 4 z m 195,432 c 68,24 113,95 113,164 0,90 -66,179 -173,190 24,-116 46,-231 60,-354 z M 74,28 c 0,-135 129,-247 264,-247 28,0 55,2 82,6 C 406,-86 383,32 357,151 278,143 233,90 233,32 c 0,-44 25,-91 81,-123 5,-5 7,-10 7,-15 0,-11 -10,-22 -22,-22 -3,0 -6,1 -9,2 -80,43 -117,115 -117,185 0,88 58,174 160,197 -14,58 -29,117 -46,175 C 180,310 74,188 74,28 Z M 335,-262 C 147,-262 2,-90 2,112 c 0,177 131,306 248,441 -19,62 -37,125 -45,190 -6,52 -7,104 -7,156 0,115 55,224 149,292 6,5 14,5 20,0 71,-84 133,-245 133,-358 0,-143 -86,-255 -180,-364 21,-68 39,-138 56,-207 4,0 9,1 13,1 155,0 256,-128 256,-261 0,-76 -33,-154 -107,-210 -22,-17 -47,-28 -73,-36 3,-35 5,-70 5,-105 0,-19 -1,-39 -2,-58 -7,-119 -88,-225 -202,-228 l 1,43 c 93,2 153,92 159,191 1,18 2,37 2,55 0,31 -1,61 -4,92 -29,-5 -58,-8 -89,-8 z m 93,1178 c 0,55 -4,79 -20,129 -99,-48 -162,-149 -162,-259 0,-74 18,-133 36,-194 80,97 146,198 146,324 z"
       transform="matrix(0.004,0,0,-0.004,15.0264,10.1549)"
       inkscape:connector-curvature="0"
       style="fill:currentColor" />
    <path
       id="path84"
       d="m 220,138 c 56,0 109,-29 109,-91 0,-72 -56,-121 -103,-149 -36,-21 -76,-36 -117,-36 -56,0 -109,29 -109,91 0,72 56,121 103,149 36,21 76,36 117,36 z"
       transform="matrix(0.004,0,0,-0.004,22.9264,12.1549)"
       inkscape:connector-curvature="0"
       style="fill:currentColor" />
    <text
       id="text88"
       font-size="2.4696"
       transform="translate(37.6501,5.6207)"
       style="font-size:2.46959996px;font-family:'Century Schoolbook L';text-anchor:start;fill:currentColor">
      <tspan
         id="tspan86">4</tspan>
    </text>
    <rect
       id="rect90"
       ry="0.039999999"
       height="3.3122001"
       width="0.13"
       y="-2.5"
       x="-0.064999998"
       transform="translate(45.1688,9.1549)"
       style="fill:currentColor" />
    <text
       id="text94"
       font-size="2.4696"
       transform="translate(43.6197,15.0145)"
       style="font-size:2.46959996px;font-family:'Century Schoolbook L';text-anchor:start;fill:currentColor">
      <tspan
         id="tspan92">G</tspan>
    </text>
    <text
       id="text98"
       font-size="2.4696"
       transform="translate(43.8929,5.6207)"
       style="font-size:2.46959996px;font-family:'Century Schoolbook L';text-anchor:start;fill:currentColor">
      <tspan
         id="tspan96">5</tspan>
    </text>
    <path
       id="path100"
       d="m 220,138 c 56,0 109,-29 109,-91 0,-72 -56,-121 -103,-149 -36,-21 -76,-36 -117,-36 -56,0 -109,29 -109,91 0,72 56,121 103,149 36,21 76,36 117,36 z"
       transform="matrix(0.004,0,0,-0.004,43.9177,10.1549)"
       inkscape:connector-curvature="0"
       style="fill:currentColor" />
    <rect
       id="rect102"
       ry="0.039999999"
       height="3.3122001"
       width="0.13"
       y="-2"
       x="-0.064999998"
       transform="translate(38.9261,9.1549)"
       style="fill:currentColor" />
    <text
       id="text106"
       font-size="2.4696"
       transform="translate(37.5136,15.0145)"
       style="font-size:2.46959996px;font-family:'Century Schoolbook L';text-anchor:start;fill:currentColor">
      <tspan
         id="tspan104">F</tspan>
    </text>
    <path
       id="path108"
       d="m 220,138 c 56,0 109,-29 109,-91 0,-72 -56,-121 -103,-149 -36,-21 -76,-36 -117,-36 -56,0 -109,29 -109,91 0,72 56,121 103,149 36,21 76,36 117,36 z"
       transform="matrix(0.004,0,0,-0.004,37.6749,10.6549)"
       inkscape:connector-curvature="0"
       style="fill:currentColor" />
    <path
       id="path110"
       d="m 220,138 c 56,0 109,-29 109,-91 0,-72 -56,-121 -103,-149 -36,-21 -76,-36 -117,-36 -56,0 -109,29 -109,91 0,72 56,121 103,149 36,21 76,36 117,36 z"
       transform="matrix(0.004,0,0,-0.004,32.7587,11.1549)"
       inkscape:connector-curvature="0"
       style="fill:currentColor" />
    <text
       id="text114"
       font-size="2.4696"
       transform="translate(32.734,5.6207)"
       style="font-size:2.46959996px;font-family:'Century Schoolbook L';text-anchor:start;fill:currentColor">
      <tspan
         id="tspan112">3</tspan>
    </text>
    <rect
       id="rect116"
       ry="0.039999999"
       height="3.3122001"
       width="0.13"
       y="-1.5"
       x="-0.064999998"
       transform="translate(34.0099,9.1549)"
       style="fill:currentColor" />
    <text
       id="text120"
       font-size="2.4696"
       transform="translate(32.5291,15.0145)"
       style="font-size:2.46959996px;font-family:'Century Schoolbook L';text-anchor:start;fill:currentColor">
      <tspan
         id="tspan118">E</tspan>
    </text>
  </g>
</svg>
