<?xml version="1.0" encoding="UTF-8" standalone="no"?>
<svg
   xmlns:dc="http://purl.org/dc/elements/1.1/"
   xmlns:cc="http://creativecommons.org/ns#"
   xmlns:rdf="http://www.w3.org/1999/02/22-rdf-syntax-ns#"
   xmlns:svg="http://www.w3.org/2000/svg"
   xmlns="http://www.w3.org/2000/svg"
   xmlns:xlink="http://www.w3.org/1999/xlink"
   xmlns:sodipodi="http://sodipodi.sourceforge.net/DTD/sodipodi-0.dtd"
   xmlns:inkscape="http://www.inkscape.org/namespaces/inkscape"
   version="1.2"
   width="108.56211mm"
   height="25.673mm"
   viewBox="0 0 47.52141 11.237963"
   id="svg228"
   sodipodi:docname="m2_c_major_solfege.svg"
   inkscape:version="0.92.4 (5da689c313, 2019-01-14)">
  <metadata
     id="metadata234">
    <rdf:RDF>
      <cc:Work
         rdf:about="">
        <dc:format>image/svg+xml</dc:format>
        <dc:type
           rdf:resource="http://purl.org/dc/dcmitype/StillImage" />
        <dc:title></dc:title>
      </cc:Work>
    </rdf:RDF>
  </metadata>
  <defs
     id="defs232" />
  <sodipodi:namedview
     pagecolor="#ffffff"
     bordercolor="#666666"
     borderopacity="1"
     objecttolerance="10"
     gridtolerance="10"
     guidetolerance="10"
     inkscape:pageopacity="0"
     inkscape:pageshadow="2"
     inkscape:window-width="1920"
     inkscape:window-height="1023"
     id="namedview230"
     showgrid="false"
     fit-margin-top="0"
     fit-margin-left="0"
     fit-margin-right="0"
     fit-margin-bottom="0"
     inkscape:zoom="0.4204826"
     inkscape:cx="-490.23685"
     inkscape:cy="385.90841"
     inkscape:window-x="0"
     inkscape:window-y="31"
     inkscape:window-maximized="1"
     inkscape:current-layer="svg228" />
  <!-- Page: 1/1 -->
  <text
     font-size="2.2002"
     id="text4"
     style="font-size:2.20020008px;font-family:'Century Schoolbook L';text-anchor:start;fill:currentColor"
     x="-6.565496"
     y="-0.99217844">
    <tspan
       id="tspan2" />
  </text>
  <a
     style="color:inherit"
     xlink:href="textedit:///home/valentin/Programming/WebstormProjects/fett/lilypond/m2_c_major_solfege.ly:22:22:23"
     id="a136"
     transform="translate(-10.942796,-3.1808785)" />
  <g
     id="g342"
     transform="translate(-10.942796,-3.1808785)">
    <line
       id="line6"
       y2="0"
       x2="47.477798"
       y1="0"
       x1="0.042399999"
       transform="translate(10.9434,10.5272)"
       style="stroke:currentColor;stroke-width:0.0848;stroke-linecap:round;stroke-linejoin:round" />
    <line
       id="line8"
       y2="0"
       x2="47.477798"
       y1="0"
       x1="0.042399999"
       transform="translate(10.9434,9.5272)"
       style="stroke:currentColor;stroke-width:0.0848;stroke-linecap:round;stroke-linejoin:round" />
    <line
       id="line10"
       y2="0"
       x2="47.477798"
       y1="0"
       x1="0.042399999"
       transform="translate(10.9434,8.5272)"
       style="stroke:currentColor;stroke-width:0.0848;stroke-linecap:round;stroke-linejoin:round" />
    <line
       id="line12"
       y2="0"
       x2="47.477798"
       y1="0"
       x1="0.042399999"
       transform="translate(10.9434,7.5272)"
       style="stroke:currentColor;stroke-width:0.0848;stroke-linecap:round;stroke-linejoin:round" />
    <line
       id="line14"
       y2="0"
       x2="47.477798"
       y1="0"
       x1="0.042399999"
       transform="translate(10.9434,6.5272)"
       style="stroke:currentColor;stroke-width:0.0848;stroke-linecap:round;stroke-linejoin:round" />
    <rect
       id="rect16"
       ry="0.092399999"
       height="0.1848"
       width="1.6273"
       y="-0.092399999"
       x="15.0084"
       transform="translate(4.3773,11.5272)"
       style="fill:currentColor" />
    <rect
       id="rect18"
       ry="0.0000"
       height="4"
       width="0.1612"
       y="-2"
       x="0"
       transform="translate(38.6369,8.5272)"
       style="fill:currentColor" />
    <rect
       id="rect20"
       ry="0.0000"
       height="4"
       width="0.1612"
       y="-2"
       x="0"
       transform="translate(58.3024,8.5272)"
       style="fill:currentColor" />
    <rect
       id="rect22"
       ry="0.0308"
       height="3.3694999"
       width="0.1103"
       y="-3"
       x="-0.055100001"
       transform="translate(45.4126,8.5272)"
       style="fill:currentColor" />
    <a
       id="a32"
       xlink:href="textedit:///home/valentin/Programming/WebstormProjects/fett/lilypond/m2_c_major_solfege.ly:22:63:64"
       style="color:inherit">
      <circle
         id="circle24"
         r="0.5424"
         transform="translate(54.3292,8.0272)"
         cx="0"
         cy="0"
         style="fill:currentColor;stroke:currentColor;stroke-width:0;stroke-linecap:round;stroke-linejoin:round" />
      <g
         id="g30"
         style="color:#ffffff">
        <text
           id="text28"
           font-size="0.8733"
           font-weight="bold"
           transform="translate(54.0271,8.3555)"
           style="font-weight:bold;font-size:0.87330002px;font-family:sans-serif;text-anchor:start;fill:currentColor">
          <tspan
             id="tspan26">1</tspan>
        </text>
      </g>
    </a>
    <a
       id="a42"
       xlink:href="textedit:///home/valentin/Programming/WebstormProjects/fett/lilypond/m2_c_major_solfege.ly:22:61:62"
       style="color:inherit">
      <circle
         id="circle34"
         r="0.5424"
         transform="translate(49.6443,8.5272)"
         cx="0"
         cy="0"
         style="fill:currentColor;stroke:currentColor;stroke-width:0;stroke-linecap:round;stroke-linejoin:round" />
      <g
         id="g40"
         style="color:#ffffff">
        <text
           id="text38"
           font-size="0.8733"
           font-weight="bold"
           transform="translate(49.3423,8.8555)"
           style="font-weight:bold;font-size:0.87330002px;font-family:sans-serif;text-anchor:start;fill:currentColor">
          <tspan
             id="tspan36">7</tspan>
        </text>
      </g>
    </a>
    <a
       id="a48"
       xlink:href="textedit:///home/valentin/Programming/WebstormProjects/fett/lilypond/m2_c_major_solfege.ly:27:20:21"
       style="color:inherit">
      <text
         id="text46"
         font-size="2.4695"
         transform="translate(48.7514,14.3818)"
         style="font-size:2.46950006px;font-family:'Century Schoolbook L';text-anchor:start;fill:currentColor">
        <tspan
           id="tspan44">B</tspan>
      </text>
    </a>
    <a
       id="a54"
       xlink:href="textedit:///home/valentin/Programming/WebstormProjects/fett/lilypond/m2_c_major_solfege.ly:32:26:27"
       style="color:inherit">
      <text
         id="text52"
         font-size="2.4695"
         transform="translate(48.3968,5.0009)"
         style="font-size:2.46950006px;font-family:'Century Schoolbook L';text-anchor:start;fill:currentColor">
        <tspan
           id="tspan50">Ti</tspan>
      </text>
    </a>
    <rect
       id="rect56"
       ry="0.0308"
       height="3.2028"
       width="0.1103"
       y="0.1305"
       x="-0.055100001"
       transform="translate(49.1571,8.5272)"
       style="fill:currentColor" />
    <a
       id="a62"
       xlink:href="textedit:///home/valentin/Programming/WebstormProjects/fett/lilypond/m2_c_major_solfege.ly:32:23:24"
       style="color:inherit">
      <text
         id="text60"
         font-size="2.4695"
         transform="translate(43.4152,5.0009)"
         style="font-size:2.46950006px;font-family:'Century Schoolbook L';text-anchor:start;fill:currentColor">
        <tspan
           id="tspan58">La</tspan>
      </text>
    </a>
    <a
       id="a68"
       xlink:href="textedit:///home/valentin/Programming/WebstormProjects/fett/lilypond/m2_c_major_solfege.ly:27:18:19"
       style="color:inherit">
      <text
         id="text66"
         font-size="2.4695"
         transform="translate(44.0324,14.3818)"
         style="font-size:2.46950006px;font-family:'Century Schoolbook L';text-anchor:start;fill:currentColor">
        <tspan
           id="tspan64">A</tspan>
      </text>
    </a>
    <a
       id="a78"
       xlink:href="textedit:///home/valentin/Programming/WebstormProjects/fett/lilypond/m2_c_major_solfege.ly:22:59:60"
       style="color:inherit">
      <circle
         id="circle70"
         r="0.5424"
         transform="translate(44.9254,9.0272)"
         cx="0"
         cy="0"
         style="fill:currentColor;stroke:currentColor;stroke-width:0;stroke-linecap:round;stroke-linejoin:round" />
      <g
         id="g76"
         style="color:#ffffff">
        <text
           id="text74"
           font-size="0.8733"
           font-weight="bold"
           transform="translate(44.6233,9.3555)"
           style="font-weight:bold;font-size:0.87330002px;font-family:sans-serif;text-anchor:start;fill:currentColor">
          <tspan
             id="tspan72">6</tspan>
        </text>
      </g>
    </a>
    <a
       id="a84"
       xlink:href="textedit:///home/valentin/Programming/WebstormProjects/fett/lilypond/m2_c_major_solfege.ly:27:22:23"
       style="color:inherit">
      <text
         id="text82"
         font-size="2.4695"
         transform="translate(53.4362,14.3818)"
         style="font-size:2.46950006px;font-family:'Century Schoolbook L';text-anchor:start;fill:currentColor">
        <tspan
           id="tspan80">C</tspan>
      </text>
    </a>
    <rect
       id="rect86"
       ry="0.0308"
       height="3.3694999"
       width="0.1103"
       y="-0.36950001"
       x="-0.055100001"
       transform="translate(53.8419,8.5272)"
       style="fill:currentColor" />
    <a
       id="a92"
       xlink:href="textedit:///home/valentin/Programming/WebstormProjects/fett/lilypond/m2_c_major_solfege.ly:32:29:30"
       style="color:inherit">
      <text
         id="text90"
         font-size="2.4695"
         transform="translate(52.7533,5.0009)"
         style="font-size:2.46950006px;font-family:'Century Schoolbook L';text-anchor:start;fill:currentColor">
        <tspan
           id="tspan88">Do</tspan>
      </text>
    </a>
    <rect
       id="rect94"
       ry="0.0308"
       height="3.3694999"
       width="0.1103"
       y="-1"
       x="-0.055100001"
       transform="translate(25.3714,8.5272)"
       style="fill:currentColor" />
    <rect
       id="rect96"
       ry="0.0308"
       height="3.3694999"
       width="0.1103"
       y="-2.5"
       x="-0.055100001"
       transform="translate(40.7278,8.5272)"
       style="fill:currentColor" />
    <a
       id="a102"
       xlink:href="textedit:///home/valentin/Programming/WebstormProjects/fett/lilypond/m2_c_major_solfege.ly:27:10:11"
       style="color:inherit">
      <text
         id="text100"
         font-size="2.4695"
         transform="translate(23.9255,14.3818)"
         style="font-size:2.46950006px;font-family:'Century Schoolbook L';text-anchor:start;fill:currentColor">
        <tspan
           id="tspan98">D</tspan>
      </text>
    </a>
    <a
       id="a112"
       xlink:href="textedit:///home/valentin/Programming/WebstormProjects/fett/lilypond/m2_c_major_solfege.ly:22:51:52"
       style="color:inherit">
      <circle
         id="circle104"
         r="0.5424"
         transform="translate(24.8842,11.0272)"
         cx="0"
         cy="0"
         style="fill:currentColor;stroke:currentColor;stroke-width:0;stroke-linecap:round;stroke-linejoin:round" />
      <g
         id="g110"
         style="color:#ffffff">
        <text
           id="text108"
           font-size="0.8733"
           font-weight="bold"
           transform="translate(24.5821,11.3555)"
           style="font-weight:bold;font-size:0.87330002px;font-family:sans-serif;text-anchor:start;fill:currentColor">
          <tspan
             id="tspan106">2</tspan>
        </text>
      </g>
    </a>
    <a
       id="a118"
       xlink:href="textedit:///home/valentin/Programming/WebstormProjects/fett/lilypond/m2_c_major_solfege.ly:32:11:12"
       style="color:inherit">
      <text
         id="text116"
         font-size="2.4695"
         transform="translate(23.3609,5.0009)"
         style="font-size:2.46950006px;font-family:'Century Schoolbook L';text-anchor:start;fill:currentColor">
        <tspan
           id="tspan114">Re</tspan>
      </text>
    </a>
    <rect
       id="rect120"
       ry="0.0308"
       height="3.3694999"
       width="0.1103"
       y="-0.5"
       x="-0.055100001"
       transform="translate(20.6866,8.5272)"
       style="fill:currentColor" />
    <a
       id="a126"
       xlink:href="textedit:///home/valentin/Programming/WebstormProjects/fett/lilypond/m2_c_major_solfege.ly:32:8:9"
       style="color:inherit">
      <text
         id="text124"
         font-size="2.4695"
         transform="translate(18.6235,5.0009)"
         style="font-size:2.46950006px;font-family:'Century Schoolbook L';text-anchor:start;fill:currentColor">
        <tspan
           id="tspan122">Do</tspan>
      </text>
    </a>
    <a
       id="a132"
       xlink:href="textedit:///home/valentin/Programming/WebstormProjects/fett/lilypond/m2_c_major_solfege.ly:27:8:9"
       style="color:inherit">
      <text
         id="text130"
         font-size="2.4695"
         transform="translate(19.3064,14.3818)"
         style="font-size:2.46950006px;font-family:'Century Schoolbook L';text-anchor:start;fill:currentColor">
        <tspan
           id="tspan128">C</tspan>
      </text>
    </a>
    <path
       id="path134"
       d="m 360,25 c -51,0 -76,43 -76,77 0,39 28,78 74,78 6,0 13,0 18,-1 -29,37 -76,60 -126,60 -106,0 -113,-73 -113,-185 0,-17 1,-35 1,-54 0,-19 -1,-37 -1,-54 0,-112 7,-185 113,-185 82,0 145,68 164,151 1,6 6,9 10,9 6,0 11,-4 11,-11 0,-94 -107,-171 -185,-171 -68,0 -137,20 -184,69 C 17,-141 0,-70 0,0 c 0,70 17,141 66,192 47,49 116,69 184,69 88,0 163,-62 178,-148 1,-5 2,-9 2,-14 0,-40 -32,-74 -70,-74 z"
       transform="matrix(0.004,0,0,-0.004,15.9434,8.5272)"
       inkscape:connector-curvature="0"
       style="fill:currentColor" />
    <path
       id="path138"
       d="m 374,260 c 5,0 10,1 15,1 154,0 254,-127 254,-259 0,-76 -33,-153 -107,-208 -22,-17 -47,-29 -73,-37 3,-36 5,-72 5,-108 0,-19 0,-37 -1,-56 -7,-120 -88,-226 -206,-226 -108,0 -195,87 -195,195 0,58 53,104 112,104 54,0 95,-48 95,-104 0,-52 -43,-95 -95,-95 -12,0 -24,4 -35,9 26,-41 70,-70 121,-70 1,0 2,1 3,1 93,2 154,93 160,192 1,18 2,35 2,53 0,32 -2,64 -5,96 -29,-5 -58,-8 -89,-8 -188,0 -333,171 -333,372 0,178 133,306 251,440 -18,63 -35,126 -42,191 -6,51 -7,102 -7,154 0,116 55,226 150,295 5,4 11,4 16,0 70,-84 132,-246 132,-359 0,-144 -87,-256 -183,-365 20,-69 39,-138 55,-208 z m 85,-465 c 69,24 117,96 117,166 0,92 -69,184 -179,193 25,-117 48,-235 62,-359 z M 71,31 c 0,-136 131,-251 267,-251 28,0 55,2 82,6 C 405,-86 382,33 356,153 277,144 231,91 231,32 c 0,-44 26,-92 82,-124 4,-4 7,-9 7,-14 0,-11 -9,-21 -20,-21 -3,0 -6,1 -9,2 -80,43 -116,114 -116,184 0,88 57,173 158,196 -14,60 -30,119 -46,178 C 179,312 71,191 71,31 Z M 411,1050 C 312,1000 250,899 250,788 c 0,-76 15,-137 33,-200 82,97 149,198 149,325 0,58 -4,84 -21,137 z"
       transform="matrix(0.004,0,0,-0.004,11.7434,9.5272)"
       inkscape:connector-curvature="0"
       style="fill:currentColor" />
    <a
       id="a148"
       xlink:href="textedit:///home/valentin/Programming/WebstormProjects/fett/lilypond/m2_c_major_solfege.ly:22:49:50"
       style="color:inherit">
      <circle
         id="circle140"
         r="0.5424"
         transform="translate(20.1993,11.5272)"
         cx="0"
         cy="0"
         style="fill:currentColor;stroke:currentColor;stroke-width:0;stroke-linecap:round;stroke-linejoin:round" />
      <g
         id="g146"
         style="color:#ffffff">
        <text
           id="text144"
           font-size="0.8733"
           font-weight="bold"
           transform="translate(19.8973,11.8555)"
           style="font-weight:bold;font-size:0.87330002px;font-family:sans-serif;text-anchor:start;fill:currentColor">
          <tspan
             id="tspan142">1</tspan>
        </text>
      </g>
    </a>
    <a
       id="a158"
       xlink:href="textedit:///home/valentin/Programming/WebstormProjects/fett/lilypond/m2_c_major_solfege.ly:22:55:56"
       style="color:inherit">
      <circle
         id="circle150"
         r="0.5424"
         transform="translate(34.2538,10.0272)"
         cx="0"
         cy="0"
         style="fill:currentColor;stroke:currentColor;stroke-width:0;stroke-linecap:round;stroke-linejoin:round" />
      <g
         id="g156"
         style="color:#ffffff">
        <text
           id="text154"
           font-size="0.8733"
           font-weight="bold"
           transform="translate(33.9518,10.3555)"
           style="font-weight:bold;font-size:0.87330002px;font-family:sans-serif;text-anchor:start;fill:currentColor">
          <tspan
             id="tspan152">4</tspan>
        </text>
      </g>
    </a>
    <a
       id="a164"
       xlink:href="textedit:///home/valentin/Programming/WebstormProjects/fett/lilypond/m2_c_major_solfege.ly:32:20:21"
       style="color:inherit">
      <text
         id="text162"
         font-size="2.4695"
         transform="translate(38.8485,5.0009)"
         style="font-size:2.46950006px;font-family:'Century Schoolbook L';text-anchor:start;fill:currentColor">
        <tspan
           id="tspan160">So</tspan>
      </text>
    </a>
    <a
       id="a170"
       xlink:href="textedit:///home/valentin/Programming/WebstormProjects/fett/lilypond/m2_c_major_solfege.ly:27:16:17"
       style="color:inherit">
      <text
         id="text168"
         font-size="2.4695"
         transform="translate(39.2819,14.3818)"
         style="font-size:2.46950006px;font-family:'Century Schoolbook L';text-anchor:start;fill:currentColor">
        <tspan
           id="tspan166">G</tspan>
      </text>
    </a>
    <a
       id="a180"
       xlink:href="textedit:///home/valentin/Programming/WebstormProjects/fett/lilypond/m2_c_major_solfege.ly:22:57:58"
       style="color:inherit">
      <circle
         id="circle172"
         r="0.5424"
         transform="translate(40.2405,9.5272)"
         cx="0"
         cy="0"
         style="fill:currentColor;stroke:currentColor;stroke-width:0;stroke-linecap:round;stroke-linejoin:round" />
      <g
         id="g178"
         style="color:#ffffff">
        <text
           id="text176"
           font-size="0.8733"
           font-weight="bold"
           transform="translate(39.9385,9.8555)"
           style="font-weight:bold;font-size:0.87330002px;font-family:sans-serif;text-anchor:start;fill:currentColor">
          <tspan
             id="tspan174">5</tspan>
        </text>
      </g>
    </a>
    <rect
       id="rect182"
       ry="0.0308"
       height="3.3694999"
       width="0.1103"
       y="-2"
       x="-0.055100001"
       transform="translate(34.7411,8.5272)"
       style="fill:currentColor" />
    <a
       id="a188"
       xlink:href="textedit:///home/valentin/Programming/WebstormProjects/fett/lilypond/m2_c_major_solfege.ly:32:17:18"
       style="color:inherit">
      <text
         id="text186"
         font-size="2.4695"
         transform="translate(32.7831,5.0009)"
         style="font-size:2.46950006px;font-family:'Century Schoolbook L';text-anchor:start;fill:currentColor">
        <tspan
           id="tspan184">Fa</tspan>
      </text>
    </a>
    <a
       id="a194"
       xlink:href="textedit:///home/valentin/Programming/WebstormProjects/fett/lilypond/m2_c_major_solfege.ly:27:14:15"
       style="color:inherit">
      <text
         id="text192"
         font-size="2.4695"
         transform="translate(33.4265,14.3818)"
         style="font-size:2.46950006px;font-family:'Century Schoolbook L';text-anchor:start;fill:currentColor">
        <tspan
           id="tspan190">F</tspan>
      </text>
    </a>
    <a
       id="a204"
       xlink:href="textedit:///home/valentin/Programming/WebstormProjects/fett/lilypond/m2_c_major_solfege.ly:22:53:54"
       style="color:inherit">
      <circle
         id="circle196"
         r="0.5424"
         transform="translate(29.569,10.5272)"
         cx="0"
         cy="0"
         style="fill:currentColor;stroke:currentColor;stroke-width:0;stroke-linecap:round;stroke-linejoin:round" />
      <g
         id="g202"
         style="color:#ffffff">
        <text
           id="text200"
           font-size="0.8733"
           font-weight="bold"
           transform="translate(29.267,10.8555)"
           style="font-weight:bold;font-size:0.87330002px;font-family:sans-serif;text-anchor:start;fill:currentColor">
          <tspan
             id="tspan198">3</tspan>
        </text>
      </g>
    </a>
    <a
       id="a210"
       xlink:href="textedit:///home/valentin/Programming/WebstormProjects/fett/lilypond/m2_c_major_solfege.ly:27:12:13"
       style="color:inherit">
      <text
         id="text208"
         font-size="2.4695"
         transform="translate(28.676,14.3818)"
         style="font-size:2.46950006px;font-family:'Century Schoolbook L';text-anchor:start;fill:currentColor">
        <tspan
           id="tspan206">E</tspan>
      </text>
    </a>
    <a
       id="a216"
       xlink:href="textedit:///home/valentin/Programming/WebstormProjects/fett/lilypond/m2_c_major_solfege.ly:32:14:15"
       style="color:inherit">
      <text
         id="text214"
         font-size="2.4695"
         transform="translate(28.0063,5.0009)"
         style="font-size:2.46950006px;font-family:'Century Schoolbook L';text-anchor:start;fill:currentColor">
        <tspan
           id="tspan212">Mi</tspan>
      </text>
    </a>
    <rect
       id="rect218"
       ry="0.0308"
       height="3.3694999"
       width="0.1103"
       y="-1.5"
       x="-0.055100001"
       transform="translate(30.0563,8.5272)"
       style="fill:currentColor" />
  </g>
  <a
     transform="translate(6.9956039,123.72712)"
     xlink:href="http://lilypond.org/"
     id="a222">
    <rect
       x="0"
       y="-0.47279999"
       width="56.0476"
       height="2.1011"
       id="rect220"
       style="fill:none;stroke:none;stroke-width:0" />
  </a>
  <text
     font-size="2.2002"
     id="text226"
     style="font-size:2.20020008px;font-family:'Century Schoolbook L';text-anchor:start;fill:currentColor"
     x="6.995604"
     y="123.72712">
    <tspan
       id="tspan224">Music engraving by LilyPond 2.18.2—www.lilypond.org</tspan>
  </text>
</svg>
