<?xml version="1.0" encoding="UTF-8" standalone="no"?>
<svg
   xmlns:dc="http://purl.org/dc/elements/1.1/"
   xmlns:cc="http://creativecommons.org/ns#"
   xmlns:rdf="http://www.w3.org/1999/02/22-rdf-syntax-ns#"
   xmlns:svg="http://www.w3.org/2000/svg"
   xmlns="http://www.w3.org/2000/svg"
   xmlns:xlink="http://www.w3.org/1999/xlink"
   xmlns:sodipodi="http://sodipodi.sourceforge.net/DTD/sodipodi-0.dtd"
   xmlns:inkscape="http://www.inkscape.org/namespaces/inkscape"
   version="1.2"
   width="172.45819mm"
   height="26.325241mm"
   viewBox="0 0 98.138237 14.980516"
   id="svg826"
   sodipodi:docname="m2_c_major_intern_solfege.svg"
   inkscape:version="0.92.4 (5da689c313, 2019-01-14)">
  <metadata
     id="metadata832">
    <rdf:RDF>
      <cc:Work
         rdf:about="">
        <dc:format>image/svg+xml</dc:format>
        <dc:type
           rdf:resource="http://purl.org/dc/dcmitype/StillImage" />
        <dc:title></dc:title>
      </cc:Work>
    </rdf:RDF>
  </metadata>
  <defs
     id="defs830" />
  <sodipodi:namedview
     pagecolor="#ffffff"
     bordercolor="#666666"
     borderopacity="1"
     objecttolerance="10"
     gridtolerance="10"
     guidetolerance="10"
     inkscape:pageopacity="0"
     inkscape:pageshadow="2"
     inkscape:window-width="1920"
     inkscape:window-height="1023"
     id="namedview828"
     showgrid="false"
     fit-margin-top="2"
     fit-margin-left="1"
     fit-margin-right="1"
     fit-margin-bottom="2"
     inkscape:zoom="0.84096521"
     inkscape:cx="129.59021"
     inkscape:cy="-37.30176"
     inkscape:window-x="0"
     inkscape:window-y="31"
     inkscape:window-maximized="1"
     inkscape:current-layer="svg826" />
  <!-- Page: 1/1 -->
  <text
     font-size="2.2001"
     id="text498"
     style="font-size:2.20009995px;font-family:'Century Schoolbook L';text-anchor:start;fill:currentColor"
     x="-7.9660325"
     y="0.14576164">
    <tspan
       id="tspan496" />
  </text>
  <rect
     x="72.384369"
     y="6.3053617"
     width="0.19"
     height="4"
     ry="0.0000"
     id="rect500"
     style="fill:currentColor" />
  <rect
     x="19.861868"
     y="6.3053617"
     width="0.19"
     height="4"
     ry="0.0000"
     id="rect502"
     style="fill:currentColor" />
  <rect
     x="64.21627"
     y="6.3053617"
     width="0.19"
     height="4"
     ry="0.0000"
     id="rect504"
     style="fill:currentColor" />
  <rect
     x="80.552368"
     y="6.3053617"
     width="0.19"
     height="4"
     ry="0.0000"
     id="rect506"
     style="fill:currentColor" />
  <rect
     x="88.720467"
     y="6.3053617"
     width="0.19"
     height="4"
     ry="0.0000"
     id="rect508"
     style="fill:currentColor" />
  <rect
     x="31.544067"
     y="6.3053617"
     width="0.19"
     height="4"
     ry="0.0000"
     id="rect510"
     style="fill:currentColor" />
  <rect
     x="56.048267"
     y="6.3053617"
     width="0.19"
     height="4"
     ry="0.0000"
     id="rect512"
     style="fill:currentColor" />
  <rect
     x="97.378464"
     y="6.3053617"
     width="0.19"
     height="4"
     ry="0.0000"
     id="rect514"
     style="fill:currentColor" />
  <rect
     x="96.888466"
     y="6.3053617"
     width="0.19"
     height="4"
     ry="0.0000"
     id="rect516"
     style="fill:currentColor" />
  <rect
     x="47.880169"
     y="6.3053617"
     width="0.19"
     height="4"
     ry="0.0000"
     id="rect518"
     style="fill:currentColor" />
  <rect
     x="39.712166"
     y="6.3053617"
     width="0.19"
     height="4"
     ry="0.0000"
     id="rect520"
     style="fill:currentColor" />
  <line
     x1="0.61976737"
     y1="10.305362"
     x2="97.518471"
     y2="10.305362"
     id="line522"
     style="stroke:currentColor;stroke-width:0.1;stroke-linecap:round;stroke-linejoin:round" />
  <line
     x1="0.61976737"
     y1="9.3053617"
     x2="97.518471"
     y2="9.3053617"
     id="line524"
     style="stroke:currentColor;stroke-width:0.1;stroke-linecap:round;stroke-linejoin:round" />
  <line
     x1="0.61976737"
     y1="8.3053617"
     x2="97.518471"
     y2="8.3053617"
     id="line526"
     style="stroke:currentColor;stroke-width:0.1;stroke-linecap:round;stroke-linejoin:round" />
  <line
     x1="0.61976737"
     y1="7.3053617"
     x2="97.518471"
     y2="7.3053617"
     id="line528"
     style="stroke:currentColor;stroke-width:0.1;stroke-linecap:round;stroke-linejoin:round" />
  <line
     x1="0.61976737"
     y1="6.3053617"
     x2="97.518471"
     y2="6.3053617"
     id="line530"
     style="stroke:currentColor;stroke-width:0.1;stroke-linecap:round;stroke-linejoin:round" />
  <a
     style="color:inherit"
     xlink:href="textedit:///home/valentin/Programming/WebstormProjects/fett/lilypond/m2_c_major_intern_solfege.ly:21:31:32"
     id="a548"
     transform="translate(-13.656633,-2.6995384)">
    <text
       transform="translate(79.9629,8.4207)"
       font-size="2.6163"
       id="text534"
       style="font-size:2.61630011px;font-family:sans-serif;text-anchor:start;fill:currentColor">
      <tspan
         id="tspan532">C</tspan>
    </text>
    <text
       transform="translate(81.8067,8.4207)"
       font-size="2.6163"
       id="text538"
       style="font-size:2.61630011px;font-family:sans-serif;text-anchor:start;fill:currentColor">
      <tspan
         id="tspan536" />
    </text>
    <text
       transform="translate(81.8067,8.4207)"
       font-size="2.6163"
       id="text542"
       style="font-size:2.61630011px;font-family:sans-serif;text-anchor:start;fill:currentColor">
      <tspan
         id="tspan540" />
    </text>
    <text
       transform="translate(81.8067,6.9207)"
       font-size="1.8500"
       id="text546"
       style="font-size:1.85000002px;font-family:sans-serif;text-anchor:start;fill:currentColor">
      <tspan
         id="tspan544" />
    </text>
  </a>
  <a
     style="color:inherit"
     xlink:href="textedit:///home/valentin/Programming/WebstormProjects/fett/lilypond/m2_c_major_intern_solfege.ly:25:56:57"
     id="a552"
     transform="translate(-13.656633,-2.6995384)">
    <path
       transform="matrix(0.004,0,0,-0.004,79.9629,10.0049)"
       d="m 215,112 c -50,0 -69,-43 -69,-88 0,-77 57,-136 134,-136 50,0 69,43 69,88 0,77 -57,136 -134,136 z M 495,0 c 0,-43 -35,-76 -73,-97 -53,-30 -113,-41 -174,-41 -61,0 -122,11 -175,41 -38,21 -73,54 -73,97 0,43 35,76 73,97 53,30 114,41 175,41 61,0 121,-11 174,-41 38,-21 73,-54 73,-97 z"
       id="path550"
       inkscape:connector-curvature="0"
       style="fill:currentColor" />
  </a>
  <a
     style="color:inherit"
     xlink:href="textedit:///home/valentin/Programming/WebstormProjects/fett/lilypond/m2_c_major_intern_solfege.ly:30:23:24"
     id="a558"
     transform="translate(-13.656633,-2.6995384)">
    <text
       transform="translate(79.9629,16.5049)"
       font-size="2.4696"
       id="text556"
       style="font-size:2.46959996px;font-family:'Century Schoolbook L';text-anchor:start;fill:currentColor">
      <tspan
         id="tspan554">Re</tspan>
    </text>
  </a>
  <a
     style="color:inherit"
     xlink:href="textedit:///home/valentin/Programming/WebstormProjects/fett/lilypond/m2_c_major_intern_solfege.ly:33:31:32"
     id="a564"
     transform="translate(-13.656633,-2.6995384)">
    <text
       transform="translate(79.9629,5.6207)"
       font-size="2.4696"
       id="text562"
       style="font-size:2.46959996px;font-family:'Century Schoolbook L';text-anchor:start;fill:currentColor">
      <tspan
         id="tspan560">I</tspan>
    </text>
  </a>
  <a
     style="color:inherit"
     xlink:href="textedit:///home/valentin/Programming/WebstormProjects/fett/lilypond/m2_c_major_intern_solfege.ly:25:52:53"
     id="a568"
     transform="translate(-13.656633,-2.6995384)">
    <path
       transform="matrix(0.004,0,0,-0.004,63.6268,10.0049)"
       d="m 215,112 c -50,0 -69,-43 -69,-88 0,-77 57,-136 134,-136 50,0 69,43 69,88 0,77 -57,136 -134,136 z M 495,0 c 0,-43 -35,-76 -73,-97 -53,-30 -113,-41 -174,-41 -61,0 -122,11 -175,41 -38,21 -73,54 -73,97 0,43 35,76 73,97 53,30 114,41 175,41 61,0 121,-11 174,-41 38,-21 73,-54 73,-97 z"
       id="path566"
       inkscape:connector-curvature="0"
       style="fill:currentColor" />
  </a>
  <a
     style="color:inherit"
     xlink:href="textedit:///home/valentin/Programming/WebstormProjects/fett/lilypond/m2_c_major_intern_solfege.ly:25:58:59"
     id="a572"
     transform="translate(-13.656633,-2.6995384)">
    <path
       transform="matrix(0.004,0,0,-0.004,88.131,10.0049)"
       d="m 215,112 c -50,0 -69,-43 -69,-88 0,-77 57,-136 134,-136 50,0 69,43 69,88 0,77 -57,136 -134,136 z M 495,0 c 0,-43 -35,-76 -73,-97 -53,-30 -113,-41 -174,-41 -61,0 -122,11 -175,41 -38,21 -73,54 -73,97 0,43 35,76 73,97 53,30 114,41 175,41 61,0 121,-11 174,-41 38,-21 73,-54 73,-97 z"
       id="path570"
       inkscape:connector-curvature="0"
       style="fill:currentColor" />
  </a>
  <a
     style="color:inherit"
     xlink:href="textedit:///home/valentin/Programming/WebstormProjects/fett/lilypond/m2_c_major_intern_solfege.ly:30:26:27"
     id="a578"
     transform="translate(-13.656633,-2.6995384)">
    <text
       transform="translate(88.131,16.5049)"
       font-size="2.4696"
       id="text576"
       style="font-size:2.46959996px;font-family:'Century Schoolbook L';text-anchor:start;fill:currentColor">
      <tspan
         id="tspan574">Re</tspan>
    </text>
  </a>
  <a
     style="color:inherit"
     xlink:href="textedit:///home/valentin/Programming/WebstormProjects/fett/lilypond/m2_c_major_intern_solfege.ly:21:23:24"
     id="a596"
     transform="translate(-13.656633,-2.6995384)">
    <text
       transform="translate(63.6268,8.4207)"
       font-size="2.6163"
       id="text582"
       style="font-size:2.61630011px;font-family:sans-serif;text-anchor:start;fill:currentColor">
      <tspan
         id="tspan580">C</tspan>
    </text>
    <text
       transform="translate(65.4705,8.4207)"
       font-size="2.6163"
       id="text586"
       style="font-size:2.61630011px;font-family:sans-serif;text-anchor:start;fill:currentColor">
      <tspan
         id="tspan584" />
    </text>
    <text
       transform="translate(65.4705,8.4207)"
       font-size="2.6163"
       id="text590"
       style="font-size:2.61630011px;font-family:sans-serif;text-anchor:start;fill:currentColor">
      <tspan
         id="tspan588" />
    </text>
    <text
       transform="translate(65.4705,6.9207)"
       font-size="1.8500"
       id="text594"
       style="font-size:1.85000002px;font-family:sans-serif;text-anchor:start;fill:currentColor">
      <tspan
         id="tspan592" />
    </text>
  </a>
  <a
     style="color:inherit"
     xlink:href="textedit:///home/valentin/Programming/WebstormProjects/fett/lilypond/m2_c_major_intern_solfege.ly:25:54:55"
     id="a600"
     transform="translate(-13.656633,-2.6995384)">
    <path
       transform="matrix(0.004,0,0,-0.004,71.7949,10.0049)"
       d="m 215,112 c -50,0 -69,-43 -69,-88 0,-77 57,-136 134,-136 50,0 69,43 69,88 0,77 -57,136 -134,136 z M 495,0 c 0,-43 -35,-76 -73,-97 -53,-30 -113,-41 -174,-41 -61,0 -122,11 -175,41 -38,21 -73,54 -73,97 0,43 35,76 73,97 53,30 114,41 175,41 61,0 121,-11 174,-41 38,-21 73,-54 73,-97 z"
       id="path598"
       inkscape:connector-curvature="0"
       style="fill:currentColor" />
  </a>
  <a
     style="color:inherit"
     xlink:href="textedit:///home/valentin/Programming/WebstormProjects/fett/lilypond/m2_c_major_intern_solfege.ly:30:20:21"
     id="a606"
     transform="translate(-13.656633,-2.6995384)">
    <text
       transform="translate(71.7949,16.5049)"
       font-size="2.4696"
       id="text604"
       style="font-size:2.46959996px;font-family:'Century Schoolbook L';text-anchor:start;fill:currentColor">
      <tspan
         id="tspan602">Re</tspan>
    </text>
  </a>
  <a
     style="color:inherit"
     xlink:href="textedit:///home/valentin/Programming/WebstormProjects/fett/lilypond/m2_c_major_intern_solfege.ly:33:23:24"
     id="a612"
     transform="translate(-13.656633,-2.6995384)">
    <text
       transform="translate(63.6268,5.6207)"
       font-size="2.4696"
       id="text610"
       style="font-size:2.46959996px;font-family:'Century Schoolbook L';text-anchor:start;fill:currentColor">
      <tspan
         id="tspan608">I</tspan>
    </text>
  </a>
  <a
     style="color:inherit"
     xlink:href="textedit:///home/valentin/Programming/WebstormProjects/fett/lilypond/m2_c_major_intern_solfege.ly:30:17:18"
     id="a618"
     transform="translate(-13.656633,-2.6995384)">
    <text
       transform="translate(63.6268,16.5049)"
       font-size="2.4696"
       id="text616"
       style="font-size:2.46959996px;font-family:'Century Schoolbook L';text-anchor:start;fill:currentColor">
      <tspan
         id="tspan614">Re</tspan>
    </text>
  </a>
  <a
     style="color:inherit"
     xlink:href="textedit:///home/valentin/Programming/WebstormProjects/fett/lilypond/m2_c_major_intern_solfege.ly:21:39:40"
     id="a636"
     transform="translate(-13.656633,-2.6995384)">
    <text
       transform="translate(96.299,8.4207)"
       font-size="2.6163"
       id="text622"
       style="font-size:2.61630011px;font-family:sans-serif;text-anchor:start;fill:currentColor">
      <tspan
         id="tspan620">C</tspan>
    </text>
    <text
       transform="translate(98.1428,8.4207)"
       font-size="2.6163"
       id="text626"
       style="font-size:2.61630011px;font-family:sans-serif;text-anchor:start;fill:currentColor">
      <tspan
         id="tspan624" />
    </text>
    <text
       transform="translate(98.1428,8.4207)"
       font-size="2.6163"
       id="text630"
       style="font-size:2.61630011px;font-family:sans-serif;text-anchor:start;fill:currentColor">
      <tspan
         id="tspan628" />
    </text>
    <text
       transform="translate(98.1428,6.9207)"
       font-size="1.8500"
       id="text634"
       style="font-size:1.85000002px;font-family:sans-serif;text-anchor:start;fill:currentColor">
      <tspan
         id="tspan632" />
    </text>
  </a>
  <a
     style="color:inherit"
     xlink:href="textedit:///home/valentin/Programming/WebstormProjects/fett/lilypond/m2_c_major_intern_solfege.ly:25:60:61"
     id="a640"
     transform="translate(-13.656633,-2.6995384)">
    <path
       transform="matrix(0.004,0,0,-0.004,96.299,10.0049)"
       d="m 215,112 c -50,0 -69,-43 -69,-88 0,-77 57,-136 134,-136 50,0 69,43 69,88 0,77 -57,136 -134,136 z M 495,0 c 0,-43 -35,-76 -73,-97 -53,-30 -113,-41 -174,-41 -61,0 -122,11 -175,41 -38,21 -73,54 -73,97 0,43 35,76 73,97 53,30 114,41 175,41 61,0 121,-11 174,-41 38,-21 73,-54 73,-97 z"
       id="path638"
       inkscape:connector-curvature="0"
       style="fill:currentColor" />
  </a>
  <a
     style="color:inherit"
     xlink:href="textedit:///home/valentin/Programming/WebstormProjects/fett/lilypond/m2_c_major_intern_solfege.ly:30:29:30"
     id="a646"
     transform="translate(-13.656633,-2.6995384)">
    <text
       transform="translate(96.299,16.5049)"
       font-size="2.4696"
       id="text644"
       style="font-size:2.46959996px;font-family:'Century Schoolbook L';text-anchor:start;fill:currentColor">
      <tspan
         id="tspan642">Re</tspan>
    </text>
  </a>
  <a
     style="color:inherit"
     xlink:href="textedit:///home/valentin/Programming/WebstormProjects/fett/lilypond/m2_c_major_intern_solfege.ly:33:39:40"
     id="a652"
     transform="translate(-13.656633,-2.6995384)">
    <text
       transform="translate(96.299,5.6207)"
       font-size="2.4696"
       id="text650"
       style="font-size:2.46959996px;font-family:'Century Schoolbook L';text-anchor:start;fill:currentColor">
      <tspan
         id="tspan648">I</tspan>
    </text>
  </a>
  <a
     style="color:inherit"
     xlink:href="textedit:///home/valentin/Programming/WebstormProjects/fett/lilypond/m2_c_major_intern_solfege.ly:25:62:63"
     id="a656"
     transform="translate(-13.656633,-2.6995384)">
    <path
       transform="matrix(0.004,0,0,-0.004,104.4671,10.0049)"
       d="m 215,112 c -50,0 -69,-43 -69,-88 0,-77 57,-136 134,-136 50,0 69,43 69,88 0,77 -57,136 -134,136 z M 495,0 c 0,-43 -35,-76 -73,-97 -53,-30 -113,-41 -174,-41 -61,0 -122,11 -175,41 -38,21 -73,54 -73,97 0,43 35,76 73,97 53,30 114,41 175,41 61,0 121,-11 174,-41 38,-21 73,-54 73,-97 z"
       id="path654"
       inkscape:connector-curvature="0"
       style="fill:currentColor" />
  </a>
  <a
     style="color:inherit"
     xlink:href="textedit:///home/valentin/Programming/WebstormProjects/fett/lilypond/m2_c_major_intern_solfege.ly:30:32:33"
     id="a662"
     transform="translate(-13.656633,-2.6995384)">
    <text
       transform="translate(104.4671,16.5049)"
       font-size="2.4696"
       id="text660"
       style="font-size:2.46959996px;font-family:'Century Schoolbook L';text-anchor:start;fill:currentColor">
      <tspan
         id="tspan658">Re</tspan>
    </text>
  </a>
  <a
     style="color:inherit"
     xlink:href="textedit:///home/valentin/Programming/WebstormProjects/fett/lilypond/m2_c_major_intern_solfege.ly:25:37:38"
     id="a666"
     transform="translate(-13.656633,-2.6995384)">
    <path
       transform="translate(28.2225,12.0049)"
       d="M 0,0 H 0.55688705 L 1.7333576,-2 h -0.556887 z"
       id="path664"
       inkscape:connector-curvature="0"
       style="fill:currentColor;stroke:currentColor;stroke-width:0;stroke-linecap:round;stroke-linejoin:round" />
  </a>
  <a
     style="color:inherit"
     xlink:href="textedit:///home/valentin/Programming/WebstormProjects/fett/lilypond/m2_c_major_intern_solfege.ly:25:37:38"
     id="a670"
     transform="translate(-13.656633,-2.6995384)">
    <path
       transform="translate(30.8705,12.0049)"
       d="M 0,0 H 0.55688705 L 1.7333576,-2 h -0.556887 z"
       id="path668"
       inkscape:connector-curvature="0"
       style="fill:currentColor;stroke:currentColor;stroke-width:0;stroke-linecap:round;stroke-linejoin:round" />
  </a>
  <a
     style="color:inherit"
     xlink:href="textedit:///home/valentin/Programming/WebstormProjects/fett/lilypond/m2_c_major_intern_solfege.ly:21:9:10"
     id="a688"
     transform="translate(-13.656633,-2.6995384)">
    <text
       transform="translate(34.6085,8.4207)"
       font-size="2.6163"
       id="text674"
       style="font-size:2.61630011px;font-family:sans-serif;text-anchor:start;fill:currentColor">
      <tspan
         id="tspan672">F</tspan>
    </text>
    <text
       transform="translate(36.1108,8.4207)"
       font-size="2.6163"
       id="text678"
       style="font-size:2.61630011px;font-family:sans-serif;text-anchor:start;fill:currentColor">
      <tspan
         id="tspan676" />
    </text>
    <text
       transform="translate(36.1108,8.4207)"
       font-size="2.6163"
       id="text682"
       style="font-size:2.61630011px;font-family:sans-serif;text-anchor:start;fill:currentColor">
      <tspan
         id="tspan680" />
    </text>
    <text
       transform="translate(36.1108,6.9207)"
       font-size="1.8500"
       id="text686"
       style="font-size:1.85000002px;font-family:sans-serif;text-anchor:start;fill:currentColor">
      <tspan
         id="tspan684" />
    </text>
  </a>
  <a
     style="color:inherit"
     xlink:href="textedit:///home/valentin/Programming/WebstormProjects/fett/lilypond/m2_c_major_intern_solfege.ly:25:37:38"
     id="a692"
     transform="translate(-13.656633,-2.6995384)">
    <path
       transform="translate(34.6085,12.0049)"
       d="M 0,0 H 0.55688705 L 1.7333576,-2 h -0.556887 z"
       id="path690"
       inkscape:connector-curvature="0"
       style="fill:currentColor;stroke:currentColor;stroke-width:0;stroke-linecap:round;stroke-linejoin:round" />
  </a>
  <a
     style="color:inherit"
     xlink:href="textedit:///home/valentin/Programming/WebstormProjects/fett/lilypond/m2_c_major_intern_solfege.ly:33:9:10"
     id="a698"
     transform="translate(-13.656633,-2.6995384)">
    <text
       transform="translate(34.6085,5.6207)"
       font-size="2.4696"
       id="text696"
       style="font-size:2.46959996px;font-family:'Century Schoolbook L';text-anchor:start;fill:currentColor">
      <tspan
         id="tspan694">IV</tspan>
    </text>
  </a>
  <a
     style="color:inherit"
     xlink:href="textedit:///home/valentin/Programming/WebstormProjects/fett/lilypond/m2_c_major_intern_solfege.ly:25:37:38"
     id="a702"
     transform="translate(-13.656633,-2.6995384)">
    <path
       transform="translate(37.2566,12.0049)"
       d="M 0,0 H 0.55688705 L 1.7333576,-2 h -0.556887 z"
       id="path700"
       inkscape:connector-curvature="0"
       style="fill:currentColor;stroke:currentColor;stroke-width:0;stroke-linecap:round;stroke-linejoin:round" />
  </a>
  <a
     style="color:inherit"
     xlink:href="textedit:///home/valentin/Programming/WebstormProjects/fett/lilypond/m2_c_major_intern_solfege.ly:21:6:7"
     id="a720"
     transform="translate(-13.656633,-2.6995384)">
    <text
       transform="translate(22.9264,8.4207)"
       font-size="2.6163"
       id="text706"
       style="font-size:2.61630011px;font-family:sans-serif;text-anchor:start;fill:currentColor">
      <tspan
         id="tspan704">C</tspan>
    </text>
    <text
       transform="translate(24.7701,8.4207)"
       font-size="2.6163"
       id="text710"
       style="font-size:2.61630011px;font-family:sans-serif;text-anchor:start;fill:currentColor">
      <tspan
         id="tspan708" />
    </text>
    <text
       transform="translate(24.7701,8.4207)"
       font-size="2.6163"
       id="text714"
       style="font-size:2.61630011px;font-family:sans-serif;text-anchor:start;fill:currentColor">
      <tspan
         id="tspan712" />
    </text>
    <text
       transform="translate(24.7701,6.9207)"
       font-size="1.8500"
       id="text718"
       style="font-size:1.85000002px;font-family:sans-serif;text-anchor:start;fill:currentColor">
      <tspan
         id="tspan716" />
    </text>
  </a>
  <a
     style="color:inherit"
     xlink:href="textedit:///home/valentin/Programming/WebstormProjects/fett/lilypond/m2_c_major_intern_solfege.ly:25:37:38"
     id="a724"
     transform="translate(-13.656633,-2.6995384)">
    <path
       transform="translate(22.9264,12.0049)"
       d="M 0,0 H 0.55688705 L 1.7333576,-2 h -0.556887 z"
       id="path722"
       inkscape:connector-curvature="0"
       style="fill:currentColor;stroke:currentColor;stroke-width:0;stroke-linecap:round;stroke-linejoin:round" />
  </a>
  <path
     d="m 2.4337674,11.845362 h -0.024 c -0.432,0 -0.78,-0.352 -0.78,-0.788 0,-0.232 0.212,-0.412 0.448,-0.412 0.216,0 0.38,0.188 0.38,0.412 0,0.208 -0.172,0.38 -0.38,0.38 -0.044,0 -0.084,-0.008 -0.124,-0.024 0.104,0.156 0.272,0.26 0.468,0.26 h 0.016 z m 0.78,-1.728 c 0.272,-0.096 0.452,-0.3800004 0.452,-0.6560004 0,-0.36 -0.264,-0.716 -0.692,-0.76 0.096,0.464 0.184,0.924 0.24,1.4160004 z m -1.548,-0.9240004 c 0,0.54 0.516,0.9880004 1.056,0.9880004 0.112,0 0.22,-0.008 0.328,-0.024 -0.056,-0.5080004 -0.148,-0.9800004 -0.252,-1.4560004 -0.316,0.032 -0.496,0.244 -0.496,0.476 0,0.176 0.1,0.364 0.324,0.492 0.02,0.02 0.028,0.04 0.028,0.06 0,0.044 -0.04,0.088 -0.088,0.088 -0.012,0 -0.024,-0.004 -0.036,-0.008 -0.32,-0.172 -0.468,-0.46 -0.468,-0.74 0,-0.352 0.232,-0.696 0.64,-0.788 -0.056,-0.232 -0.116,-0.468 -0.184,-0.7 -0.428,0.484 -0.852,0.972 -0.852,1.612 z m 1.044,1.1600004 c -0.752,0 -1.332,-0.6880004 -1.332,-1.4960004 0,-0.708 0.524,-1.224 0.992,-1.764 -0.076,-0.248 -0.148,-0.5 -0.18,-0.76 -0.024,-0.208 -0.028,-0.416 -0.028,-0.624 0,-0.46 0.22,-0.896 0.596,-1.168 0.024,-0.02 0.056,-0.02 0.08,0 0.284,0.336 0.532,0.98 0.532,1.432 0,0.572 -0.344,1.02 -0.72,1.456 0.084,0.272 0.156,0.552 0.224,0.828 0.016,0 0.036,-0.004 0.052,-0.004 0.62,0 1.024,0.512 1.024,1.044 0,0.304 -0.132,0.616 -0.428,0.8400004 -0.088,0.068 -0.188,0.112 -0.292,0.144 0.012,0.14 0.02,0.28 0.02,0.42 0,0.076 -0.004,0.156 -0.008,0.232 -0.028,0.476 -0.352,0.9 -0.808,0.912 l 0.004,-0.172 c 0.372,-0.008 0.612,-0.368 0.636,-0.764 0.004,-0.072 0.008,-0.148 0.008,-0.22 0,-0.124 -0.004,-0.244 -0.016,-0.368 -0.116,0.02 -0.232,0.032 -0.356,0.032 z m 0.372,-4.7120004 c 0,-0.22 -0.016,-0.316 -0.08,-0.516 -0.396,0.192 -0.648,0.596 -0.648,1.036 0,0.296 0.072,0.532 0.144,0.776 0.32,-0.388 0.584,-0.792 0.584,-1.296 z"
     id="path726"
     inkscape:connector-curvature="0"
     style="fill:currentColor;stroke-width:0.004" />
  <a
     style="color:inherit"
     xlink:href="textedit:///home/valentin/Programming/WebstormProjects/fett/lilypond/m2_c_major_intern_solfege.ly:25:23:24"
     id="a728"
     transform="translate(-13.656633,-2.6995384)" />
  <path
     d="m 7.0057674,8.1973616 c -0.196,0 -0.3,-0.168 -0.3,-0.3 0,-0.152 0.108,-0.308 0.288,-0.308 0.016,0 0.036,0 0.056,0.004 -0.112,-0.148 -0.288,-0.236 -0.48,-0.236 -0.424,0 -0.452,0.292 -0.452,0.744 v 0.204 0.204 c 0,0.452 0.028,0.748 0.452,0.748 0.32,0 0.556,-0.28 0.632,-0.604 0.008,-0.028 0.028,-0.04 0.048,-0.04 0.024,0 0.052,0.016 0.052,0.048 0,0.376 -0.42,0.696 -0.732,0.696 -0.272,0 -0.548,-0.084 -0.736,-0.28 -0.196,-0.204 -0.264,-0.488 -0.264,-0.772 0,-0.284 0.068,-0.568 0.264,-0.772 0.188,-0.196 0.464,-0.276 0.736,-0.276 0.348,0 0.64,0.252 0.7,0.596 0.004,0.02 0.004,0.04 0.004,0.056 0,0.16 -0.12,0.288 -0.268,0.288 z"
     id="path730"
     inkscape:connector-curvature="0"
     style="fill:currentColor;stroke-width:0.004" />
  <a
     style="color:inherit"
     xlink:href="textedit:///home/valentin/Programming/WebstormProjects/fett/lilypond/m2_c_major_intern_solfege.ly:33:6:7"
     id="a736"
     transform="translate(-13.656633,-2.6995384)">
    <text
       transform="translate(22.9264,5.6207)"
       font-size="2.4696"
       id="text734"
       style="font-size:2.46959996px;font-family:'Century Schoolbook L';text-anchor:start;fill:currentColor">
      <tspan
         id="tspan732">I</tspan>
    </text>
  </a>
  <a
     style="color:inherit"
     xlink:href="textedit:///home/valentin/Programming/WebstormProjects/fett/lilypond/m2_c_major_intern_solfege.ly:25:37:38"
     id="a740"
     transform="translate(-13.656633,-2.6995384)">
    <path
       transform="translate(25.5744,12.0049)"
       d="M 0,0 H 0.55688705 L 1.7333576,-2 h -0.556887 z"
       id="path738"
       inkscape:connector-curvature="0"
       style="fill:currentColor;stroke:currentColor;stroke-width:0;stroke-linecap:round;stroke-linejoin:round" />
  </a>
  <a
     style="color:inherit"
     xlink:href="textedit:///home/valentin/Programming/WebstormProjects/fett/lilypond/m2_c_major_intern_solfege.ly:25:50:51"
     id="a744"
     transform="translate(-13.656633,-2.6995384)">
    <path
       transform="matrix(0.004,0,0,-0.004,55.4588,10.0049)"
       d="m 215,112 c -50,0 -69,-43 -69,-88 0,-77 57,-136 134,-136 50,0 69,43 69,88 0,77 -57,136 -134,136 z M 495,0 c 0,-43 -35,-76 -73,-97 -53,-30 -113,-41 -174,-41 -61,0 -122,11 -175,41 -38,21 -73,54 -73,97 0,43 35,76 73,97 53,30 114,41 175,41 61,0 121,-11 174,-41 38,-21 73,-54 73,-97 z"
       id="path742"
       inkscape:connector-curvature="0"
       style="fill:currentColor" />
  </a>
  <a
     style="color:inherit"
     xlink:href="textedit:///home/valentin/Programming/WebstormProjects/fett/lilypond/m2_c_major_intern_solfege.ly:30:11:12"
     id="a750"
     transform="translate(-13.656633,-2.6995384)">
    <text
       transform="translate(47.2907,16.5049)"
       font-size="2.4696"
       id="text748"
       style="font-size:2.46959996px;font-family:'Century Schoolbook L';text-anchor:start;fill:currentColor">
      <tspan
         id="tspan746">Re</tspan>
    </text>
  </a>
  <a
     style="color:inherit"
     xlink:href="textedit:///home/valentin/Programming/WebstormProjects/fett/lilypond/m2_c_major_intern_solfege.ly:33:15:16"
     id="a756"
     transform="translate(-13.656633,-2.6995384)">
    <text
       transform="translate(47.2907,5.6207)"
       font-size="2.4696"
       id="text754"
       style="font-size:2.46959996px;font-family:'Century Schoolbook L';text-anchor:start;fill:currentColor">
      <tspan
         id="tspan752">I</tspan>
    </text>
  </a>
  <a
     style="color:inherit"
     xlink:href="textedit:///home/valentin/Programming/WebstormProjects/fett/lilypond/m2_c_major_intern_solfege.ly:30:14:15"
     id="a762"
     transform="translate(-13.656633,-2.6995384)">
    <text
       transform="translate(55.4588,16.5049)"
       font-size="2.4696"
       id="text760"
       style="font-size:2.46959996px;font-family:'Century Schoolbook L';text-anchor:start;fill:currentColor">
      <tspan
         id="tspan758">Re</tspan>
    </text>
  </a>
  <a
     style="color:inherit"
     xlink:href="textedit:///home/valentin/Programming/WebstormProjects/fett/lilypond/m2_c_major_intern_solfege.ly:25:37:38"
     id="a766"
     transform="translate(-13.656633,-2.6995384)">
    <path
       transform="translate(42.5527,12.0049)"
       d="M 0,0 H 0.55688705 L 1.7333576,-2 h -0.556887 z"
       id="path764"
       inkscape:connector-curvature="0"
       style="fill:currentColor;stroke:currentColor;stroke-width:0;stroke-linecap:round;stroke-linejoin:round" />
  </a>
  <a
     style="color:inherit"
     xlink:href="textedit:///home/valentin/Programming/WebstormProjects/fett/lilypond/m2_c_major_intern_solfege.ly:25:37:38"
     id="a770"
     transform="translate(-13.656633,-2.6995384)">
    <path
       transform="translate(39.9046,12.0049)"
       d="M 0,0 H 0.55688705 L 1.7333576,-2 h -0.556887 z"
       id="path768"
       inkscape:connector-curvature="0"
       style="fill:currentColor;stroke:currentColor;stroke-width:0;stroke-linecap:round;stroke-linejoin:round" />
  </a>
  <a
     style="color:inherit"
     xlink:href="textedit:///home/valentin/Programming/WebstormProjects/fett/lilypond/m2_c_major_intern_solfege.ly:33:13:14"
     id="a776"
     transform="translate(-13.656633,-2.6995384)">
    <text
       transform="translate(39.9046,5.6207)"
       font-size="2.4696"
       id="text774"
       style="font-size:2.46959996px;font-family:'Century Schoolbook L';text-anchor:start;fill:currentColor">
      <tspan
         id="tspan772">V</tspan>
    </text>
  </a>
  <a
     style="color:inherit"
     xlink:href="textedit:///home/valentin/Programming/WebstormProjects/fett/lilypond/m2_c_major_intern_solfege.ly:21:12:13"
     id="a794"
     transform="translate(-13.656633,-2.6995384)">
    <text
       transform="translate(39.9046,8.4207)"
       font-size="2.6163"
       id="text780"
       style="font-size:2.61630011px;font-family:sans-serif;text-anchor:start;fill:currentColor">
      <tspan
         id="tspan778">G</tspan>
    </text>
    <text
       transform="translate(41.9191,8.4207)"
       font-size="2.6163"
       id="text784"
       style="font-size:2.61630011px;font-family:sans-serif;text-anchor:start;fill:currentColor">
      <tspan
         id="tspan782" />
    </text>
    <text
       transform="translate(41.9191,8.4207)"
       font-size="2.6163"
       id="text788"
       style="font-size:2.61630011px;font-family:sans-serif;text-anchor:start;fill:currentColor">
      <tspan
         id="tspan786" />
    </text>
    <text
       transform="translate(41.9191,6.9207)"
       font-size="1.8500"
       id="text792"
       style="font-size:1.85000002px;font-family:sans-serif;text-anchor:start;fill:currentColor">
      <tspan
         id="tspan790" />
    </text>
  </a>
  <a
     style="color:inherit"
     xlink:href="textedit:///home/valentin/Programming/WebstormProjects/fett/lilypond/m2_c_major_intern_solfege.ly:21:15:16"
     id="a812"
     transform="translate(-13.656633,-2.6995384)">
    <text
       transform="translate(47.2907,8.4207)"
       font-size="2.6163"
       id="text798"
       style="font-size:2.61630011px;font-family:sans-serif;text-anchor:start;fill:currentColor">
      <tspan
         id="tspan796">C</tspan>
    </text>
    <text
       transform="translate(49.1344,8.4207)"
       font-size="2.6163"
       id="text802"
       style="font-size:2.61630011px;font-family:sans-serif;text-anchor:start;fill:currentColor">
      <tspan
         id="tspan800" />
    </text>
    <text
       transform="translate(49.1344,8.4207)"
       font-size="2.6163"
       id="text806"
       style="font-size:2.61630011px;font-family:sans-serif;text-anchor:start;fill:currentColor">
      <tspan
         id="tspan804" />
    </text>
    <text
       transform="translate(49.1344,6.9207)"
       font-size="1.8500"
       id="text810"
       style="font-size:1.85000002px;font-family:sans-serif;text-anchor:start;fill:currentColor">
      <tspan
         id="tspan808" />
    </text>
  </a>
  <a
     style="color:inherit"
     xlink:href="textedit:///home/valentin/Programming/WebstormProjects/fett/lilypond/m2_c_major_intern_solfege.ly:25:46:47"
     id="a816"
     transform="translate(-13.656633,-2.6995384)">
    <path
       transform="matrix(0.004,0,0,-0.004,47.2907,10.0049)"
       d="m 215,112 c -50,0 -69,-43 -69,-88 0,-77 57,-136 134,-136 50,0 69,43 69,88 0,77 -57,136 -134,136 z M 495,0 c 0,-43 -35,-76 -73,-97 -53,-30 -113,-41 -174,-41 -61,0 -122,11 -175,41 -38,21 -73,54 -73,97 0,43 35,76 73,97 53,30 114,41 175,41 61,0 121,-11 174,-41 38,-21 73,-54 73,-97 z"
       id="path814"
       inkscape:connector-curvature="0"
       style="fill:currentColor" />
  </a>
</svg>
