<?xml version="1.0" encoding="UTF-8" standalone="no"?>
<svg
   xmlns:dc="http://purl.org/dc/elements/1.1/"
   xmlns:cc="http://creativecommons.org/ns#"
   xmlns:rdf="http://www.w3.org/1999/02/22-rdf-syntax-ns#"
   xmlns:svg="http://www.w3.org/2000/svg"
   xmlns="http://www.w3.org/2000/svg"
   xmlns:sodipodi="http://sodipodi.sourceforge.net/DTD/sodipodi-0.dtd"
   xmlns:inkscape="http://www.inkscape.org/namespaces/inkscape"
   version="1.2"
   width="170.45819mm"
   height="22.325241mm"
   viewBox="0 0 97.000126 12.704295"
   id="svg254"
   sodipodi:docname="m2_c_major_intern_solfege.svg"
   inkscape:version="0.92.4 (5da689c313, 2019-01-14)">
  <metadata
     id="metadata260">
    <rdf:RDF>
      <cc:Work
         rdf:about="">
        <dc:format>image/svg+xml</dc:format>
        <dc:type
           rdf:resource="http://purl.org/dc/dcmitype/StillImage" />
        <dc:title></dc:title>
      </cc:Work>
    </rdf:RDF>
  </metadata>
  <defs
     id="defs258" />
  <sodipodi:namedview
     pagecolor="#ffffff"
     bordercolor="#666666"
     borderopacity="1"
     objecttolerance="10"
     gridtolerance="10"
     guidetolerance="10"
     inkscape:pageopacity="0"
     inkscape:pageshadow="2"
     inkscape:window-width="1920"
     inkscape:window-height="1023"
     id="namedview256"
     showgrid="false"
     fit-margin-top="0"
     fit-margin-left="0"
     fit-margin-right="0"
     fit-margin-bottom="0"
     inkscape:zoom="0.2102413"
     inkscape:cx="311.87969"
     inkscape:cy="-451.39224"
     inkscape:window-x="0"
     inkscape:window-y="31"
     inkscape:window-maximized="1"
     inkscape:current-layer="svg254" />
  <!-- Page: 1/1 -->
  <text
     font-size="2.2001"
     id="text4"
     style="font-size:2.20009995px;font-family:'Century Schoolbook L';text-anchor:start;fill:currentColor"
     x="-8.5350876"
     y="-0.99234885">
    <tspan
       id="tspan2" />
  </text>
  <text
     font-size="2.6163"
     id="text44"
     style="font-size:2.61630011px;font-family:sans-serif;text-anchor:start;fill:currentColor"
     x="67.581009"
     y="4.5830512">
    <tspan
       id="tspan42" />
  </text>
  <text
     font-size="2.6163"
     id="text48"
     style="font-size:2.61630011px;font-family:sans-serif;text-anchor:start;fill:currentColor"
     x="67.581009"
     y="4.5830512">
    <tspan
       id="tspan46" />
  </text>
  <text
     font-size="1.8500"
     id="text52"
     style="font-size:1.85000002px;font-family:sans-serif;text-anchor:start;fill:currentColor"
     x="67.581009"
     y="3.0830512">
    <tspan
       id="tspan50" />
  </text>
  <text
     font-size="2.6163"
     id="text78"
     style="font-size:2.61630011px;font-family:sans-serif;text-anchor:start;fill:currentColor"
     x="51.244812"
     y="4.5830512">
    <tspan
       id="tspan76" />
  </text>
  <text
     font-size="2.6163"
     id="text82"
     style="font-size:2.61630011px;font-family:sans-serif;text-anchor:start;fill:currentColor"
     x="51.244812"
     y="4.5830512">
    <tspan
       id="tspan80" />
  </text>
  <text
     font-size="1.8500"
     id="text86"
     style="font-size:1.85000002px;font-family:sans-serif;text-anchor:start;fill:currentColor"
     x="51.244812"
     y="3.0830512">
    <tspan
       id="tspan84" />
  </text>
  <text
     font-size="2.6163"
     id="text108"
     style="font-size:2.61630011px;font-family:sans-serif;text-anchor:start;fill:currentColor"
     x="83.917114"
     y="4.5830512">
    <tspan
       id="tspan106" />
  </text>
  <text
     font-size="2.6163"
     id="text112"
     style="font-size:2.61630011px;font-family:sans-serif;text-anchor:start;fill:currentColor"
     x="83.917114"
     y="4.5830512">
    <tspan
       id="tspan110" />
  </text>
  <text
     font-size="1.8500"
     id="text116"
     style="font-size:1.85000002px;font-family:sans-serif;text-anchor:start;fill:currentColor"
     x="83.917114"
     y="3.0830512">
    <tspan
       id="tspan114" />
  </text>
  <text
     font-size="2.6163"
     id="text144"
     style="font-size:2.61630011px;font-family:sans-serif;text-anchor:start;fill:currentColor"
     x="21.885113"
     y="4.5830512">
    <tspan
       id="tspan142" />
  </text>
  <text
     font-size="2.6163"
     id="text148"
     style="font-size:2.61630011px;font-family:sans-serif;text-anchor:start;fill:currentColor"
     x="21.885113"
     y="4.5830512">
    <tspan
       id="tspan146" />
  </text>
  <text
     font-size="1.8500"
     id="text152"
     style="font-size:1.85000002px;font-family:sans-serif;text-anchor:start;fill:currentColor"
     x="21.885113"
     y="3.0830512">
    <tspan
       id="tspan150" />
  </text>
  <text
     font-size="2.6163"
     id="text168"
     style="font-size:2.61630011px;font-family:sans-serif;text-anchor:start;fill:currentColor"
     x="10.544412"
     y="4.5830512">
    <tspan
       id="tspan166" />
  </text>
  <text
     font-size="2.6163"
     id="text172"
     style="font-size:2.61630011px;font-family:sans-serif;text-anchor:start;fill:currentColor"
     x="10.544412"
     y="4.5830512">
    <tspan
       id="tspan170" />
  </text>
  <text
     font-size="1.8500"
     id="text176"
     style="font-size:1.85000002px;font-family:sans-serif;text-anchor:start;fill:currentColor"
     x="10.544412"
     y="3.0830512">
    <tspan
       id="tspan174" />
  </text>
  <text
     font-size="2.6163"
     id="text218"
     style="font-size:2.61630011px;font-family:sans-serif;text-anchor:start;fill:currentColor"
     x="27.693413"
     y="4.5830512">
    <tspan
       id="tspan216" />
  </text>
  <text
     font-size="2.6163"
     id="text222"
     style="font-size:2.61630011px;font-family:sans-serif;text-anchor:start;fill:currentColor"
     x="27.693413"
     y="4.5830512">
    <tspan
       id="tspan220" />
  </text>
  <text
     font-size="1.8500"
     id="text226"
     style="font-size:1.85000002px;font-family:sans-serif;text-anchor:start;fill:currentColor"
     x="27.693413"
     y="3.0830512">
    <tspan
       id="tspan224" />
  </text>
  <text
     font-size="2.6163"
     id="text234"
     style="font-size:2.61630011px;font-family:sans-serif;text-anchor:start;fill:currentColor"
     x="34.90871"
     y="4.5830512">
    <tspan
       id="tspan232" />
  </text>
  <text
     font-size="2.6163"
     id="text238"
     style="font-size:2.61630011px;font-family:sans-serif;text-anchor:start;fill:currentColor"
     x="34.90871"
     y="4.5830512">
    <tspan
       id="tspan236" />
  </text>
  <text
     font-size="1.8500"
     id="text242"
     style="font-size:1.85000002px;font-family:sans-serif;text-anchor:start;fill:currentColor"
     x="34.90871"
     y="3.0830512">
    <tspan
       id="tspan240" />
  </text>
  <g
     id="g340"
     transform="translate(-14.225688,-3.8376488)">
    <rect
       id="rect6"
       ry="0.0000"
       height="4"
       width="0.19"
       y="-2"
       x="0"
       transform="translate(86.041,11.0049)"
       style="fill:currentColor" />
    <rect
       id="rect8"
       ry="0.0000"
       height="4"
       width="0.19"
       y="-2"
       x="0"
       transform="translate(33.5185,11.0049)"
       style="fill:currentColor" />
    <rect
       id="rect10"
       ry="0.0000"
       height="4"
       width="0.19"
       y="-2"
       x="0"
       transform="translate(77.8729,11.0049)"
       style="fill:currentColor" />
    <rect
       id="rect12"
       ry="0.0000"
       height="4"
       width="0.19"
       y="-2"
       x="0"
       transform="translate(94.209,11.0049)"
       style="fill:currentColor" />
    <rect
       id="rect14"
       ry="0.0000"
       height="4"
       width="0.19"
       y="-2"
       x="0"
       transform="translate(102.3771,11.0049)"
       style="fill:currentColor" />
    <rect
       id="rect16"
       ry="0.0000"
       height="4"
       width="0.19"
       y="-2"
       x="0"
       transform="translate(45.2007,11.0049)"
       style="fill:currentColor" />
    <rect
       id="rect18"
       ry="0.0000"
       height="4"
       width="0.19"
       y="-2"
       x="0"
       transform="translate(69.7049,11.0049)"
       style="fill:currentColor" />
    <rect
       id="rect20"
       ry="0.0000"
       height="4"
       width="0.19"
       y="-2"
       x="0"
       transform="translate(111.0351,11.0049)"
       style="fill:currentColor" />
    <rect
       id="rect22"
       ry="0.0000"
       height="4"
       width="0.19"
       y="-2"
       x="0"
       transform="translate(110.5451,11.0049)"
       style="fill:currentColor" />
    <rect
       id="rect24"
       ry="0.0000"
       height="4"
       width="0.19"
       y="-2"
       x="0"
       transform="translate(61.5368,11.0049)"
       style="fill:currentColor" />
    <rect
       id="rect26"
       ry="0.0000"
       height="4"
       width="0.19"
       y="-2"
       x="0"
       transform="translate(53.3688,11.0049)"
       style="fill:currentColor" />
    <line
       id="line28"
       y2="0"
       x2="96.9487"
       y1="0"
       x1="0.050000001"
       transform="translate(14.2264,13.0049)"
       style="stroke:currentColor;stroke-width:0.1;stroke-linecap:round;stroke-linejoin:round" />
    <line
       id="line30"
       y2="0"
       x2="96.9487"
       y1="0"
       x1="0.050000001"
       transform="translate(14.2264,12.0049)"
       style="stroke:currentColor;stroke-width:0.1;stroke-linecap:round;stroke-linejoin:round" />
    <line
       id="line32"
       y2="0"
       x2="96.9487"
       y1="0"
       x1="0.050000001"
       transform="translate(14.2264,11.0049)"
       style="stroke:currentColor;stroke-width:0.1;stroke-linecap:round;stroke-linejoin:round" />
    <line
       id="line34"
       y2="0"
       x2="96.9487"
       y1="0"
       x1="0.050000001"
       transform="translate(14.2264,10.0049)"
       style="stroke:currentColor;stroke-width:0.1;stroke-linecap:round;stroke-linejoin:round" />
    <line
       id="line36"
       y2="0"
       x2="96.9487"
       y1="0"
       x1="0.050000001"
       transform="translate(14.2264,9.0049)"
       style="stroke:currentColor;stroke-width:0.1;stroke-linecap:round;stroke-linejoin:round" />
    <text
       id="text40"
       font-size="2.6163"
       transform="translate(79.9629,8.4207)"
       style="font-size:2.61630011px;font-family:sans-serif;text-anchor:start;fill:currentColor">
      <tspan
         id="tspan38">C</tspan>
    </text>
    <path
       id="path54"
       d="m 215,112 c -50,0 -69,-43 -69,-88 0,-77 57,-136 134,-136 50,0 69,43 69,88 0,77 -57,136 -134,136 z M 495,0 c 0,-43 -35,-76 -73,-97 -53,-30 -113,-41 -174,-41 -61,0 -122,11 -175,41 -38,21 -73,54 -73,97 0,43 35,76 73,97 53,30 114,41 175,41 61,0 121,-11 174,-41 38,-21 73,-54 73,-97 z"
       transform="matrix(0.004,0,0,-0.004,79.9629,10.0049)"
       inkscape:connector-curvature="0"
       style="fill:currentColor" />
    <text
       id="text58"
       font-size="2.4696"
       transform="translate(79.9629,16.5049)"
       style="font-size:2.46959996px;font-family:'Century Schoolbook L';text-anchor:start;fill:currentColor">
      <tspan
         id="tspan56">Re</tspan>
    </text>
    <text
       id="text62"
       font-size="2.4696"
       transform="translate(79.9629,5.6207)"
       style="font-size:2.46959996px;font-family:'Century Schoolbook L';text-anchor:start;fill:currentColor">
      <tspan
         id="tspan60">I</tspan>
    </text>
    <path
       id="path64"
       d="m 215,112 c -50,0 -69,-43 -69,-88 0,-77 57,-136 134,-136 50,0 69,43 69,88 0,77 -57,136 -134,136 z M 495,0 c 0,-43 -35,-76 -73,-97 -53,-30 -113,-41 -174,-41 -61,0 -122,11 -175,41 -38,21 -73,54 -73,97 0,43 35,76 73,97 53,30 114,41 175,41 61,0 121,-11 174,-41 38,-21 73,-54 73,-97 z"
       transform="matrix(0.004,0,0,-0.004,63.6268,10.0049)"
       inkscape:connector-curvature="0"
       style="fill:currentColor" />
    <path
       id="path66"
       d="m 215,112 c -50,0 -69,-43 -69,-88 0,-77 57,-136 134,-136 50,0 69,43 69,88 0,77 -57,136 -134,136 z M 495,0 c 0,-43 -35,-76 -73,-97 -53,-30 -113,-41 -174,-41 -61,0 -122,11 -175,41 -38,21 -73,54 -73,97 0,43 35,76 73,97 53,30 114,41 175,41 61,0 121,-11 174,-41 38,-21 73,-54 73,-97 z"
       transform="matrix(0.004,0,0,-0.004,88.131,10.0049)"
       inkscape:connector-curvature="0"
       style="fill:currentColor" />
    <text
       id="text70"
       font-size="2.4696"
       transform="translate(88.131,16.5049)"
       style="font-size:2.46959996px;font-family:'Century Schoolbook L';text-anchor:start;fill:currentColor">
      <tspan
         id="tspan68">Re</tspan>
    </text>
    <text
       id="text74"
       font-size="2.6163"
       transform="translate(63.6268,8.4207)"
       style="font-size:2.61630011px;font-family:sans-serif;text-anchor:start;fill:currentColor">
      <tspan
         id="tspan72">C</tspan>
    </text>
    <path
       id="path88"
       d="m 215,112 c -50,0 -69,-43 -69,-88 0,-77 57,-136 134,-136 50,0 69,43 69,88 0,77 -57,136 -134,136 z M 495,0 c 0,-43 -35,-76 -73,-97 -53,-30 -113,-41 -174,-41 -61,0 -122,11 -175,41 -38,21 -73,54 -73,97 0,43 35,76 73,97 53,30 114,41 175,41 61,0 121,-11 174,-41 38,-21 73,-54 73,-97 z"
       transform="matrix(0.004,0,0,-0.004,71.7949,10.0049)"
       inkscape:connector-curvature="0"
       style="fill:currentColor" />
    <text
       id="text92"
       font-size="2.4696"
       transform="translate(71.7949,16.5049)"
       style="font-size:2.46959996px;font-family:'Century Schoolbook L';text-anchor:start;fill:currentColor">
      <tspan
         id="tspan90">Re</tspan>
    </text>
    <text
       id="text96"
       font-size="2.4696"
       transform="translate(63.6268,5.6207)"
       style="font-size:2.46959996px;font-family:'Century Schoolbook L';text-anchor:start;fill:currentColor">
      <tspan
         id="tspan94">I</tspan>
    </text>
    <text
       id="text100"
       font-size="2.4696"
       transform="translate(63.6268,16.5049)"
       style="font-size:2.46959996px;font-family:'Century Schoolbook L';text-anchor:start;fill:currentColor">
      <tspan
         id="tspan98">Re</tspan>
    </text>
    <text
       id="text104"
       font-size="2.6163"
       transform="translate(96.299,8.4207)"
       style="font-size:2.61630011px;font-family:sans-serif;text-anchor:start;fill:currentColor">
      <tspan
         id="tspan102">C</tspan>
    </text>
    <path
       id="path118"
       d="m 215,112 c -50,0 -69,-43 -69,-88 0,-77 57,-136 134,-136 50,0 69,43 69,88 0,77 -57,136 -134,136 z M 495,0 c 0,-43 -35,-76 -73,-97 -53,-30 -113,-41 -174,-41 -61,0 -122,11 -175,41 -38,21 -73,54 -73,97 0,43 35,76 73,97 53,30 114,41 175,41 61,0 121,-11 174,-41 38,-21 73,-54 73,-97 z"
       transform="matrix(0.004,0,0,-0.004,96.299,10.0049)"
       inkscape:connector-curvature="0"
       style="fill:currentColor" />
    <text
       id="text122"
       font-size="2.4696"
       transform="translate(96.299,16.5049)"
       style="font-size:2.46959996px;font-family:'Century Schoolbook L';text-anchor:start;fill:currentColor">
      <tspan
         id="tspan120">Re</tspan>
    </text>
    <text
       id="text126"
       font-size="2.4696"
       transform="translate(96.299,5.6207)"
       style="font-size:2.46959996px;font-family:'Century Schoolbook L';text-anchor:start;fill:currentColor">
      <tspan
         id="tspan124">I</tspan>
    </text>
    <path
       id="path128"
       d="m 215,112 c -50,0 -69,-43 -69,-88 0,-77 57,-136 134,-136 50,0 69,43 69,88 0,77 -57,136 -134,136 z M 495,0 c 0,-43 -35,-76 -73,-97 -53,-30 -113,-41 -174,-41 -61,0 -122,11 -175,41 -38,21 -73,54 -73,97 0,43 35,76 73,97 53,30 114,41 175,41 61,0 121,-11 174,-41 38,-21 73,-54 73,-97 z"
       transform="matrix(0.004,0,0,-0.004,104.4671,10.0049)"
       inkscape:connector-curvature="0"
       style="fill:currentColor" />
    <text
       id="text132"
       font-size="2.4696"
       transform="translate(104.4671,16.5049)"
       style="font-size:2.46959996px;font-family:'Century Schoolbook L';text-anchor:start;fill:currentColor">
      <tspan
         id="tspan130">Re</tspan>
    </text>
    <path
       id="path134"
       d="M 0,0 H 0.55688705 L 1.7333576,-2 h -0.556887 z"
       transform="translate(28.2225,12.0049)"
       inkscape:connector-curvature="0"
       style="fill:currentColor;stroke:currentColor;stroke-width:0;stroke-linecap:round;stroke-linejoin:round" />
    <path
       id="path136"
       d="M 0,0 H 0.55688705 L 1.7333576,-2 h -0.556887 z"
       transform="translate(30.8705,12.0049)"
       inkscape:connector-curvature="0"
       style="fill:currentColor;stroke:currentColor;stroke-width:0;stroke-linecap:round;stroke-linejoin:round" />
    <text
       id="text140"
       font-size="2.6163"
       transform="translate(34.6085,8.4207)"
       style="font-size:2.61630011px;font-family:sans-serif;text-anchor:start;fill:currentColor">
      <tspan
         id="tspan138">F</tspan>
    </text>
    <path
       id="path154"
       d="M 0,0 H 0.55688705 L 1.7333576,-2 h -0.556887 z"
       transform="translate(34.6085,12.0049)"
       inkscape:connector-curvature="0"
       style="fill:currentColor;stroke:currentColor;stroke-width:0;stroke-linecap:round;stroke-linejoin:round" />
    <text
       id="text158"
       font-size="2.4696"
       transform="translate(34.6085,5.6207)"
       style="font-size:2.46959996px;font-family:'Century Schoolbook L';text-anchor:start;fill:currentColor">
      <tspan
         id="tspan156">IV</tspan>
    </text>
    <path
       id="path160"
       d="M 0,0 H 0.55688705 L 1.7333576,-2 h -0.556887 z"
       transform="translate(37.2566,12.0049)"
       inkscape:connector-curvature="0"
       style="fill:currentColor;stroke:currentColor;stroke-width:0;stroke-linecap:round;stroke-linejoin:round" />
    <text
       id="text164"
       font-size="2.6163"
       transform="translate(22.9264,8.4207)"
       style="font-size:2.61630011px;font-family:sans-serif;text-anchor:start;fill:currentColor">
      <tspan
         id="tspan162">C</tspan>
    </text>
    <path
       id="path178"
       d="M 0,0 H 0.55688705 L 1.7333576,-2 h -0.556887 z"
       transform="translate(22.9264,12.0049)"
       inkscape:connector-curvature="0"
       style="fill:currentColor;stroke:currentColor;stroke-width:0;stroke-linecap:round;stroke-linejoin:round" />
    <path
       id="path180"
       d="m 266,-635 h -6 c -108,0 -195,88 -195,197 0,58 53,103 112,103 54,0 95,-47 95,-103 0,-52 -43,-95 -95,-95 -11,0 -21,2 -31,6 26,-39 68,-65 117,-65 h 4 z m 195,432 c 68,24 113,95 113,164 0,90 -66,179 -173,190 24,-116 46,-231 60,-354 z M 74,28 c 0,-135 129,-247 264,-247 28,0 55,2 82,6 C 406,-86 383,32 357,151 278,143 233,90 233,32 c 0,-44 25,-91 81,-123 5,-5 7,-10 7,-15 0,-11 -10,-22 -22,-22 -3,0 -6,1 -9,2 -80,43 -117,115 -117,185 0,88 58,174 160,197 -14,58 -29,117 -46,175 C 180,310 74,188 74,28 Z M 335,-262 C 147,-262 2,-90 2,112 c 0,177 131,306 248,441 -19,62 -37,125 -45,190 -6,52 -7,104 -7,156 0,115 55,224 149,292 6,5 14,5 20,0 71,-84 133,-245 133,-358 0,-143 -86,-255 -180,-364 21,-68 39,-138 56,-207 4,0 9,1 13,1 155,0 256,-128 256,-261 0,-76 -33,-154 -107,-210 -22,-17 -47,-28 -73,-36 3,-35 5,-70 5,-105 0,-19 -1,-39 -2,-58 -7,-119 -88,-225 -202,-228 l 1,43 c 93,2 153,92 159,191 1,18 2,37 2,55 0,31 -1,61 -4,92 -29,-5 -58,-8 -89,-8 z m 93,1178 c 0,55 -4,79 -20,129 -99,-48 -162,-149 -162,-259 0,-74 18,-133 36,-194 80,97 146,198 146,324 z"
       transform="matrix(0.004,0,0,-0.004,15.0264,12.0049)"
       inkscape:connector-curvature="0"
       style="fill:currentColor" />
    <path
       id="path182"
       d="m 359,27 c -49,0 -75,42 -75,75 0,38 27,77 72,77 4,0 9,0 14,-1 -28,37 -72,59 -120,59 C 144,237 137,164 137,51 V 0 -51 c 0,-113 7,-187 113,-187 80,0 139,70 158,151 2,7 7,10 12,10 6,0 13,-4 13,-12 0,-94 -105,-174 -183,-174 -68,0 -137,21 -184,70 C 17,-142 0,-71 0,0 c 0,71 17,142 66,193 47,49 116,69 184,69 87,0 160,-63 175,-149 1,-5 1,-10 1,-14 0,-40 -30,-72 -67,-72 z"
       transform="matrix(0.004,0,0,-0.004,19.2264,11.0049)"
       inkscape:connector-curvature="0"
       style="fill:currentColor" />
    <text
       id="text186"
       font-size="2.4696"
       transform="translate(22.9264,5.6207)"
       style="font-size:2.46959996px;font-family:'Century Schoolbook L';text-anchor:start;fill:currentColor">
      <tspan
         id="tspan184">I</tspan>
    </text>
    <path
       id="path188"
       d="M 0,0 H 0.55688705 L 1.7333576,-2 h -0.556887 z"
       transform="translate(25.5744,12.0049)"
       inkscape:connector-curvature="0"
       style="fill:currentColor;stroke:currentColor;stroke-width:0;stroke-linecap:round;stroke-linejoin:round" />
    <path
       id="path190"
       d="m 215,112 c -50,0 -69,-43 -69,-88 0,-77 57,-136 134,-136 50,0 69,43 69,88 0,77 -57,136 -134,136 z M 495,0 c 0,-43 -35,-76 -73,-97 -53,-30 -113,-41 -174,-41 -61,0 -122,11 -175,41 -38,21 -73,54 -73,97 0,43 35,76 73,97 53,30 114,41 175,41 61,0 121,-11 174,-41 38,-21 73,-54 73,-97 z"
       transform="matrix(0.004,0,0,-0.004,55.4588,10.0049)"
       inkscape:connector-curvature="0"
       style="fill:currentColor" />
    <text
       id="text194"
       font-size="2.4696"
       transform="translate(47.2907,16.5049)"
       style="font-size:2.46959996px;font-family:'Century Schoolbook L';text-anchor:start;fill:currentColor">
      <tspan
         id="tspan192">Re</tspan>
    </text>
    <text
       id="text198"
       font-size="2.4696"
       transform="translate(47.2907,5.6207)"
       style="font-size:2.46959996px;font-family:'Century Schoolbook L';text-anchor:start;fill:currentColor">
      <tspan
         id="tspan196">I</tspan>
    </text>
    <text
       id="text202"
       font-size="2.4696"
       transform="translate(55.4588,16.5049)"
       style="font-size:2.46959996px;font-family:'Century Schoolbook L';text-anchor:start;fill:currentColor">
      <tspan
         id="tspan200">Re</tspan>
    </text>
    <path
       id="path204"
       d="M 0,0 H 0.55688705 L 1.7333576,-2 h -0.556887 z"
       transform="translate(42.5527,12.0049)"
       inkscape:connector-curvature="0"
       style="fill:currentColor;stroke:currentColor;stroke-width:0;stroke-linecap:round;stroke-linejoin:round" />
    <path
       id="path206"
       d="M 0,0 H 0.55688705 L 1.7333576,-2 h -0.556887 z"
       transform="translate(39.9046,12.0049)"
       inkscape:connector-curvature="0"
       style="fill:currentColor;stroke:currentColor;stroke-width:0;stroke-linecap:round;stroke-linejoin:round" />
    <text
       id="text210"
       font-size="2.4696"
       transform="translate(39.9046,5.6207)"
       style="font-size:2.46959996px;font-family:'Century Schoolbook L';text-anchor:start;fill:currentColor">
      <tspan
         id="tspan208">V</tspan>
    </text>
    <text
       id="text214"
       font-size="2.6163"
       transform="translate(39.9046,8.4207)"
       style="font-size:2.61630011px;font-family:sans-serif;text-anchor:start;fill:currentColor">
      <tspan
         id="tspan212">G</tspan>
    </text>
    <text
       id="text230"
       font-size="2.6163"
       transform="translate(47.2907,8.4207)"
       style="font-size:2.61630011px;font-family:sans-serif;text-anchor:start;fill:currentColor">
      <tspan
         id="tspan228">C</tspan>
    </text>
    <path
       id="path244"
       d="m 215,112 c -50,0 -69,-43 -69,-88 0,-77 57,-136 134,-136 50,0 69,43 69,88 0,77 -57,136 -134,136 z M 495,0 c 0,-43 -35,-76 -73,-97 -53,-30 -113,-41 -174,-41 -61,0 -122,11 -175,41 -38,21 -73,54 -73,97 0,43 35,76 73,97 53,30 114,41 175,41 61,0 121,-11 174,-41 38,-21 73,-54 73,-97 z"
       transform="matrix(0.004,0,0,-0.004,47.2907,10.0049)"
       inkscape:connector-curvature="0"
       style="fill:currentColor" />
  </g>
</svg>
