<?xml version="1.0" encoding="UTF-8" standalone="no"?>
<svg
   xmlns:dc="http://purl.org/dc/elements/1.1/"
   xmlns:cc="http://creativecommons.org/ns#"
   xmlns:rdf="http://www.w3.org/1999/02/22-rdf-syntax-ns#"
   xmlns:svg="http://www.w3.org/2000/svg"
   xmlns="http://www.w3.org/2000/svg"
   xmlns:xlink="http://www.w3.org/1999/xlink"
   xmlns:sodipodi="http://sodipodi.sourceforge.net/DTD/sodipodi-0.dtd"
   xmlns:inkscape="http://www.inkscape.org/namespaces/inkscape"
   version="1.2"
   width="112.94598mm"
   height="30.034082mm"
   viewBox="0 0 49.440383 13.146959"
   id="svg230"
   sodipodi:docname="m2_f_major_solfege.svg"
   inkscape:version="0.92.4 (5da689c313, 2019-01-14)">
  <metadata
     id="metadata236">
    <rdf:RDF>
      <cc:Work
         rdf:about="">
        <dc:format>image/svg+xml</dc:format>
        <dc:type
           rdf:resource="http://purl.org/dc/dcmitype/StillImage" />
        <dc:title></dc:title>
      </cc:Work>
    </rdf:RDF>
  </metadata>
  <defs
     id="defs234" />
  <sodipodi:namedview
     pagecolor="#ffffff"
     bordercolor="#666666"
     borderopacity="1"
     objecttolerance="10"
     gridtolerance="10"
     guidetolerance="10"
     inkscape:pageopacity="0"
     inkscape:pageshadow="2"
     inkscape:window-width="1920"
     inkscape:window-height="1023"
     id="namedview232"
     showgrid="false"
     fit-margin-top="2"
     fit-margin-left="1"
     fit-margin-right="1"
     fit-margin-bottom="2"
     inkscape:zoom="1.1893044"
     inkscape:cx="279.76986"
     inkscape:cy="-40.107295"
     inkscape:window-x="0"
     inkscape:window-y="31"
     inkscape:window-maximized="1"
     inkscape:current-layer="svg230" />
  <!-- Page: 1/1 -->
  <text
     font-size="2.2002"
     id="text4"
     style="font-size:2.20020008px;font-family:'Century Schoolbook L';text-anchor:start;fill:currentColor"
     x="-6.1277614"
     y="-0.11670901">
    <tspan
       id="tspan2" />
  </text>
  <line
     x1="0.48073861"
     y1="8.1954908"
     x2="48.959637"
     y2="8.1954908"
     id="line6"
     style="stroke:currentColor;stroke-width:0.0848;stroke-linecap:round;stroke-linejoin:round" />
  <line
     x1="0.48073861"
     y1="7.1954908"
     x2="48.959637"
     y2="7.1954908"
     id="line8"
     style="stroke:currentColor;stroke-width:0.0848;stroke-linecap:round;stroke-linejoin:round" />
  <line
     x1="0.48073861"
     y1="6.1954908"
     x2="48.959637"
     y2="6.1954908"
     id="line10"
     style="stroke:currentColor;stroke-width:0.0848;stroke-linecap:round;stroke-linejoin:round" />
  <line
     x1="0.48073861"
     y1="5.1954908"
     x2="48.959637"
     y2="5.1954908"
     id="line12"
     style="stroke:currentColor;stroke-width:0.0848;stroke-linecap:round;stroke-linejoin:round" />
  <line
     x1="0.48073861"
     y1="4.1954908"
     x2="48.959637"
     y2="4.1954908"
     id="line14"
     style="stroke:currentColor;stroke-width:0.0848;stroke-linecap:round;stroke-linejoin:round" />
  <rect
     x="29.145538"
     y="4.1954908"
     width="0.1612"
     height="4"
     ry="0.0000"
     id="rect16"
     style="fill:currentColor" />
  <rect
     x="48.840836"
     y="4.1954908"
     width="0.1612"
     height="4"
     ry="0.0000"
     id="rect18"
     style="fill:currentColor" />
  <a
     style="color:inherit"
     xlink:href="textedit:///home/valentin/Programming/WebstormProjects/fett/lilypond/m2_f_major_solfege.ly:27:51:52"
     id="a24"
     transform="translate(-10.505062,-2.305409)">
    <text
       transform="translate(54.6168,14.0009)"
       font-size="2.4695"
       id="text22"
       style="font-size:2.46950006px;font-family:'Century Schoolbook L';text-anchor:start;fill:currentColor">
      <tspan
         id="tspan20">F</tspan>
    </text>
  </a>
  <a
     style="color:inherit"
     xlink:href="textedit:///home/valentin/Programming/WebstormProjects/fett/lilypond/m2_f_major_solfege.ly:22:63:64"
     id="a34"
     transform="translate(-10.505062,-2.305409)">
    <circle
       transform="translate(50.7593,7.0009)"
       r="0.5424"
       id="circle26"
       cx="0"
       cy="0"
       style="fill:currentColor;stroke:currentColor;stroke-width:0;stroke-linecap:round;stroke-linejoin:round" />
    <g
       id="g32"
       style="color:#ffffff">
      <text
         transform="translate(50.4572,7.3292)"
         font-weight="bold"
         font-size="0.8733"
         id="text30"
         style="font-weight:bold;font-size:0.87330002px;font-family:sans-serif;text-anchor:start;fill:currentColor">
        <tspan
           id="tspan28">7</tspan>
      </text>
    </g>
  </a>
  <a
     style="color:inherit"
     xlink:href="textedit:///home/valentin/Programming/WebstormProjects/fett/lilypond/m2_f_major_solfege.ly:27:49:50"
     id="a40"
     transform="translate(-10.505062,-2.305409)">
    <text
       transform="translate(49.8663,14.0009)"
       font-size="2.4695"
       id="text38"
       style="font-size:2.46950006px;font-family:'Century Schoolbook L';text-anchor:start;fill:currentColor">
      <tspan
         id="tspan36">E</tspan>
    </text>
  </a>
  <a
     style="color:inherit"
     xlink:href="textedit:///home/valentin/Programming/WebstormProjects/fett/lilypond/m2_f_major_solfege.ly:32:26:27"
     id="a46"
     transform="translate(-10.505062,-2.305409)">
    <text
       transform="translate(49.5117,5.0009)"
       font-size="2.4695"
       id="text44"
       style="font-size:2.46950006px;font-family:'Century Schoolbook L';text-anchor:start;fill:currentColor">
      <tspan
         id="tspan42">Ti</tspan>
    </text>
  </a>
  <rect
     x="39.711838"
     y="4.8259912"
     width="0.1103"
     height="3.3694999"
     ry="0.0308"
     id="rect48"
     style="fill:currentColor" />
  <a
     style="color:inherit"
     xlink:href="textedit:///home/valentin/Programming/WebstormProjects/fett/lilypond/m2_f_major_solfege.ly:22:65:66"
     id="a58"
     transform="translate(-10.505062,-2.305409)">
    <circle
       transform="translate(55.4441,6.5009)"
       r="0.5424"
       id="circle50"
       cx="0"
       cy="0"
       style="fill:currentColor;stroke:currentColor;stroke-width:0;stroke-linecap:round;stroke-linejoin:round" />
    <g
       id="g56"
       style="color:#ffffff">
      <text
         transform="translate(55.1421,6.8292)"
         font-weight="bold"
         font-size="0.8733"
         id="text54"
         style="font-weight:bold;font-size:0.87330002px;font-family:sans-serif;text-anchor:start;fill:currentColor">
        <tspan
           id="tspan52">1</tspan>
      </text>
    </g>
  </a>
  <rect
     x="35.027039"
     y="5.3259912"
     width="0.1103"
     height="3.3694999"
     ry="0.0308"
     id="rect60"
     style="fill:currentColor" />
  <a
     style="color:inherit"
     xlink:href="textedit:///home/valentin/Programming/WebstormProjects/fett/lilypond/m2_f_major_solfege.ly:32:23:24"
     id="a66"
     transform="translate(-10.505062,-2.305409)">
    <text
       transform="translate(44.5643,5.0009)"
       font-size="2.4695"
       id="text64"
       style="font-size:2.46950006px;font-family:'Century Schoolbook L';text-anchor:start;fill:currentColor">
      <tspan
         id="tspan62">La</tspan>
    </text>
  </a>
  <a
     style="color:inherit"
     xlink:href="textedit:///home/valentin/Programming/WebstormProjects/fett/lilypond/m2_f_major_solfege.ly:27:47:48"
     id="a72"
     transform="translate(-10.505062,-2.305409)">
    <text
       transform="translate(45.1158,14.0009)"
       font-size="2.4695"
       id="text70"
       style="font-size:2.46950006px;font-family:'Century Schoolbook L';text-anchor:start;fill:currentColor">
      <tspan
         id="tspan68">D</tspan>
    </text>
  </a>
  <a
     style="color:inherit"
     xlink:href="textedit:///home/valentin/Programming/WebstormProjects/fett/lilypond/m2_f_major_solfege.ly:22:61:62"
     id="a82"
     transform="translate(-10.505062,-2.305409)">
    <circle
       transform="translate(46.0744,7.5009)"
       r="0.5424"
       id="circle74"
       cx="0"
       cy="0"
       style="fill:currentColor;stroke:currentColor;stroke-width:0;stroke-linecap:round;stroke-linejoin:round" />
    <g
       id="g80"
       style="color:#ffffff">
      <text
         transform="translate(45.7724,7.8292)"
         font-weight="bold"
         font-size="0.8733"
         id="text78"
         style="font-weight:bold;font-size:0.87330002px;font-family:sans-serif;text-anchor:start;fill:currentColor">
        <tspan
           id="tspan76">6</tspan>
      </text>
    </g>
  </a>
  <a
     style="color:inherit"
     xlink:href="textedit:///home/valentin/Programming/WebstormProjects/fett/lilypond/m2_f_major_solfege.ly:32:29:30"
     id="a88"
     transform="translate(-10.505062,-2.305409)">
    <text
       transform="translate(53.8683,5.0009)"
       font-size="2.4695"
       id="text86"
       style="font-size:2.46950006px;font-family:'Century Schoolbook L';text-anchor:start;fill:currentColor">
      <tspan
         id="tspan84">Do</tspan>
    </text>
  </a>
  <rect
     x="44.396637"
     y="4.3259912"
     width="0.1103"
     height="3.3694999"
     ry="0.0308"
     id="rect90"
     style="fill:currentColor" />
  <a
     style="color:inherit"
     xlink:href="textedit:///home/valentin/Programming/WebstormProjects/fett/lilypond/m2_f_major_solfege.ly:32:11:12"
     id="a96"
     transform="translate(-10.505062,-2.305409)">
    <text
       transform="translate(24.7146,5.0009)"
       font-size="2.4695"
       id="text94"
       style="font-size:2.46950006px;font-family:'Century Schoolbook L';text-anchor:start;fill:currentColor">
      <tspan
         id="tspan92">Re</tspan>
    </text>
  </a>
  <a
     style="color:inherit"
     xlink:href="textedit:///home/valentin/Programming/WebstormProjects/fett/lilypond/m2_f_major_solfege.ly:27:10:11"
     id="a102"
     transform="translate(-10.505062,-2.305409)">
    <text
       transform="translate(25.2793,14.0009)"
       font-size="2.4695"
       id="text100"
       style="font-size:2.46950006px;font-family:'Century Schoolbook L';text-anchor:start;fill:currentColor">
      <tspan
         id="tspan98">G</tspan>
    </text>
  </a>
  <a
     style="color:inherit"
     xlink:href="textedit:///home/valentin/Programming/WebstormProjects/fett/lilypond/m2_f_major_solfege.ly:22:51:52"
     id="a112"
     transform="translate(-10.505062,-2.305409)">
    <circle
       transform="translate(26.2379,9.5009)"
       r="0.5424"
       id="circle104"
       cx="0"
       cy="0"
       style="fill:currentColor;stroke:currentColor;stroke-width:0;stroke-linecap:round;stroke-linejoin:round" />
    <g
       id="g110"
       style="color:#ffffff">
      <text
         transform="translate(25.9359,9.8292)"
         font-weight="bold"
         font-size="0.8733"
         id="text108"
         style="font-weight:bold;font-size:0.87330002px;font-family:sans-serif;text-anchor:start;fill:currentColor">
        <tspan
           id="tspan106">2</tspan>
      </text>
    </g>
  </a>
  <rect
     x="16.165039"
     y="3.6954911"
     width="0.1103"
     height="3.3694999"
     ry="0.0308"
     id="rect114"
     style="fill:currentColor" />
  <rect
     x="11.48024"
     y="4.1954908"
     width="0.1103"
     height="3.3694999"
     ry="0.0308"
     id="rect116"
     style="fill:currentColor" />
  <a
     style="color:inherit"
     xlink:href="textedit:///home/valentin/Programming/WebstormProjects/fett/lilypond/m2_f_major_solfege.ly:32:8:9"
     id="a122"
     transform="translate(-10.505062,-2.305409)">
    <text
       transform="translate(19.9772,5.0009)"
       font-size="2.4695"
       id="text120"
       style="font-size:2.46950006px;font-family:'Century Schoolbook L';text-anchor:start;fill:currentColor">
      <tspan
         id="tspan118">Do</tspan>
    </text>
  </a>
  <a
     style="color:inherit"
     xlink:href="textedit:///home/valentin/Programming/WebstormProjects/fett/lilypond/m2_f_major_solfege.ly:27:8:9"
     id="a128"
     transform="translate(-10.505062,-2.305409)">
    <text
       transform="translate(20.7258,14.0009)"
       font-size="2.4695"
       id="text126"
       style="font-size:2.46950006px;font-family:'Century Schoolbook L';text-anchor:start;fill:currentColor">
      <tspan
         id="tspan124">F</tspan>
    </text>
  </a>
  <path
     d="m 8.2320386,6.095491 c -0.204,0 -0.304,-0.172 -0.304,-0.308 0,-0.156 0.112,-0.312 0.296,-0.312 0.024,0 0.052,0 0.072,0.004 -0.116,-0.148 -0.304,-0.24 -0.504,-0.24 -0.424,0 -0.452,0.292 -0.452,0.74 0,0.068 0.004,0.14 0.004,0.216 0,0.076 -0.004,0.148 -0.004,0.216 0,0.448 0.028,0.74 0.452,0.74 0.328,0 0.58,-0.272 0.656,-0.604 0.004,-0.024 0.024,-0.036 0.04,-0.036 0.024,0 0.044,0.016 0.044,0.044 0,0.376 -0.428,0.684 -0.74,0.684 -0.272,0 -0.548,-0.08 -0.736,-0.276 -0.196,-0.204 -0.264,-0.488 -0.264,-0.768 0,-0.28 0.068,-0.564 0.264,-0.768 0.188,-0.196 0.464,-0.276 0.736,-0.276 0.352,0 0.652,0.248 0.712,0.592 0.004,0.02 0.008,0.036 0.008,0.056 0,0.16 -0.128,0.296 -0.28,0.296 z"
     id="path130"
     inkscape:connector-curvature="0"
     style="fill:currentColor;stroke-width:0.004" />
  <a
     style="color:inherit"
     xlink:href="textedit:///home/valentin/Programming/WebstormProjects/fett/lilypond/m2_f_major_solfege.ly:22:22:23"
     id="a134"
     transform="translate(-10.505062,-2.305409)">
    <path
       transform="matrix(0.004,0,0,-0.004,15.3471,8.5009)"
       d="m 25,44 -1,-69 c 0,-4 -1,-7 -1,-11 0,-22 2,-44 4,-66 46,38 96,80 96,139 0,34 -14,69 -44,69 C 48,106 26,77 25,44 Z m -50,419 c 8,4 16,7 25,7 9,0 17,-3 25,-7 L 19,114 c 26,19 56,30 88,30 53,0 93,-46 93,-100 0,-82 -90,-118 -153,-169 -14,-11 -22,-32 -40,-32 -12,0 -21,9 -21,21 z"
       id="path132"
       inkscape:connector-curvature="0"
       style="fill:currentColor" />
  </a>
  <path
     d="m 2.7343386,6.155491 c 0.02,0 0.04,-0.004 0.06,-0.004 0.616,0 1.016,0.508 1.016,1.036 0,0.304 -0.132,0.612 -0.428,0.832 -0.088,0.068 -0.188,0.116 -0.292,0.148 0.012,0.144 0.02,0.288 0.02,0.432 0,0.076 0,0.148 -0.004,0.224 -0.028,0.48 -0.352,0.904 -0.824,0.904 -0.432,0 -0.78,-0.348 -0.78,-0.78 0,-0.232 0.212,-0.416 0.448,-0.416 0.216,0 0.38,0.192 0.38,0.416 0,0.208 -0.172,0.38 -0.38,0.38 -0.048,0 -0.096,-0.016 -0.14,-0.036 0.104,0.164 0.28,0.28 0.484,0.28 0.004,0 0.008,-0.004 0.012,-0.004 0.372,-0.008 0.616,-0.372 0.64,-0.768 0.004,-0.072 0.008,-0.14 0.008,-0.212 0,-0.128 -0.008,-0.256 -0.02,-0.384 -0.116,0.02 -0.232,0.032 -0.356,0.032 -0.752,0 -1.332,-0.684 -1.332,-1.488 0,-0.712 0.532,-1.224 1.004,-1.76 -0.072,-0.252 -0.14,-0.504 -0.168,-0.764 -0.024,-0.204 -0.028,-0.408 -0.028,-0.616 0,-0.464 0.22,-0.904 0.6,-1.18 0.02,-0.016 0.044,-0.016 0.064,0 0.28,0.336 0.528,0.984 0.528,1.436 0,0.576 -0.348,1.024 -0.732,1.46 0.08,0.276 0.156,0.552 0.22,0.832 z m 0.34,1.86 c 0.276,-0.096 0.468,-0.384 0.468,-0.664 0,-0.368 -0.276,-0.736 -0.716,-0.772 0.1,0.468 0.192,0.94 0.248,1.436 z m -1.552,-0.944 c 0,0.544 0.524,1.004 1.068,1.004 0.112,0 0.22,-0.008 0.328,-0.024 -0.06,-0.512 -0.152,-0.988 -0.256,-1.468 -0.316,0.036 -0.5,0.248 -0.5,0.484 0,0.176 0.104,0.368 0.328,0.496 0.016,0.016 0.028,0.036 0.028,0.056 0,0.044 -0.036,0.084 -0.08,0.084 -0.012,0 -0.024,-0.004 -0.036,-0.008 -0.32,-0.172 -0.464,-0.456 -0.464,-0.736 0,-0.352 0.228,-0.692 0.632,-0.784 -0.056,-0.24 -0.12,-0.476 -0.184,-0.712 -0.432,0.484 -0.864,0.968 -0.864,1.608 z m 1.36,-4.076 c -0.396,0.2 -0.644,0.604 -0.644,1.048 0,0.304 0.06,0.548 0.132,0.8 0.328,-0.388 0.596,-0.792 0.596,-1.3 0,-0.232 -0.016,-0.336 -0.084,-0.548 z"
     id="path136"
     inkscape:connector-curvature="0"
     style="fill:currentColor;stroke-width:0.004" />
  <a
     style="color:inherit"
     xlink:href="textedit:///home/valentin/Programming/WebstormProjects/fett/lilypond/m2_f_major_solfege.ly:22:49:50"
     id="a146"
     transform="translate(-10.505062,-2.305409)">
    <circle
       transform="translate(21.5531,10.0009)"
       r="0.5424"
       id="circle138"
       cx="0"
       cy="0"
       style="fill:currentColor;stroke:currentColor;stroke-width:0;stroke-linecap:round;stroke-linejoin:round" />
    <g
       id="g144"
       style="color:#ffffff">
      <text
         transform="translate(21.251,10.3292)"
         font-weight="bold"
         font-size="0.8733"
         id="text142"
         style="font-weight:bold;font-size:0.87330002px;font-family:sans-serif;text-anchor:start;fill:currentColor">
        <tspan
           id="tspan140">1</tspan>
      </text>
    </g>
  </a>
  <a
     style="color:inherit"
     xlink:href="textedit:///home/valentin/Programming/WebstormProjects/fett/lilypond/m2_f_major_solfege.ly:27:14:15"
     id="a154"
     transform="translate(-10.505062,-2.305409)">
    <text
       transform="translate(34.3428,14.0009)"
       font-size="2.4695"
       id="text150"
       style="font-size:2.46950006px;font-family:'Century Schoolbook L';text-anchor:start;fill:currentColor">
      <tspan
         id="tspan148">B</tspan>
    </text>
    <path
       transform="matrix(0.0036,0,0,-0.0036,36.228,14.0009)"
       d="m 26,43 -1,-68 v -11 c 0,-22 0,-44 3,-66 46,38 95,80 95,139 0,34 -14,68 -44,68 C 48,105 27,76 26,43 Z m -40,-180 -12,598 c 8,5 17,6 26,6 9,0 18,-1 26,-6 L 19,113 c 25,20 57,32 90,32 52,0 91,-47 91,-101 0,-81 -88,-118 -150,-169 -15,-12 -22,-35 -42,-35 -12,0 -22,10 -22,23 z"
       id="path152"
       inkscape:connector-curvature="0"
       style="fill:currentColor" />
  </a>
  <rect
     x="30.342138"
     y="5.8259912"
     width="0.1103"
     height="3.3694999"
     ry="0.0308"
     id="rect156"
     style="fill:currentColor" />
  <a
     style="color:inherit"
     xlink:href="textedit:///home/valentin/Programming/WebstormProjects/fett/lilypond/m2_f_major_solfege.ly:32:20:21"
     id="a162"
     transform="translate(-10.505062,-2.305409)">
    <text
       transform="translate(39.9976,5.0009)"
       font-size="2.4695"
       id="text160"
       style="font-size:2.46950006px;font-family:'Century Schoolbook L';text-anchor:start;fill:currentColor">
      <tspan
         id="tspan158">So</tspan>
    </text>
  </a>
  <a
     style="color:inherit"
     xlink:href="textedit:///home/valentin/Programming/WebstormProjects/fett/lilypond/m2_f_major_solfege.ly:27:45:46"
     id="a168"
     transform="translate(-10.505062,-2.305409)">
    <text
       transform="translate(40.4966,14.0009)"
       font-size="2.4695"
       id="text166"
       style="font-size:2.46950006px;font-family:'Century Schoolbook L';text-anchor:start;fill:currentColor">
      <tspan
         id="tspan164">C</tspan>
    </text>
  </a>
  <a
     style="color:inherit"
     xlink:href="textedit:///home/valentin/Programming/WebstormProjects/fett/lilypond/m2_f_major_solfege.ly:22:59:60"
     id="a178"
     transform="translate(-10.505062,-2.305409)">
    <circle
       transform="translate(41.3896,8.0009)"
       r="0.5424"
       id="circle170"
       cx="0"
       cy="0"
       style="fill:currentColor;stroke:currentColor;stroke-width:0;stroke-linecap:round;stroke-linejoin:round" />
    <g
       id="g176"
       style="color:#ffffff">
      <text
         transform="translate(41.0876,8.3292)"
         font-weight="bold"
         font-size="0.8733"
         id="text174"
         style="font-weight:bold;font-size:0.87330002px;font-family:sans-serif;text-anchor:start;fill:currentColor">
        <tspan
           id="tspan172">5</tspan>
      </text>
    </g>
  </a>
  <rect
     x="24.594339"
     y="6.3259912"
     width="0.1103"
     height="3.2028"
     ry="0.0308"
     id="rect180"
     style="fill:currentColor" />
  <a
     style="color:inherit"
     xlink:href="textedit:///home/valentin/Programming/WebstormProjects/fett/lilypond/m2_f_major_solfege.ly:32:17:18"
     id="a186"
     transform="translate(-10.505062,-2.305409)">
    <text
       transform="translate(34.1709,5.0009)"
       font-size="2.4695"
       id="text184"
       style="font-size:2.46950006px;font-family:'Century Schoolbook L';text-anchor:start;fill:currentColor">
      <tspan
         id="tspan182">Fa</tspan>
    </text>
  </a>
  <a
     style="color:inherit"
     xlink:href="textedit:///home/valentin/Programming/WebstormProjects/fett/lilypond/m2_f_major_solfege.ly:22:55:56"
     id="a196"
     transform="translate(-10.505062,-2.305409)">
    <circle
       transform="translate(35.6417,8.5009)"
       r="0.5424"
       id="circle188"
       cx="0"
       cy="0"
       style="fill:currentColor;stroke:currentColor;stroke-width:0;stroke-linecap:round;stroke-linejoin:round" />
    <g
       id="g194"
       style="color:#ffffff">
      <text
         transform="translate(35.3397,8.8292)"
         font-weight="bold"
         font-size="0.8733"
         id="text192"
         style="font-weight:bold;font-size:0.87330002px;font-family:sans-serif;text-anchor:start;fill:currentColor">
        <tspan
           id="tspan190">4</tspan>
      </text>
    </g>
  </a>
  <rect
     x="20.849838"
     y="3.1954911"
     width="0.1103"
     height="3.3694999"
     ry="0.0308"
     id="rect198"
     style="fill:currentColor" />
  <a
     style="color:inherit"
     xlink:href="textedit:///home/valentin/Programming/WebstormProjects/fett/lilypond/m2_f_major_solfege.ly:32:14:15"
     id="a204"
     transform="translate(-10.505062,-2.305409)">
    <text
       transform="translate(29.36,5.0009)"
       font-size="2.4695"
       id="text202"
       style="font-size:2.46950006px;font-family:'Century Schoolbook L';text-anchor:start;fill:currentColor">
      <tspan
         id="tspan200">Mi</tspan>
    </text>
  </a>
  <a
     style="color:inherit"
     xlink:href="textedit:///home/valentin/Programming/WebstormProjects/fett/lilypond/m2_f_major_solfege.ly:22:53:54"
     id="a214"
     transform="translate(-10.505062,-2.305409)">
    <circle
       transform="translate(30.9228,9.0009)"
       r="0.5424"
       id="circle206"
       cx="0"
       cy="0"
       style="fill:currentColor;stroke:currentColor;stroke-width:0;stroke-linecap:round;stroke-linejoin:round" />
    <g
       id="g212"
       style="color:#ffffff">
      <text
         transform="translate(30.6207,9.3292)"
         font-weight="bold"
         font-size="0.8733"
         id="text210"
         style="font-weight:bold;font-size:0.87330002px;font-family:sans-serif;text-anchor:start;fill:currentColor">
        <tspan
           id="tspan208">3</tspan>
      </text>
    </g>
  </a>
  <a
     style="color:inherit"
     xlink:href="textedit:///home/valentin/Programming/WebstormProjects/fett/lilypond/m2_f_major_solfege.ly:27:12:13"
     id="a220"
     transform="translate(-10.505062,-2.305409)">
    <text
       transform="translate(30.0298,14.0009)"
       font-size="2.4695"
       id="text218"
       style="font-size:2.46950006px;font-family:'Century Schoolbook L';text-anchor:start;fill:currentColor">
      <tspan
         id="tspan216">A</tspan>
    </text>
  </a>
</svg>
