<?xml version="1.0" encoding="UTF-8" standalone="no"?>
<svg
   xmlns:dc="http://purl.org/dc/elements/1.1/"
   xmlns:cc="http://creativecommons.org/ns#"
   xmlns:rdf="http://www.w3.org/1999/02/22-rdf-syntax-ns#"
   xmlns:svg="http://www.w3.org/2000/svg"
   xmlns="http://www.w3.org/2000/svg"
   xmlns:sodipodi="http://sodipodi.sourceforge.net/DTD/sodipodi-0.dtd"
   xmlns:inkscape="http://www.inkscape.org/namespaces/inkscape"
   version="1.2"
   width="194.93454mm"
   height="64.991005mm"
   viewBox="0 0 110.92852 36.983471"
   id="svg468"
   sodipodi:docname="m2_recognition.svg"
   inkscape:version="0.92.4 (5da689c313, 2019-01-14)">
  <metadata
     id="metadata474">
    <rdf:RDF>
      <cc:Work
         rdf:about="">
        <dc:format>image/svg+xml</dc:format>
        <dc:type
           rdf:resource="http://purl.org/dc/dcmitype/StillImage" />
        <dc:title></dc:title>
      </cc:Work>
    </rdf:RDF>
  </metadata>
  <defs
     id="defs472" />
  <sodipodi:namedview
     pagecolor="#ffffff"
     bordercolor="#666666"
     borderopacity="1"
     objecttolerance="10"
     gridtolerance="10"
     guidetolerance="10"
     inkscape:pageopacity="0"
     inkscape:pageshadow="2"
     inkscape:window-width="1920"
     inkscape:window-height="1023"
     id="namedview470"
     showgrid="false"
     fit-margin-top="2"
     fit-margin-left="1"
     fit-margin-right="1"
     fit-margin-bottom="2"
     inkscape:zoom="0.84096521"
     inkscape:cx="701.19671"
     inkscape:cy="15.287072"
     inkscape:window-x="0"
     inkscape:window-y="31"
     inkscape:window-maximized="1"
     inkscape:current-layer="svg468" />
  <!-- Page: 1/1 -->
  <text
     font-size="2.2001"
     id="text4"
     style="font-size:2.20009995px;font-family:'Century Schoolbook L';text-anchor:start;fill:currentColor"
     x="2.2382452"
     y="0.14576164">
    <tspan
       id="tspan2" />
  </text>
  <line
     x1="2.2882452"
     y1="10.305362"
     x2="110.30875"
     y2="10.305362"
     id="line6"
     style="stroke:currentColor;stroke-width:0.1;stroke-linecap:round;stroke-linejoin:round" />
  <line
     x1="2.2882452"
     y1="9.3053617"
     x2="110.30875"
     y2="9.3053617"
     id="line8"
     style="stroke:currentColor;stroke-width:0.1;stroke-linecap:round;stroke-linejoin:round" />
  <line
     x1="2.2882452"
     y1="8.3053617"
     x2="110.30875"
     y2="8.3053617"
     id="line10"
     style="stroke:currentColor;stroke-width:0.1;stroke-linecap:round;stroke-linejoin:round" />
  <line
     x1="2.2882452"
     y1="7.3053617"
     x2="110.30875"
     y2="7.3053617"
     id="line12"
     style="stroke:currentColor;stroke-width:0.1;stroke-linecap:round;stroke-linejoin:round" />
  <line
     x1="2.2882452"
     y1="6.3053617"
     x2="110.30875"
     y2="6.3053617"
     id="line14"
     style="stroke:currentColor;stroke-width:0.1;stroke-linecap:round;stroke-linejoin:round" />
  <rect
     x="87.969742"
     y="6.3053617"
     width="0.19"
     height="4"
     ry="0.0000"
     id="rect16"
     style="fill:currentColor" />
  <rect
     x="37.736946"
     y="6.3053617"
     width="0.19"
     height="4"
     ry="0.0000"
     id="rect18"
     style="fill:currentColor" />
  <rect
     x="73.952843"
     y="6.3053617"
     width="0.19"
     height="4"
     ry="0.0000"
     id="rect20"
     style="fill:currentColor" />
  <rect
     x="73.462845"
     y="6.3053617"
     width="0.19"
     height="4"
     ry="0.0000"
     id="rect22"
     style="fill:currentColor" />
  <rect
     x="97.603943"
     y="6.3053617"
     width="0.19"
     height="4"
     ry="0.0000"
     id="rect24"
     style="fill:currentColor" />
  <rect
     x="51.753845"
     y="6.3053617"
     width="0.19"
     height="4"
     ry="0.0000"
     id="rect26"
     style="fill:currentColor" />
  <rect
     x="23.720045"
     y="6.3053617"
     width="0.19"
     height="4"
     ry="0.0000"
     id="rect28"
     style="fill:currentColor" />
  <rect
     x="110.16865"
     y="6.3053617"
     width="0.19"
     height="4"
     ry="0.0000"
     id="rect30"
     style="fill:currentColor" />
  <rect
     x="109.67864"
     y="6.3053617"
     width="0.19"
     height="4"
     ry="0.0000"
     id="rect32"
     style="fill:currentColor" />
  <rect
     x="61.388046"
     y="6.3053617"
     width="0.19"
     height="4"
     ry="0.0000"
     id="rect34"
     style="fill:currentColor" />
  <path
     d="m 69.590445,8.3053616 h -1.42 c -0.024,0 -0.04,-0.016 -0.04,-0.04 v -0.544 c 0,-0.024 0.016,-0.04 0.04,-0.04 h 1.42 c 0.024,0 0.04,0.016 0.04,0.04 v 0.544 c 0,0.024 -0.016,0.04 -0.04,0.04 z"
     id="path36"
     inkscape:connector-curvature="0"
     style="fill:currentColor;stroke-width:0.004" />
  <path
     d="m 75.187845,9.3053616 h 0.556887 l 1.176471,-2 h -0.556887 z"
     id="path38"
     inkscape:connector-curvature="0"
     style="fill:currentColor;stroke:currentColor;stroke-width:0;stroke-linecap:round;stroke-linejoin:round" />
  <text
     font-size="2.6163"
     id="text42"
     style="font-size:2.61630011px;font-family:sans-serif;text-anchor:start;fill:currentColor"
     x="75.187843"
     y="5.7211618">
    <tspan
       id="tspan40">C</tspan>
  </text>
  <text
     font-size="2.6163"
     id="text46"
     style="font-size:2.61630011px;font-family:sans-serif;text-anchor:start;fill:currentColor"
     x="77.031647"
     y="5.7211618">
    <tspan
       id="tspan44" />
  </text>
  <text
     font-size="2.6163"
     id="text50"
     style="font-size:2.61630011px;font-family:sans-serif;text-anchor:start;fill:currentColor"
     x="77.031647"
     y="4.2211618">
    <tspan
       id="tspan48">5</tspan>
  </text>
  <text
     font-size="2.2001"
     id="text54"
     style="font-size:2.20009995px;font-family:'Century Schoolbook L';text-anchor:start;fill:currentColor"
     x="68.130447"
     y="5.7553616">
    <tspan
       id="tspan52">»Re«</tspan>
  </text>
  <path
     d="m 78.383345,9.3053616 h 0.556887 l 1.176471,-2 h -0.556887 z"
     id="path56"
     inkscape:connector-curvature="0"
     style="fill:currentColor;stroke:currentColor;stroke-width:0;stroke-linecap:round;stroke-linejoin:round" />
  <path
     d="m 54.848845,6.8573616 c -0.2,0 -0.276,0.172 -0.276,0.352 0,0.308 0.228,0.544 0.536,0.544 0.2,0 0.276,-0.172 0.276,-0.352 0,-0.308 -0.228,-0.544 -0.536,-0.544 z m 1.12,0.448 c 0,0.172 -0.14,0.304 -0.292,0.388 -0.212,0.12 -0.452,0.164 -0.696,0.164 -0.244,0 -0.488,-0.044 -0.7,-0.164 -0.152,-0.084 -0.292,-0.216 -0.292,-0.388 0,-0.172 0.14,-0.304 0.292,-0.388 0.212,-0.12 0.456,-0.164 0.7,-0.164 0.244,0 0.484,0.044 0.696,0.164 0.152,0.084 0.292,0.216 0.292,0.388 z"
     id="path58"
     inkscape:connector-curvature="0"
     style="fill:currentColor;stroke-width:0.004" />
  <path
     d="m 64.258145,8.3053616 h -1.42 c -0.024,0 -0.04,-0.016 -0.04,-0.04 v -0.544 c 0,-0.024 0.016,-0.04 0.04,-0.04 h 1.42 c 0.024,0 0.04,0.016 0.04,0.04 v 0.544 c 0,0.024 -0.016,0.04 -0.04,0.04 z"
     id="path60"
     inkscape:connector-curvature="0"
     style="fill:currentColor;stroke-width:0.004" />
  <path
     d="m 63.280145,5.7873616 c 0,-0.148 0.12,-0.268 0.268,-0.268 0.148,0 0.268,0.12 0.268,0.268 0,0.148 -0.12,0.268 -0.268,0.268 -0.148,0 -0.268,-0.12 -0.268,-0.268 z m 0.268,-1.26 c 0.628,0 1.328,0.704 1.328,1.464 0,0.036 -0.04,0.06 -0.076,0.06 -0.036,0 -0.068,-0.02 -0.076,-0.072 -0.104,-0.592 -0.584,-1.048 -1.176,-1.048 -0.592,0 -1.072,0.456 -1.176,1.048 -0.008,0.052 -0.04,0.072 -0.076,0.072 -0.036,0 -0.076,-0.024 -0.076,-0.06 0,-0.76 0.7,-1.464 1.328,-1.464 z"
     id="path62"
     inkscape:connector-curvature="0"
     style="fill:currentColor;stroke-width:0.004" />
  <path
     d="m 105.80635,8.3053616 h -1.42 c -0.024,0 -0.04,-0.016 -0.04,-0.04 v -0.544 c 0,-0.024 0.016,-0.04 0.04,-0.04 h 1.42 c 0.024,0 0.04,0.016 0.04,0.04 v 0.544 c 0,0.024 -0.016,0.04 -0.04,0.04 z"
     id="path64"
     inkscape:connector-curvature="0"
     style="fill:currentColor;stroke-width:0.004" />
  <text
     font-size="2.2001"
     id="text68"
     style="font-size:2.20009995px;font-family:'Century Schoolbook L';text-anchor:start;fill:currentColor"
     x="104.34634"
     y="5.7553616">
    <tspan
       id="tspan66">»La«</tspan>
  </text>
  <path
     d="m 81.578745,9.3053616 h 0.556887 l 1.176471,-2 h -0.556887 z"
     id="path70"
     inkscape:connector-curvature="0"
     style="fill:currentColor;stroke:currentColor;stroke-width:0;stroke-linecap:round;stroke-linejoin:round" />
  <path
     d="m 84.774245,9.3053616 h 0.556887 l 1.176471,-2 h -0.556887 z"
     id="path72"
     inkscape:connector-curvature="0"
     style="fill:currentColor;stroke:currentColor;stroke-width:0;stroke-linecap:round;stroke-linejoin:round" />
  <path
     d="m 91.064745,8.3573616 c -0.2,0 -0.276,0.172 -0.276,0.352 0,0.308 0.228,0.544 0.536,0.544 0.2,0 0.276,-0.172 0.276,-0.352 0,-0.308 -0.228,-0.544 -0.536,-0.544 z m 1.12,0.448 c 0,0.172 -0.14,0.304 -0.292,0.388 -0.212,0.12 -0.452,0.164 -0.696,0.164 -0.244,0 -0.488,-0.044 -0.7,-0.164 -0.152,-0.084 -0.292,-0.216 -0.292,-0.388 0,-0.172 0.14,-0.304 0.292,-0.388 0.212,-0.12 0.456,-0.164 0.7,-0.164 0.244,0 0.484,0.044 0.696,0.164 0.152,0.084 0.292,0.216 0.292,0.388 z"
     id="path74"
     inkscape:connector-curvature="0"
     style="fill:currentColor;stroke-width:0.004" />
  <path
     d="m 100.47405,8.3053616 h -1.420005 c -0.024,0 -0.04,-0.016 -0.04,-0.04 v -0.544 c 0,-0.024 0.016,-0.04 0.04,-0.04 h 1.420005 c 0.024,0 0.04,0.016 0.04,0.04 v 0.544 c 0,0.024 -0.016,0.04 -0.04,0.04 z"
     id="path76"
     inkscape:connector-curvature="0"
     style="fill:currentColor;stroke-width:0.004" />
  <path
     d="m 99.496045,5.7873616 c 0,-0.148 0.12,-0.268 0.268,-0.268 0.148,0 0.268005,0.12 0.268005,0.268 0,0.148 -0.120005,0.268 -0.268005,0.268 -0.148,0 -0.268,-0.12 -0.268,-0.268 z m 0.268,-1.26 c 0.628005,0 1.328005,0.704 1.328005,1.464 0,0.036 -0.04,0.06 -0.076,0.06 -0.036,0 -0.068,-0.02 -0.076,-0.072 -0.104,-0.592 -0.584,-1.048 -1.176005,-1.048 -0.592,0 -1.072,0.456 -1.176,1.048 -0.008,0.052 -0.04,0.072 -0.076,0.072 -0.036,0 -0.076,-0.024 -0.076,-0.06 0,-0.76 0.7,-1.464 1.328,-1.464 z"
     id="path78"
     inkscape:connector-curvature="0"
     style="fill:currentColor;stroke-width:0.004" />
  <path
     d="m 20.524545,9.3053616 h 0.556887 l 1.176471,-2 h -0.556887 z"
     id="path80"
     inkscape:connector-curvature="0"
     style="fill:currentColor;stroke:currentColor;stroke-width:0;stroke-linecap:round;stroke-linejoin:round" />
  <text
     font-size="2.6163"
     id="text84"
     style="font-size:2.61630011px;font-family:sans-serif;text-anchor:start;fill:currentColor"
     x="24.955046"
     y="5.7211618">
    <tspan
       id="tspan82">F</tspan>
  </text>
  <text
     font-size="2.6163"
     id="text88"
     style="font-size:2.61630011px;font-family:sans-serif;text-anchor:start;fill:currentColor"
     x="26.457445"
     y="5.7211618">
    <tspan
       id="tspan86" />
  </text>
  <text
     font-size="2.6163"
     id="text92"
     style="font-size:2.61630011px;font-family:sans-serif;text-anchor:start;fill:currentColor"
     x="26.457445"
     y="5.7211618">
    <tspan
       id="tspan90" />
  </text>
  <text
     font-size="1.8500"
     id="text96"
     style="font-size:1.85000002px;font-family:sans-serif;text-anchor:start;fill:currentColor"
     x="26.457445"
     y="4.2211618">
    <tspan
       id="tspan94" />
  </text>
  <text
     font-size="2.4696"
     id="text100"
     style="font-size:2.46959996px;font-family:'Century Schoolbook L';text-anchor:start;fill:currentColor"
     x="24.955046"
     y="2.9211617">
    <tspan
       id="tspan98">IV</tspan>
  </text>
  <path
     d="m 24.955045,9.3053616 h 0.556887 l 1.176471,-2 h -0.556887 z"
     id="path102"
     inkscape:connector-curvature="0"
     style="fill:currentColor;stroke:currentColor;stroke-width:0;stroke-linecap:round;stroke-linejoin:round" />
  <path
     d="m 28.150545,9.3053616 h 0.556887 l 1.176471,-2 h -0.556887 z"
     id="path104"
     inkscape:connector-curvature="0"
     style="fill:currentColor;stroke:currentColor;stroke-width:0;stroke-linecap:round;stroke-linejoin:round" />
  <text
     font-size="2.6163"
     id="text108"
     style="font-size:2.61630011px;font-family:sans-serif;text-anchor:start;fill:currentColor"
     x="10.938146"
     y="5.7211618">
    <tspan
       id="tspan106">C</tspan>
  </text>
  <text
     font-size="2.6163"
     id="text112"
     style="font-size:2.61630011px;font-family:sans-serif;text-anchor:start;fill:currentColor"
     x="12.781945"
     y="5.7211618">
    <tspan
       id="tspan110" />
  </text>
  <text
     font-size="2.6163"
     id="text116"
     style="font-size:2.61630011px;font-family:sans-serif;text-anchor:start;fill:currentColor"
     x="12.781945"
     y="5.7211618">
    <tspan
       id="tspan114" />
  </text>
  <text
     font-size="1.8500"
     id="text120"
     style="font-size:1.85000002px;font-family:sans-serif;text-anchor:start;fill:currentColor"
     x="12.781945"
     y="4.2211618">
    <tspan
       id="tspan118" />
  </text>
  <text
     font-size="2.4696"
     id="text124"
     style="font-size:2.46959996px;font-family:'Century Schoolbook L';text-anchor:start;fill:currentColor"
     x="10.938146"
     y="2.9211617">
    <tspan
       id="tspan122">I</tspan>
  </text>
  <path
     d="m 10.938145,9.3053616 h 0.556887 l 1.176471,-2 h -0.556887 z"
     id="path126"
     inkscape:connector-curvature="0"
     style="fill:currentColor;stroke:currentColor;stroke-width:0;stroke-linecap:round;stroke-linejoin:round" />
  <path
     d="m 4.1022452,11.845362 h -0.024 c -0.432,0 -0.78,-0.352 -0.78,-0.788 0,-0.232 0.212,-0.412 0.448,-0.412 0.216,0 0.38,0.188 0.38,0.412 0,0.208 -0.172,0.38 -0.38,0.38 -0.044,0 -0.084,-0.008 -0.124,-0.024 0.104,0.156 0.272,0.26 0.468,0.26 h 0.016 z m 0.78,-1.728 c 0.272,-0.096 0.452,-0.3800004 0.452,-0.6560004 0,-0.36 -0.264,-0.716 -0.692,-0.76 0.096,0.464 0.184,0.924 0.24,1.4160004 z m -1.548,-0.9240004 c 0,0.54 0.516,0.9880004 1.056,0.9880004 0.112,0 0.22,-0.008 0.328,-0.024 -0.056,-0.5080004 -0.148,-0.9800004 -0.252,-1.4560004 -0.316,0.032 -0.496,0.244 -0.496,0.476 0,0.176 0.1,0.364 0.324,0.492 0.02,0.02 0.028,0.04 0.028,0.06 0,0.044 -0.04,0.088 -0.088,0.088 -0.012,0 -0.024,-0.004 -0.036,-0.008 -0.32,-0.172 -0.468,-0.46 -0.468,-0.74 0,-0.352 0.232,-0.696 0.64,-0.788 -0.056,-0.232 -0.116,-0.468 -0.184,-0.7 -0.428,0.484 -0.852,0.972 -0.852,1.612 z m 1.044,1.1600004 c -0.752,0 -1.332,-0.6880004 -1.332,-1.4960004 0,-0.708 0.524,-1.224 0.992,-1.764 -0.076,-0.248 -0.148,-0.5 -0.18,-0.76 -0.024,-0.208 -0.028,-0.416 -0.028,-0.624 0,-0.46 0.22,-0.896 0.596,-1.168 0.024,-0.02 0.056,-0.02 0.08,0 0.284,0.336 0.532,0.98 0.532,1.432 0,0.572 -0.344,1.02 -0.72,1.456 0.084,0.272 0.156,0.552 0.224,0.828 0.016,0 0.036,-0.004 0.052,-0.004 0.62,0 1.024,0.512 1.024,1.044 0,0.304 -0.132,0.616 -0.428,0.8400004 -0.088,0.068 -0.188,0.112 -0.292,0.144 0.012,0.14 0.02,0.28 0.02,0.42 0,0.076 -0.004,0.156 -0.008,0.232 -0.028,0.476 -0.352,0.9 -0.808,0.912 l 0.004,-0.172 c 0.372,-0.008 0.612,-0.368 0.636,-0.764 0.004,-0.072 0.008,-0.148 0.008,-0.22 0,-0.124 -0.004,-0.244 -0.016,-0.368 -0.116,0.02 -0.232,0.032 -0.356,0.032 z m 0.372,-4.7120004 c 0,-0.22 -0.016,-0.316 -0.08,-0.516 -0.396,0.192 -0.648,0.596 -0.648,1.036 0,0.296 0.072,0.532 0.144,0.776 0.32,-0.388 0.584,-0.792 0.584,-1.296 z"
     id="path128"
     inkscape:connector-curvature="0"
     style="fill:currentColor;stroke-width:0.004" />
  <path
     d="m 8.6742452,8.1973616 c -0.196,0 -0.3,-0.168 -0.3,-0.3 0,-0.152 0.108,-0.308 0.288,-0.308 0.016,0 0.036,0 0.056,0.004 -0.112,-0.148 -0.288,-0.236 -0.48,-0.236 -0.424,0 -0.452,0.292 -0.452,0.744 v 0.204 0.204 c 0,0.452 0.028,0.748 0.452,0.748 0.32,0 0.556,-0.28 0.632,-0.604 0.008,-0.028 0.028,-0.04 0.048,-0.04 0.024,0 0.052,0.016 0.052,0.048 0,0.376 -0.42,0.696 -0.732,0.696 -0.272,0 -0.548,-0.084 -0.736,-0.28 -0.196,-0.204 -0.264,-0.488 -0.264,-0.772 0,-0.284 0.068,-0.568 0.264,-0.772 0.188,-0.196 0.464,-0.276 0.736,-0.276 0.348,0 0.64,0.252 0.7,0.596 0.004,0.02 0.004,0.04 0.004,0.056 0,0.16 -0.12,0.288 -0.268,0.288 z"
     id="path130"
     inkscape:connector-curvature="0"
     style="fill:currentColor;stroke-width:0.004" />
  <path
     d="m 14.133645,9.3053616 h 0.556887 l 1.176471,-2 h -0.556887 z"
     id="path132"
     inkscape:connector-curvature="0"
     style="fill:currentColor;stroke:currentColor;stroke-width:0;stroke-linecap:round;stroke-linejoin:round" />
  <path
     d="m 17.329145,9.3053616 h 0.556887 l 1.176471,-2 h -0.556887 z"
     id="path134"
     inkscape:connector-curvature="0"
     style="fill:currentColor;stroke:currentColor;stroke-width:0;stroke-linecap:round;stroke-linejoin:round" />
  <text
     font-size="2.6163"
     id="text138"
     style="font-size:2.61630011px;font-family:sans-serif;text-anchor:start;fill:currentColor"
     x="38.971947"
     y="5.7211618">
    <tspan
       id="tspan136">C</tspan>
  </text>
  <text
     font-size="2.6163"
     id="text142"
     style="font-size:2.61630011px;font-family:sans-serif;text-anchor:start;fill:currentColor"
     x="40.815746"
     y="5.7211618">
    <tspan
       id="tspan140" />
  </text>
  <text
     font-size="2.6163"
     id="text146"
     style="font-size:2.61630011px;font-family:sans-serif;text-anchor:start;fill:currentColor"
     x="40.815746"
     y="5.7211618">
    <tspan
       id="tspan144" />
  </text>
  <text
     font-size="1.8500"
     id="text150"
     style="font-size:1.85000002px;font-family:sans-serif;text-anchor:start;fill:currentColor"
     x="40.815746"
     y="4.2211618">
    <tspan
       id="tspan148" />
  </text>
  <text
     font-size="2.4696"
     id="text154"
     style="font-size:2.46959996px;font-family:'Century Schoolbook L';text-anchor:start;fill:currentColor"
     x="38.971947"
     y="2.9211617">
    <tspan
       id="tspan152">I</tspan>
  </text>
  <path
     d="m 38.971945,9.3053616 h 0.556887 l 1.176471,-2 h -0.556887 z"
     id="path156"
     inkscape:connector-curvature="0"
     style="fill:currentColor;stroke:currentColor;stroke-width:0;stroke-linecap:round;stroke-linejoin:round" />
  <path
     d="m 45.362945,9.3053616 h 0.556887 l 1.176471,-2 h -0.556887 z"
     id="path158"
     inkscape:connector-curvature="0"
     style="fill:currentColor;stroke:currentColor;stroke-width:0;stroke-linecap:round;stroke-linejoin:round" />
  <text
     font-size="2.6163"
     id="text162"
     style="font-size:2.61630011px;font-family:sans-serif;text-anchor:start;fill:currentColor"
     x="31.346045"
     y="5.7211618">
    <tspan
       id="tspan160">G</tspan>
  </text>
  <text
     font-size="2.6163"
     id="text166"
     style="font-size:2.61630011px;font-family:sans-serif;text-anchor:start;fill:currentColor"
     x="33.360447"
     y="5.7211618">
    <tspan
       id="tspan164" />
  </text>
  <text
     font-size="2.6163"
     id="text170"
     style="font-size:2.61630011px;font-family:sans-serif;text-anchor:start;fill:currentColor"
     x="33.360447"
     y="5.7211618">
    <tspan
       id="tspan168" />
  </text>
  <text
     font-size="1.8500"
     id="text174"
     style="font-size:1.85000002px;font-family:sans-serif;text-anchor:start;fill:currentColor"
     x="33.360447"
     y="4.2211618">
    <tspan
       id="tspan172" />
  </text>
  <text
     font-size="2.4696"
     id="text178"
     style="font-size:2.46959996px;font-family:'Century Schoolbook L';text-anchor:start;fill:currentColor"
     x="31.346045"
     y="2.9211617">
    <tspan
       id="tspan176">V</tspan>
  </text>
  <path
     d="m 31.346045,9.3053616 h 0.556887 l 1.176471,-2 h -0.556887 z"
     id="path180"
     inkscape:connector-curvature="0"
     style="fill:currentColor;stroke:currentColor;stroke-width:0;stroke-linecap:round;stroke-linejoin:round" />
  <path
     d="m 48.558345,9.3053616 h 0.556887 l 1.176471,-2 h -0.556887 z"
     id="path182"
     inkscape:connector-curvature="0"
     style="fill:currentColor;stroke:currentColor;stroke-width:0;stroke-linecap:round;stroke-linejoin:round" />
  <path
     d="m 34.541445,9.3053616 h 0.556887 l 1.176471,-2 h -0.556887 z"
     id="path184"
     inkscape:connector-curvature="0"
     style="fill:currentColor;stroke:currentColor;stroke-width:0;stroke-linecap:round;stroke-linejoin:round" />
  <path
     d="m 42.167445,9.3053616 h 0.556887 l 1.176471,-2 h -0.556887 z"
     id="path186"
     inkscape:connector-curvature="0"
     style="fill:currentColor;stroke:currentColor;stroke-width:0;stroke-linecap:round;stroke-linejoin:round" />
  <rect
     x="98.218842"
     y="18.305361"
     width="0.19"
     height="4"
     ry="0.0000"
     id="rect188"
     style="fill:currentColor" />
  <rect
     x="20.151445"
     y="18.305361"
     width="0.19"
     height="4"
     ry="0.0000"
     id="rect190"
     style="fill:currentColor" />
  <rect
     x="75.728249"
     y="18.305361"
     width="0.19"
     height="4"
     ry="0.0000"
     id="rect192"
     style="fill:currentColor" />
  <rect
     x="75.238243"
     y="18.305361"
     width="0.19"
     height="4"
     ry="0.0000"
     id="rect194"
     style="fill:currentColor" />
  <rect
     x="89.032242"
     y="18.305361"
     width="0.19"
     height="4"
     ry="0.0000"
     id="rect196"
     style="fill:currentColor" />
  <rect
     x="63.778347"
     y="18.305361"
     width="0.19"
     height="4"
     ry="0.0000"
     id="rect198"
     style="fill:currentColor" />
  <rect
     x="29.337946"
     y="18.305361"
     width="0.19"
     height="4"
     ry="0.0000"
     id="rect200"
     style="fill:currentColor" />
  <rect
     x="110.16865"
     y="18.305361"
     width="0.19"
     height="4"
     ry="0.0000"
     id="rect202"
     style="fill:currentColor" />
  <rect
     x="109.67864"
     y="18.305361"
     width="0.19"
     height="4"
     ry="0.0000"
     id="rect204"
     style="fill:currentColor" />
  <rect
     x="54.591846"
     y="18.305361"
     width="0.19"
     height="4"
     ry="0.0000"
     id="rect206"
     style="fill:currentColor" />
  <rect
     x="41.287846"
     y="18.305361"
     width="0.19"
     height="4"
     ry="0.0000"
     id="rect208"
     style="fill:currentColor" />
  <rect
     x="40.797844"
     y="18.305361"
     width="0.19"
     height="4"
     ry="0.0000"
     id="rect210"
     style="fill:currentColor" />
  <line
     x1="2.2882452"
     y1="22.305361"
     x2="110.30875"
     y2="22.305361"
     id="line212"
     style="stroke:currentColor;stroke-width:0.1;stroke-linecap:round;stroke-linejoin:round" />
  <line
     x1="2.2882452"
     y1="21.305361"
     x2="110.30875"
     y2="21.305361"
     id="line214"
     style="stroke:currentColor;stroke-width:0.1;stroke-linecap:round;stroke-linejoin:round" />
  <line
     x1="2.2882452"
     y1="20.305361"
     x2="110.30875"
     y2="20.305361"
     id="line216"
     style="stroke:currentColor;stroke-width:0.1;stroke-linecap:round;stroke-linejoin:round" />
  <line
     x1="2.2882452"
     y1="19.305361"
     x2="110.30875"
     y2="19.305361"
     id="line218"
     style="stroke:currentColor;stroke-width:0.1;stroke-linecap:round;stroke-linejoin:round" />
  <line
     x1="2.2882452"
     y1="18.305361"
     x2="110.30875"
     y2="18.305361"
     id="line220"
     style="stroke:currentColor;stroke-width:0.1;stroke-linecap:round;stroke-linejoin:round" />
  <text
     font-size="2.2001"
     id="text224"
     style="font-size:2.20009995px;font-family:'Century Schoolbook L';text-anchor:start;fill:currentColor"
     x="70.191246"
     y="17.755362">
    <tspan
       id="tspan222">»So«</tspan>
  </text>
  <path
     d="m 71.651245,20.305362 h -1.42 c -0.024,0 -0.04,-0.016 -0.04,-0.04 v -0.544 c 0,-0.024 0.016,-0.04 0.04,-0.04 h 1.42 c 0.024,0 0.04,0.016 0.04,0.04 v 0.544 c 0,0.024 -0.016,0.04 -0.04,0.04 z"
     id="path226"
     inkscape:connector-curvature="0"
     style="fill:currentColor;stroke-width:0.004" />
  <text
     font-size="2.6163"
     id="text230"
     style="font-size:2.61630011px;font-family:sans-serif;text-anchor:start;fill:currentColor"
     x="76.919044"
     y="17.721161">
    <tspan
       id="tspan228">C</tspan>
  </text>
  <text
     font-size="2.6163"
     id="text234"
     style="font-size:2.61630011px;font-family:sans-serif;text-anchor:start;fill:currentColor"
     x="78.762749"
     y="17.721161">
    <tspan
       id="tspan232" />
  </text>
  <text
     font-size="2.6163"
     id="text238"
     style="font-size:2.61630011px;font-family:sans-serif;text-anchor:start;fill:currentColor"
     x="78.762749"
     y="16.221161">
    <tspan
       id="tspan236">5</tspan>
  </text>
  <path
     d="m 76.919045,21.305362 h 0.556887 l 1.176471,-2 h -0.556887 z"
     id="path240"
     inkscape:connector-curvature="0"
     style="fill:currentColor;stroke:currentColor;stroke-width:0;stroke-linecap:round;stroke-linejoin:round" />
  <path
     d="m 79.947345,21.305362 h 0.556887 l 1.176471,-2 h -0.556887 z"
     id="path242"
     inkscape:connector-curvature="0"
     style="fill:currentColor;stroke:currentColor;stroke-width:0;stroke-linecap:round;stroke-linejoin:round" />
  <path
     d="m 57.642645,20.857362 c -0.2,0 -0.276,0.172 -0.276,0.352 0,0.308 0.228,0.544 0.536,0.544 0.2,0 0.276,-0.172 0.276,-0.352 0,-0.308 -0.228,-0.544 -0.536,-0.544 z m 1.12,0.448 c 0,0.172 -0.14,0.304 -0.292,0.388 -0.212,0.12 -0.452,0.164 -0.696,0.164 -0.244,0 -0.488,-0.044 -0.7,-0.164 -0.152,-0.084 -0.292,-0.216 -0.292,-0.388 0,-0.172 0.14,-0.304 0.292,-0.388 0.212,-0.12 0.456,-0.164 0.7,-0.164 0.244,0 0.484,0.044 0.696,0.164 0.152,0.084 0.292,0.216 0.292,0.388 z"
     id="path244"
     inkscape:connector-curvature="0"
     style="fill:currentColor;stroke-width:0.004" />
  <path
     d="m 66.604145,20.305362 h -1.42 c -0.024,0 -0.04,-0.016 -0.04,-0.04 v -0.544 c 0,-0.024 0.016,-0.04 0.04,-0.04 h 1.42 c 0.024,0 0.04,0.016 0.04,0.04 v 0.544 c 0,0.024 -0.016,0.04 -0.04,0.04 z"
     id="path246"
     inkscape:connector-curvature="0"
     style="fill:currentColor;stroke-width:0.004" />
  <path
     d="m 65.626145,17.787362 c 0,-0.148 0.12,-0.268 0.268,-0.268 0.148,0 0.268,0.12 0.268,0.268 0,0.148 -0.12,0.268 -0.268,0.268 -0.148,0 -0.268,-0.12 -0.268,-0.268 z m 0.268,-1.26 c 0.628,0 1.328,0.704 1.328,1.464 0,0.036 -0.04,0.06 -0.076,0.06 -0.036,0 -0.068,-0.02 -0.076,-0.072 -0.104,-0.592 -0.584,-1.048 -1.176,-1.048 -0.592,0 -1.072,0.456 -1.176,1.048 -0.008,0.052 -0.04,0.072 -0.076,0.072 -0.036,0 -0.076,-0.024 -0.076,-0.06 0,-0.76 0.7,-1.464 1.328,-1.464 z"
     id="path248"
     inkscape:connector-curvature="0"
     style="fill:currentColor;stroke-width:0.004" />
  <path
     d="m 106.09165,20.305362 h -1.42 c -0.024,0 -0.04,-0.016 -0.04,-0.04 v -0.544 c 0,-0.024 0.016,-0.04 0.04,-0.04 h 1.42 c 0.024,0 0.04,0.016 0.04,0.04 v 0.544 c 0,0.024 -0.016,0.04 -0.04,0.04 z"
     id="path250"
     inkscape:connector-curvature="0"
     style="fill:currentColor;stroke-width:0.004" />
  <path
     d="m 100.06655,17.787362 c 0,-0.148 0.12,-0.268 0.268,-0.268 0.148,0 0.268,0.12 0.268,0.268 0,0.148 -0.12,0.268 -0.268,0.268 -0.148,0 -0.268,-0.12 -0.268,-0.268 z m 0.268,-1.26 c 0.628,0 1.328,0.704 1.328,1.464 0,0.036 -0.04,0.06 -0.076,0.06 -0.036,0 -0.068,-0.02 -0.076,-0.072 -0.104,-0.592 -0.584,-1.048 -1.176,-1.048 -0.592005,0 -1.072005,0.456 -1.176005,1.048 -0.008,0.052 -0.04,0.072 -0.076,0.072 -0.036,0 -0.076,-0.024 -0.076,-0.06 0,-0.76 0.7,-1.464 1.328005,-1.464 z"
     id="path252"
     inkscape:connector-curvature="0"
     style="fill:currentColor;stroke-width:0.004" />
  <path
     d="m 101.04455,20.305362 h -1.420005 c -0.024,0 -0.04,-0.016 -0.04,-0.04 v -0.544 c 0,-0.024 0.016,-0.04 0.04,-0.04 h 1.420005 c 0.024,0 0.04,0.016 0.04,0.04 v 0.544 c 0,0.024 -0.016,0.04 -0.04,0.04 z"
     id="path254"
     inkscape:connector-curvature="0"
     style="fill:currentColor;stroke-width:0.004" />
  <text
     font-size="2.2001"
     id="text258"
     style="font-size:2.20009995px;font-family:'Century Schoolbook L';text-anchor:start;fill:currentColor"
     x="104.63165"
     y="17.755362">
    <tspan
       id="tspan256">»Do«</tspan>
  </text>
  <path
     d="m 82.975645,21.305362 h 0.556887 l 1.176471,-2 h -0.556887 z"
     id="path260"
     inkscape:connector-curvature="0"
     style="fill:currentColor;stroke:currentColor;stroke-width:0;stroke-linecap:round;stroke-linejoin:round" />
  <path
     d="m 86.003945,21.305362 h 0.556887 l 1.176471,-2 h -0.556887 z"
     id="path262"
     inkscape:connector-curvature="0"
     style="fill:currentColor;stroke:currentColor;stroke-width:0;stroke-linecap:round;stroke-linejoin:round" />
  <path
     d="m 92.083045,19.357362 c -0.2,0 -0.276,0.172 -0.276,0.352 0,0.308 0.228,0.544 0.536,0.544 0.2,0 0.276,-0.172 0.276,-0.352 0,-0.308 -0.228,-0.544 -0.536,-0.544 z m 1.12,0.448 c 0,0.172 -0.14,0.304 -0.292,0.388 -0.212,0.12 -0.452,0.164 -0.696,0.164 -0.244,0 -0.488,-0.044 -0.7,-0.164 -0.152,-0.084 -0.292,-0.216 -0.292,-0.388 0,-0.172 0.14,-0.304 0.292,-0.388 0.212,-0.12 0.456,-0.164 0.7,-0.164 0.244,0 0.484,0.044 0.696,0.164 0.152,0.084 0.292,0.216 0.292,0.388 z"
     id="path264"
     inkscape:connector-curvature="0"
     style="fill:currentColor;stroke-width:0.004" />
  <path
     d="m 32.163745,20.305362 h -1.42 c -0.024,0 -0.04,-0.016 -0.04,-0.04 v -0.544 c 0,-0.024 0.016,-0.04 0.04,-0.04 h 1.42 c 0.024,0 0.04,0.016 0.04,0.04 v 0.544 c 0,0.024 -0.016,0.04 -0.04,0.04 z"
     id="path266"
     inkscape:connector-curvature="0"
     style="fill:currentColor;stroke-width:0.004" />
  <text
     font-size="2.6163"
     id="text270"
     style="font-size:2.61630011px;font-family:sans-serif;text-anchor:start;fill:currentColor"
     x="8.0382452"
     y="17.721161">
    <tspan
       id="tspan268">C</tspan>
  </text>
  <text
     font-size="2.6163"
     id="text274"
     style="font-size:2.61630011px;font-family:sans-serif;text-anchor:start;fill:currentColor"
     x="9.8819456"
     y="17.721161">
    <tspan
       id="tspan272" />
  </text>
  <text
     font-size="2.6163"
     id="text278"
     style="font-size:2.61630011px;font-family:sans-serif;text-anchor:start;fill:currentColor"
     x="9.8819456"
     y="16.221161">
    <tspan
       id="tspan276">5</tspan>
  </text>
  <path
     d="m 31.185745,17.787362 c 0,-0.148 0.12,-0.268 0.268,-0.268 0.148,0 0.268,0.12 0.268,0.268 0,0.148 -0.12,0.268 -0.268,0.268 -0.148,0 -0.268,-0.12 -0.268,-0.268 z m 0.268,-1.26 c 0.628,0 1.328,0.704 1.328,1.464 0,0.036 -0.04,0.06 -0.076,0.06 -0.036,0 -0.068,-0.02 -0.076,-0.072 -0.104,-0.592 -0.584,-1.048 -1.176,-1.048 -0.592,0 -1.072,0.456 -1.176,1.048 -0.008,0.052 -0.04,0.072 -0.076,0.072 -0.036,0 -0.076,-0.024 -0.076,-0.06 0,-0.76 0.7,-1.464 1.328,-1.464 z"
     id="path280"
     inkscape:connector-curvature="0"
     style="fill:currentColor;stroke-width:0.004" />
  <path
     d="m 17.123145,21.305362 h 0.556887 l 1.176471,-2 h -0.556887 z"
     id="path282"
     inkscape:connector-curvature="0"
     style="fill:currentColor;stroke:currentColor;stroke-width:0;stroke-linecap:round;stroke-linejoin:round" />
  <path
     d="m 11.066545,21.305362 h 0.556887 l 1.176471,-2 h -0.556887 z"
     id="path284"
     inkscape:connector-curvature="0"
     style="fill:currentColor;stroke:currentColor;stroke-width:0;stroke-linecap:round;stroke-linejoin:round" />
  <path
     d="m 14.094845,21.305362 h 0.556887 l 1.176471,-2 h -0.556887 z"
     id="path286"
     inkscape:connector-curvature="0"
     style="fill:currentColor;stroke:currentColor;stroke-width:0;stroke-linecap:round;stroke-linejoin:round" />
  <path
     d="m 23.202145,19.357362 c -0.2,0 -0.276,0.172 -0.276,0.352 0,0.308 0.228,0.544 0.536,0.544 0.2,0 0.276,-0.172 0.276,-0.352 0,-0.308 -0.228,-0.544 -0.536,-0.544 z m 1.12,0.448 c 0,0.172 -0.14,0.304 -0.292,0.388 -0.212,0.12 -0.452,0.164 -0.696,0.164 -0.244,0 -0.488,-0.044 -0.7,-0.164 -0.152,-0.084 -0.292,-0.216 -0.292,-0.388 0,-0.172 0.14,-0.304 0.292,-0.388 0.212,-0.12 0.456,-0.164 0.7,-0.164 0.244,0 0.484,0.044 0.696,0.164 0.152,0.084 0.292,0.216 0.292,0.388 z"
     id="path288"
     inkscape:connector-curvature="0"
     style="fill:currentColor;stroke-width:0.004" />
  <path
     d="m 8.0382452,21.305362 h 0.5568871 l 1.1764705,-2 h -0.556887 z"
     id="path290"
     inkscape:connector-curvature="0"
     style="fill:currentColor;stroke:currentColor;stroke-width:0;stroke-linecap:round;stroke-linejoin:round" />
  <path
     d="m 45.506945,21.305362 h 0.556887 l 1.176471,-2 h -0.556887 z"
     id="path292"
     inkscape:connector-curvature="0"
     style="fill:currentColor;stroke:currentColor;stroke-width:0;stroke-linecap:round;stroke-linejoin:round" />
  <text
     font-size="1.7461"
     id="text296"
     style="font-size:1.74609995px;font-family:'Century Schoolbook L';text-anchor:start;fill:currentColor"
     x="1.2821453"
     y="17.221161">
    <tspan
       id="tspan294">9</tspan>
  </text>
  <path
     d="m 48.535245,21.305362 h 0.556887 l 1.176471,-2 h -0.556887 z"
     id="path298"
     inkscape:connector-curvature="0"
     style="fill:currentColor;stroke:currentColor;stroke-width:0;stroke-linecap:round;stroke-linejoin:round" />
  <path
     d="m 51.563545,21.305362 h 0.556887 l 1.176471,-2 h -0.556887 z"
     id="path300"
     inkscape:connector-curvature="0"
     style="fill:currentColor;stroke:currentColor;stroke-width:0;stroke-linecap:round;stroke-linejoin:round" />
  <path
     d="m 37.210845,20.305362 h -1.42 c -0.024,0 -0.04,-0.016 -0.04,-0.04 v -0.544 c 0,-0.024 0.016,-0.04 0.04,-0.04 h 1.42 c 0.024,0 0.04,0.016 0.04,0.04 v 0.544 c 0,0.024 -0.016,0.04 -0.04,0.04 z"
     id="path302"
     inkscape:connector-curvature="0"
     style="fill:currentColor;stroke-width:0.004" />
  <text
     font-size="2.2001"
     id="text306"
     style="font-size:2.20009995px;font-family:'Century Schoolbook L';text-anchor:start;fill:currentColor"
     x="35.750847"
     y="17.755362">
    <tspan
       id="tspan304">»Do«</tspan>
  </text>
  <path
     d="m 4.1022452,23.845362 h -0.024 c -0.432,0 -0.78,-0.352 -0.78,-0.788 0,-0.232 0.212,-0.412 0.448,-0.412 0.216,0 0.38,0.188 0.38,0.412 0,0.208 -0.172,0.38 -0.38,0.38 -0.044,0 -0.084,-0.008 -0.124,-0.024 0.104,0.156 0.272,0.26 0.468,0.26 h 0.016 z m 0.78,-1.728 c 0.272,-0.096 0.452,-0.38 0.452,-0.656 0,-0.36 -0.264,-0.716 -0.692,-0.76 0.096,0.464 0.184,0.924 0.24,1.416 z m -1.548,-0.924 c 0,0.54 0.516,0.988 1.056,0.988 0.112,0 0.22,-0.008 0.328,-0.024 -0.056,-0.508 -0.148,-0.98 -0.252,-1.456 -0.316,0.032 -0.496,0.244 -0.496,0.476 0,0.176 0.1,0.364 0.324,0.492 0.02,0.02 0.028,0.04 0.028,0.06 0,0.044 -0.04,0.088 -0.088,0.088 -0.012,0 -0.024,-0.004 -0.036,-0.008 -0.32,-0.172 -0.468,-0.46 -0.468,-0.74 0,-0.352 0.232,-0.696 0.64,-0.788 -0.056,-0.232 -0.116,-0.468 -0.184,-0.7 -0.428,0.484 -0.852,0.972 -0.852,1.612 z m 1.044,1.16 c -0.752,0 -1.332,-0.688 -1.332,-1.496 0,-0.708 0.524,-1.224 0.992,-1.764 -0.076,-0.248 -0.148,-0.5 -0.18,-0.76 -0.024,-0.208 -0.028,-0.416 -0.028,-0.624 0,-0.46 0.22,-0.896 0.596,-1.168 0.024,-0.02 0.056,-0.02 0.08,0 0.284,0.336 0.532,0.98 0.532,1.432 0,0.572 -0.344,1.02 -0.72,1.456 0.084,0.272 0.156,0.552 0.224,0.828 0.016,0 0.036,-0.004 0.052,-0.004 0.62,0 1.024,0.512 1.024,1.044 0,0.304 -0.132,0.616 -0.428,0.84 -0.088,0.068 -0.188,0.112 -0.292,0.144 0.012,0.14 0.02,0.28 0.02,0.42 0,0.076 -0.004,0.156 -0.008,0.232 -0.028,0.476 -0.352,0.9 -0.808,0.912 l 0.004,-0.172 c 0.372,-0.008 0.612,-0.368 0.636,-0.764 0.004,-0.072 0.008,-0.148 0.008,-0.22 0,-0.124 -0.004,-0.244 -0.016,-0.368 -0.116,0.02 -0.232,0.032 -0.356,0.032 z m 0.372,-4.712 c 0,-0.22 -0.016,-0.316 -0.08,-0.516 -0.396,0.192 -0.648,0.596 -0.648,1.036 0,0.296 0.072,0.532 0.144,0.776 0.32,-0.388 0.584,-0.792 0.584,-1.296 z"
     id="path308"
     inkscape:connector-curvature="0"
     style="fill:currentColor;stroke-width:0.004" />
  <text
     font-size="2.6163"
     id="text312"
     style="font-size:2.61630011px;font-family:sans-serif;text-anchor:start;fill:currentColor"
     x="42.478645"
     y="17.721161">
    <tspan
       id="tspan310">C</tspan>
  </text>
  <text
     font-size="2.6163"
     id="text316"
     style="font-size:2.61630011px;font-family:sans-serif;text-anchor:start;fill:currentColor"
     x="44.322346"
     y="17.721161">
    <tspan
       id="tspan314" />
  </text>
  <text
     font-size="2.6163"
     id="text320"
     style="font-size:2.61630011px;font-family:sans-serif;text-anchor:start;fill:currentColor"
     x="44.322346"
     y="16.221161">
    <tspan
       id="tspan318">5</tspan>
  </text>
  <path
     d="m 42.478645,21.305362 h 0.556887 l 1.176471,-2 h -0.556887 z"
     id="path322"
     inkscape:connector-curvature="0"
     style="fill:currentColor;stroke:currentColor;stroke-width:0;stroke-linecap:round;stroke-linejoin:round" />
  <rect
     x="98.218842"
     y="30.305361"
     width="0.19"
     height="4"
     ry="0.0000"
     id="rect324"
     style="fill:currentColor" />
  <rect
     x="20.151445"
     y="30.305361"
     width="0.19"
     height="4"
     ry="0.0000"
     id="rect326"
     style="fill:currentColor" />
  <rect
     x="75.728249"
     y="30.305361"
     width="0.19"
     height="4"
     ry="0.0000"
     id="rect328"
     style="fill:currentColor" />
  <rect
     x="75.238243"
     y="30.305361"
     width="0.19"
     height="4"
     ry="0.0000"
     id="rect330"
     style="fill:currentColor" />
  <rect
     x="89.032242"
     y="30.305361"
     width="0.19"
     height="4"
     ry="0.0000"
     id="rect332"
     style="fill:currentColor" />
  <rect
     x="63.778347"
     y="30.305361"
     width="0.19"
     height="4"
     ry="0.0000"
     id="rect334"
     style="fill:currentColor" />
  <rect
     x="29.337946"
     y="30.305361"
     width="0.19"
     height="4"
     ry="0.0000"
     id="rect336"
     style="fill:currentColor" />
  <rect
     x="110.16865"
     y="30.305361"
     width="0.19"
     height="4"
     ry="0.0000"
     id="rect338"
     style="fill:currentColor" />
  <rect
     x="109.67864"
     y="30.305361"
     width="0.19"
     height="4"
     ry="0.0000"
     id="rect340"
     style="fill:currentColor" />
  <rect
     x="54.591846"
     y="30.305361"
     width="0.19"
     height="4"
     ry="0.0000"
     id="rect342"
     style="fill:currentColor" />
  <rect
     x="41.287846"
     y="30.305361"
     width="0.19"
     height="4"
     ry="0.0000"
     id="rect344"
     style="fill:currentColor" />
  <rect
     x="40.797844"
     y="30.305361"
     width="0.19"
     height="4"
     ry="0.0000"
     id="rect346"
     style="fill:currentColor" />
  <line
     x1="2.2882452"
     y1="34.305363"
     x2="110.30875"
     y2="34.305363"
     id="line348"
     style="stroke:currentColor;stroke-width:0.1;stroke-linecap:round;stroke-linejoin:round" />
  <line
     x1="2.2882452"
     y1="33.305363"
     x2="110.30875"
     y2="33.305363"
     id="line350"
     style="stroke:currentColor;stroke-width:0.1;stroke-linecap:round;stroke-linejoin:round" />
  <line
     x1="2.2882452"
     y1="32.305363"
     x2="110.30875"
     y2="32.305363"
     id="line352"
     style="stroke:currentColor;stroke-width:0.1;stroke-linecap:round;stroke-linejoin:round" />
  <line
     x1="2.2882452"
     y1="31.305361"
     x2="110.30875"
     y2="31.305361"
     id="line354"
     style="stroke:currentColor;stroke-width:0.1;stroke-linecap:round;stroke-linejoin:round" />
  <line
     x1="2.2882452"
     y1="30.305361"
     x2="110.30875"
     y2="30.305361"
     id="line356"
     style="stroke:currentColor;stroke-width:0.1;stroke-linecap:round;stroke-linejoin:round" />
  <text
     font-size="2.2001"
     id="text360"
     style="font-size:2.20009995px;font-family:'Century Schoolbook L';text-anchor:start;fill:currentColor"
     x="70.191246"
     y="29.755362">
    <tspan
       id="tspan358">»La«</tspan>
  </text>
  <path
     d="m 71.651245,32.305362 h -1.42 c -0.024,0 -0.04,-0.016 -0.04,-0.04 v -0.544 c 0,-0.024 0.016,-0.04 0.04,-0.04 h 1.42 c 0.024,0 0.04,0.016 0.04,0.04 v 0.544 c 0,0.024 -0.016,0.04 -0.04,0.04 z"
     id="path362"
     inkscape:connector-curvature="0"
     style="fill:currentColor;stroke-width:0.004" />
  <text
     font-size="2.6163"
     id="text366"
     style="font-size:2.61630011px;font-family:sans-serif;text-anchor:start;fill:currentColor"
     x="76.919044"
     y="29.721161">
    <tspan
       id="tspan364">C</tspan>
  </text>
  <text
     font-size="2.6163"
     id="text370"
     style="font-size:2.61630011px;font-family:sans-serif;text-anchor:start;fill:currentColor"
     x="78.762749"
     y="29.721161">
    <tspan
       id="tspan368" />
  </text>
  <text
     font-size="2.6163"
     id="text374"
     style="font-size:2.61630011px;font-family:sans-serif;text-anchor:start;fill:currentColor"
     x="78.762749"
     y="28.221161">
    <tspan
       id="tspan372">5</tspan>
  </text>
  <path
     d="m 76.919045,33.305362 h 0.556887 l 1.176471,-2 h -0.556887 z"
     id="path376"
     inkscape:connector-curvature="0"
     style="fill:currentColor;stroke:currentColor;stroke-width:0;stroke-linecap:round;stroke-linejoin:round" />
  <path
     d="m 79.947345,33.305362 h 0.556887 l 1.176471,-2 h -0.556887 z"
     id="path378"
     inkscape:connector-curvature="0"
     style="fill:currentColor;stroke:currentColor;stroke-width:0;stroke-linecap:round;stroke-linejoin:round" />
  <path
     d="m 57.642645,32.357362 c -0.2,0 -0.276,0.172 -0.276,0.352 0,0.308 0.228,0.544 0.536,0.544 0.2,0 0.276,-0.172 0.276,-0.352 0,-0.308 -0.228,-0.544 -0.536,-0.544 z m 1.12,0.448 c 0,0.172 -0.14,0.304 -0.292,0.388 -0.212,0.12 -0.452,0.164 -0.696,0.164 -0.244,0 -0.488,-0.044 -0.7,-0.164 -0.152,-0.084 -0.292,-0.216 -0.292,-0.388 0,-0.172 0.14,-0.304 0.292,-0.388 0.212,-0.12 0.456,-0.164 0.7,-0.164 0.244,0 0.484,0.044 0.696,0.164 0.152,0.084 0.292,0.216 0.292,0.388 z"
     id="path380"
     inkscape:connector-curvature="0"
     style="fill:currentColor;stroke-width:0.004" />
  <path
     d="m 66.604145,32.305362 h -1.42 c -0.024,0 -0.04,-0.016 -0.04,-0.04 v -0.544 c 0,-0.024 0.016,-0.04 0.04,-0.04 h 1.42 c 0.024,0 0.04,0.016 0.04,0.04 v 0.544 c 0,0.024 -0.016,0.04 -0.04,0.04 z"
     id="path382"
     inkscape:connector-curvature="0"
     style="fill:currentColor;stroke-width:0.004" />
  <path
     d="m 65.626145,29.787362 c 0,-0.148 0.12,-0.268 0.268,-0.268 0.148,0 0.268,0.12 0.268,0.268 0,0.148 -0.12,0.268 -0.268,0.268 -0.148,0 -0.268,-0.12 -0.268,-0.268 z m 0.268,-1.26 c 0.628,0 1.328,0.704 1.328,1.464 0,0.036 -0.04,0.06 -0.076,0.06 -0.036,0 -0.068,-0.02 -0.076,-0.072 -0.104,-0.592 -0.584,-1.048 -1.176,-1.048 -0.592,0 -1.072,0.456 -1.176,1.048 -0.008,0.052 -0.04,0.072 -0.076,0.072 -0.036,0 -0.076,-0.024 -0.076,-0.06 0,-0.76 0.7,-1.464 1.328,-1.464 z"
     id="path384"
     inkscape:connector-curvature="0"
     style="fill:currentColor;stroke-width:0.004" />
  <path
     d="m 106.09165,32.305362 h -1.42 c -0.024,0 -0.04,-0.016 -0.04,-0.04 v -0.544 c 0,-0.024 0.016,-0.04 0.04,-0.04 h 1.42 c 0.024,0 0.04,0.016 0.04,0.04 v 0.544 c 0,0.024 -0.016,0.04 -0.04,0.04 z"
     id="path386"
     inkscape:connector-curvature="0"
     style="fill:currentColor;stroke-width:0.004" />
  <path
     d="m 100.06655,29.787362 c 0,-0.148 0.12,-0.268 0.268,-0.268 0.148,0 0.268,0.12 0.268,0.268 0,0.148 -0.12,0.268 -0.268,0.268 -0.148,0 -0.268,-0.12 -0.268,-0.268 z m 0.268,-1.26 c 0.628,0 1.328,0.704 1.328,1.464 0,0.036 -0.04,0.06 -0.076,0.06 -0.036,0 -0.068,-0.02 -0.076,-0.072 -0.104,-0.592 -0.584,-1.048 -1.176,-1.048 -0.592005,0 -1.072005,0.456 -1.176005,1.048 -0.008,0.052 -0.04,0.072 -0.076,0.072 -0.036,0 -0.076,-0.024 -0.076,-0.06 0,-0.76 0.7,-1.464 1.328005,-1.464 z"
     id="path388"
     inkscape:connector-curvature="0"
     style="fill:currentColor;stroke-width:0.004" />
  <path
     d="m 101.04455,32.305362 h -1.420005 c -0.024,0 -0.04,-0.016 -0.04,-0.04 v -0.544 c 0,-0.024 0.016,-0.04 0.04,-0.04 h 1.420005 c 0.024,0 0.04,0.016 0.04,0.04 v 0.544 c 0,0.024 -0.016,0.04 -0.04,0.04 z"
     id="path390"
     inkscape:connector-curvature="0"
     style="fill:currentColor;stroke-width:0.004" />
  <text
     font-size="2.2001"
     id="text394"
     style="font-size:2.20009995px;font-family:'Century Schoolbook L';text-anchor:start;fill:currentColor"
     x="104.63165"
     y="29.755362">
    <tspan
       id="tspan392">»Re«</tspan>
  </text>
  <path
     d="m 82.975645,33.305362 h 0.556887 l 1.176471,-2 h -0.556887 z"
     id="path396"
     inkscape:connector-curvature="0"
     style="fill:currentColor;stroke:currentColor;stroke-width:0;stroke-linecap:round;stroke-linejoin:round" />
  <path
     d="m 86.003945,33.305362 h 0.556887 l 1.176471,-2 h -0.556887 z"
     id="path398"
     inkscape:connector-curvature="0"
     style="fill:currentColor;stroke:currentColor;stroke-width:0;stroke-linecap:round;stroke-linejoin:round" />
  <path
     d="m 92.083045,30.857362 c -0.2,0 -0.276,0.172 -0.276,0.352 0,0.308 0.228,0.544 0.536,0.544 0.2,0 0.276,-0.172 0.276,-0.352 0,-0.308 -0.228,-0.544 -0.536,-0.544 z m 1.12,0.448 c 0,0.172 -0.14,0.304 -0.292,0.388 -0.212,0.12 -0.452,0.164 -0.696,0.164 -0.244,0 -0.488,-0.044 -0.7,-0.164 -0.152,-0.084 -0.292,-0.216 -0.292,-0.388 0,-0.172 0.14,-0.304 0.292,-0.388 0.212,-0.12 0.456,-0.164 0.7,-0.164 0.244,0 0.484,0.044 0.696,0.164 0.152,0.084 0.292,0.216 0.292,0.388 z"
     id="path400"
     inkscape:connector-curvature="0"
     style="fill:currentColor;stroke-width:0.004" />
  <path
     d="m 32.163745,32.305362 h -1.42 c -0.024,0 -0.04,-0.016 -0.04,-0.04 v -0.544 c 0,-0.024 0.016,-0.04 0.04,-0.04 h 1.42 c 0.024,0 0.04,0.016 0.04,0.04 v 0.544 c 0,0.024 -0.016,0.04 -0.04,0.04 z"
     id="path402"
     inkscape:connector-curvature="0"
     style="fill:currentColor;stroke-width:0.004" />
  <text
     font-size="2.6163"
     id="text406"
     style="font-size:2.61630011px;font-family:sans-serif;text-anchor:start;fill:currentColor"
     x="8.0382452"
     y="29.721161">
    <tspan
       id="tspan404">C</tspan>
  </text>
  <text
     font-size="2.6163"
     id="text410"
     style="font-size:2.61630011px;font-family:sans-serif;text-anchor:start;fill:currentColor"
     x="9.8819456"
     y="29.721161">
    <tspan
       id="tspan408" />
  </text>
  <text
     font-size="2.6163"
     id="text414"
     style="font-size:2.61630011px;font-family:sans-serif;text-anchor:start;fill:currentColor"
     x="9.8819456"
     y="28.221161">
    <tspan
       id="tspan412">5</tspan>
  </text>
  <path
     d="m 31.185745,29.787362 c 0,-0.148 0.12,-0.268 0.268,-0.268 0.148,0 0.268,0.12 0.268,0.268 0,0.148 -0.12,0.268 -0.268,0.268 -0.148,0 -0.268,-0.12 -0.268,-0.268 z m 0.268,-1.26 c 0.628,0 1.328,0.704 1.328,1.464 0,0.036 -0.04,0.06 -0.076,0.06 -0.036,0 -0.068,-0.02 -0.076,-0.072 -0.104,-0.592 -0.584,-1.048 -1.176,-1.048 -0.592,0 -1.072,0.456 -1.176,1.048 -0.008,0.052 -0.04,0.072 -0.076,0.072 -0.036,0 -0.076,-0.024 -0.076,-0.06 0,-0.76 0.7,-1.464 1.328,-1.464 z"
     id="path416"
     inkscape:connector-curvature="0"
     style="fill:currentColor;stroke-width:0.004" />
  <path
     d="m 17.123145,33.305362 h 0.556887 l 1.176471,-2 h -0.556887 z"
     id="path418"
     inkscape:connector-curvature="0"
     style="fill:currentColor;stroke:currentColor;stroke-width:0;stroke-linecap:round;stroke-linejoin:round" />
  <path
     d="m 11.066545,33.305362 h 0.556887 l 1.176471,-2 h -0.556887 z"
     id="path420"
     inkscape:connector-curvature="0"
     style="fill:currentColor;stroke:currentColor;stroke-width:0;stroke-linecap:round;stroke-linejoin:round" />
  <path
     d="m 14.094845,33.305362 h 0.556887 l 1.176471,-2 h -0.556887 z"
     id="path422"
     inkscape:connector-curvature="0"
     style="fill:currentColor;stroke:currentColor;stroke-width:0;stroke-linecap:round;stroke-linejoin:round" />
  <path
     d="m 23.202145,33.857362 c -0.2,0 -0.276,0.172 -0.276,0.352 0,0.308 0.228,0.544 0.536,0.544 0.2,0 0.276,-0.172 0.276,-0.352 0,-0.308 -0.228,-0.544 -0.536,-0.544 z m 1.12,0.448 c 0,0.172 -0.14,0.304 -0.292,0.388 -0.212,0.12 -0.452,0.164 -0.696,0.164 -0.244,0 -0.488,-0.044 -0.7,-0.164 -0.152,-0.084 -0.292,-0.216 -0.292,-0.388 0,-0.172 0.14,-0.304 0.292,-0.388 0.212,-0.12 0.456,-0.164 0.7,-0.164 0.244,0 0.484,0.044 0.696,0.164 0.152,0.084 0.292,0.216 0.292,0.388 z"
     id="path424"
     inkscape:connector-curvature="0"
     style="fill:currentColor;stroke-width:0.004" />
  <path
     d="m 8.0382452,33.305362 h 0.5568871 l 1.1764705,-2 h -0.556887 z"
     id="path426"
     inkscape:connector-curvature="0"
     style="fill:currentColor;stroke:currentColor;stroke-width:0;stroke-linecap:round;stroke-linejoin:round" />
  <path
     d="m 45.506945,33.305362 h 0.556887 l 1.176471,-2 h -0.556887 z"
     id="path428"
     inkscape:connector-curvature="0"
     style="fill:currentColor;stroke:currentColor;stroke-width:0;stroke-linecap:round;stroke-linejoin:round" />
  <text
     font-size="1.7461"
     id="text432"
     style="font-size:1.74609995px;font-family:'Century Schoolbook L';text-anchor:start;fill:currentColor"
     x="0.39444524"
     y="29.221161">
    <tspan
       id="tspan430">18</tspan>
  </text>
  <path
     d="m 48.535245,33.305362 h 0.556887 l 1.176471,-2 h -0.556887 z"
     id="path434"
     inkscape:connector-curvature="0"
     style="fill:currentColor;stroke:currentColor;stroke-width:0;stroke-linecap:round;stroke-linejoin:round" />
  <path
     d="m 51.563545,33.305362 h 0.556887 l 1.176471,-2 h -0.556887 z"
     id="path436"
     inkscape:connector-curvature="0"
     style="fill:currentColor;stroke:currentColor;stroke-width:0;stroke-linecap:round;stroke-linejoin:round" />
  <path
     d="m 37.210845,32.305362 h -1.42 c -0.024,0 -0.04,-0.016 -0.04,-0.04 v -0.544 c 0,-0.024 0.016,-0.04 0.04,-0.04 h 1.42 c 0.024,0 0.04,0.016 0.04,0.04 v 0.544 c 0,0.024 -0.016,0.04 -0.04,0.04 z"
     id="path438"
     inkscape:connector-curvature="0"
     style="fill:currentColor;stroke-width:0.004" />
  <text
     font-size="2.2001"
     id="text442"
     style="font-size:2.20009995px;font-family:'Century Schoolbook L';text-anchor:start;fill:currentColor"
     x="35.750847"
     y="29.755362">
    <tspan
       id="tspan440">»Mi«</tspan>
  </text>
  <path
     d="m 4.1022452,35.845362 h -0.024 c -0.432,0 -0.78,-0.352 -0.78,-0.788 0,-0.232 0.212,-0.412 0.448,-0.412 0.216,0 0.38,0.188 0.38,0.412 0,0.208 -0.172,0.38 -0.38,0.38 -0.044,0 -0.084,-0.008 -0.124,-0.024 0.104,0.156 0.272,0.26 0.468,0.26 h 0.016 z m 0.78,-1.728 c 0.272,-0.096 0.452,-0.38 0.452,-0.656 0,-0.36 -0.264,-0.716 -0.692,-0.76 0.096,0.464 0.184,0.924 0.24,1.416 z m -1.548,-0.924 c 0,0.54 0.516,0.988 1.056,0.988 0.112,0 0.22,-0.008 0.328,-0.024 -0.056,-0.508 -0.148,-0.98 -0.252,-1.456 -0.316,0.032 -0.496,0.244 -0.496,0.476 0,0.176 0.1,0.364 0.324,0.492 0.02,0.02 0.028,0.04 0.028,0.06 0,0.044 -0.04,0.088 -0.088,0.088 -0.012,0 -0.024,-0.004 -0.036,-0.008 -0.32,-0.172 -0.468,-0.46 -0.468,-0.74 0,-0.352 0.232,-0.696 0.64,-0.788 -0.056,-0.232 -0.116,-0.468 -0.184,-0.7 -0.428,0.484 -0.852,0.972 -0.852,1.612 z m 1.044,1.16 c -0.752,0 -1.332,-0.688 -1.332,-1.496 0,-0.708 0.524,-1.224 0.992,-1.764 -0.076,-0.248 -0.148,-0.5 -0.18,-0.76 -0.024,-0.208 -0.028,-0.416 -0.028,-0.624 0,-0.46 0.22,-0.896 0.596,-1.168 0.024,-0.02 0.056,-0.02 0.08,0 0.284,0.336 0.532,0.98 0.532,1.432 0,0.572 -0.344,1.02 -0.72,1.456 0.084,0.272 0.156,0.552 0.224,0.828 0.016,0 0.036,-0.004 0.052,-0.004 0.62,0 1.024,0.512 1.024,1.044 0,0.304 -0.132,0.616 -0.428,0.84 -0.088,0.068 -0.188,0.112 -0.292,0.144 0.012,0.14 0.02,0.28 0.02,0.42 0,0.076 -0.004,0.156 -0.008,0.232 -0.028,0.476 -0.352,0.9 -0.808,0.912 l 0.004,-0.172 c 0.372,-0.008 0.612,-0.368 0.636,-0.764 0.004,-0.072 0.008,-0.148 0.008,-0.22 0,-0.124 -0.004,-0.244 -0.016,-0.368 -0.116,0.02 -0.232,0.032 -0.356,0.032 z m 0.372,-4.712 c 0,-0.22 -0.016,-0.316 -0.08,-0.516 -0.396,0.192 -0.648,0.596 -0.648,1.036 0,0.296 0.072,0.532 0.144,0.776 0.32,-0.388 0.584,-0.792 0.584,-1.296 z"
     id="path444"
     inkscape:connector-curvature="0"
     style="fill:currentColor;stroke-width:0.004" />
  <text
     font-size="2.6163"
     id="text448"
     style="font-size:2.61630011px;font-family:sans-serif;text-anchor:start;fill:currentColor"
     x="42.478645"
     y="29.721161">
    <tspan
       id="tspan446">C</tspan>
  </text>
  <text
     font-size="2.6163"
     id="text452"
     style="font-size:2.61630011px;font-family:sans-serif;text-anchor:start;fill:currentColor"
     x="44.322346"
     y="29.721161">
    <tspan
       id="tspan450" />
  </text>
  <text
     font-size="2.6163"
     id="text456"
     style="font-size:2.61630011px;font-family:sans-serif;text-anchor:start;fill:currentColor"
     x="44.322346"
     y="28.221161">
    <tspan
       id="tspan454">5</tspan>
  </text>
  <path
     d="m 42.478645,33.305362 h 0.556887 l 1.176471,-2 h -0.556887 z"
     id="path458"
     inkscape:connector-curvature="0"
     style="fill:currentColor;stroke:currentColor;stroke-width:0;stroke-linecap:round;stroke-linejoin:round" />
</svg>
